  0
SECTION
  2
HEADER
  9
$ANGBASE
  50
0.0
  9
$ANGDIR
  70
1
  9
$MEASUREMENT
  70
1
  0
ENDSEC
  0
SECTION
  2
TABLES
  0
TABLE
  2
LTYPE
  70
4
  0
LTYPE
  5
40F
  2
CONTINUOUS
  70
0
  3
Solid line
  72
65
  73
0
  40
0.0
  0
LTYPE
  5
410
  2
DASHDOT
 70
0
  3
Dash Dot ____ _ ____ _
 72
65
 73
4
 40
2.0
 49
1.25
 49
-0.25
 49
0.25
 49
-0.25
  0
LTYPE
  5
411
  2
DASHED
 70
0
  3
Dashed __ __ __ __ __
 72
65
 73
2
 40
0.75
 49
0.5
 49
-0.25
  0
LTYPE
  5
43B
  2
DOTTED
 70
0
  3
Dotted .  .  .  .
 72
65
 73
2
 40
0.2
 49
0.0
 49
-0.2
  0
ENDTAB
  0
TABLE
  2
STYLE
  70
4
  0
STYLE
  2
KICAD
  70
0
  40
0
  41
1
  42
1
  50
0
  71
0
  3
isocp.shx
  0
STYLE
  2
KICADB
  70
0
  40
0
  41
1
  42
1
  50
0
  71
0
  3
isocp.shx
  0
STYLE
  2
KICADI
  70
0
  40
0
  41
1
  42
1
  50
15
  71
0
  3
isocp.shx
  0
STYLE
  2
KICADBI
  70
0
  40
0
  41
1
  42
1
  50
15
  71
0
  3
isocp.shx
  0
ENDTAB
  0
TABLE
  2
LAYER
  70
1
  0
LAYER
  2
BLACK
  70
0
  62
7
  6
CONTINUOUS
  0
ENDTAB
  0
ENDSEC
  0
SECTION
  2
ENTITIES
0
LINE
8
BLACK
6
CONTINUOUS
10
44.545
20
-25.165
11
44.545
21
-33.115
0
LINE
8
BLACK
6
CONTINUOUS
10
44.545
20
-33.115
11
55.645
21
-33.115
0
LINE
8
BLACK
6
CONTINUOUS
10
55.645
20
-33.115
11
55.645
21
-29.765
0
LINE
8
BLACK
6
CONTINUOUS
10
55.645
20
-29.765
11
55.6596
21
-29.7296
0
LINE
8
BLACK
6
CONTINUOUS
10
55.6596
20
-29.7296
11
55.695
21
-29.715
0
LINE
8
BLACK
6
CONTINUOUS
10
55.695
20
-29.715
11
74.445
21
-29.715
0
LINE
8
BLACK
6
CONTINUOUS
10
74.445
20
-29.715
11
74.445
21
-25.165
0
LINE
8
BLACK
6
CONTINUOUS
10
74.445
20
-25.165
11
74.4596
21
-25.1296
0
LINE
8
BLACK
6
CONTINUOUS
10
74.4596
20
-25.1296
11
74.495
21
-25.115
0
LINE
8
BLACK
6
CONTINUOUS
10
74.495
20
-25.115
11
105.995
21
-25.115
0
LINE
8
BLACK
6
CONTINUOUS
10
105.995
20
-25.115
11
106.369
21
-25.1323
0
LINE
8
BLACK
6
CONTINUOUS
10
106.369
20
-25.1323
11
106.739
21
-25.184
0
LINE
8
BLACK
6
CONTINUOUS
10
106.739
20
-25.184
11
107.103
21
-25.2696
0
LINE
8
BLACK
6
CONTINUOUS
10
107.103
20
-25.2696
11
107.458
21
-25.3885
0
LINE
8
BLACK
6
CONTINUOUS
10
107.458
20
-25.3885
11
107.8
21
-25.5396
0
LINE
8
BLACK
6
CONTINUOUS
10
107.8
20
-25.5396
11
108.127
21
-25.7216
0
LINE
8
BLACK
6
CONTINUOUS
10
108.127
20
-25.7216
11
108.436
21
-25.933
0
LINE
8
BLACK
6
CONTINUOUS
10
108.436
20
-25.933
11
108.723
21
-26.172
0
LINE
8
BLACK
6
CONTINUOUS
10
108.723
20
-26.172
11
108.988
21
-26.4365
0
LINE
8
BLACK
6
CONTINUOUS
10
108.988
20
-26.4365
11
109.227
21
-26.7243
0
LINE
8
BLACK
6
CONTINUOUS
10
109.227
20
-26.7243
11
109.438
21
-27.033
0
LINE
8
BLACK
6
CONTINUOUS
10
109.438
20
-27.033
11
109.62
21
-27.3598
0
LINE
8
BLACK
6
CONTINUOUS
10
109.62
20
-27.3598
11
109.772
21
-27.702
0
LINE
8
BLACK
6
CONTINUOUS
10
109.772
20
-27.702
11
109.89
21
-28.0567
0
LINE
8
BLACK
6
CONTINUOUS
10
109.89
20
-28.0567
11
109.976
21
-28.4208
0
LINE
8
BLACK
6
CONTINUOUS
10
109.976
20
-28.4208
11
110.028
21
-28.7913
0
LINE
8
BLACK
6
CONTINUOUS
10
110.028
20
-28.7913
11
110.045
21
-29.165
0
LINE
8
BLACK
6
CONTINUOUS
10
110.045
20
-29.165
11
110.045
21
-120.165
0
LINE
8
BLACK
6
CONTINUOUS
10
110.045
20
-120.165
11
110.028
21
-120.539
0
LINE
8
BLACK
6
CONTINUOUS
10
110.028
20
-120.539
11
109.976
21
-120.909
0
LINE
8
BLACK
6
CONTINUOUS
10
109.976
20
-120.909
11
109.89
21
-121.273
0
LINE
8
BLACK
6
CONTINUOUS
10
109.89
20
-121.273
11
109.772
21
-121.628
0
LINE
8
BLACK
6
CONTINUOUS
10
109.772
20
-121.628
11
109.62
21
-121.97
0
LINE
8
BLACK
6
CONTINUOUS
10
109.62
20
-121.97
11
109.438
21
-122.297
0
LINE
8
BLACK
6
CONTINUOUS
10
109.438
20
-122.297
11
109.227
21
-122.606
0
LINE
8
BLACK
6
CONTINUOUS
10
109.227
20
-122.606
11
108.988
21
-122.893
0
LINE
8
BLACK
6
CONTINUOUS
10
108.988
20
-122.893
11
108.723
21
-123.158
0
LINE
8
BLACK
6
CONTINUOUS
10
108.723
20
-123.158
11
108.436
21
-123.397
0
LINE
8
BLACK
6
CONTINUOUS
10
108.436
20
-123.397
11
108.127
21
-123.608
0
LINE
8
BLACK
6
CONTINUOUS
10
108.127
20
-123.608
11
107.8
21
-123.79
0
LINE
8
BLACK
6
CONTINUOUS
10
107.8
20
-123.79
11
107.458
21
-123.942
0
LINE
8
BLACK
6
CONTINUOUS
10
107.458
20
-123.942
11
107.103
21
-124.06
0
LINE
8
BLACK
6
CONTINUOUS
10
107.103
20
-124.06
11
106.739
21
-124.146
0
LINE
8
BLACK
6
CONTINUOUS
10
106.739
20
-124.146
11
106.369
21
-124.198
0
LINE
8
BLACK
6
CONTINUOUS
10
106.369
20
-124.198
11
105.995
21
-124.215
0
LINE
8
BLACK
6
CONTINUOUS
10
105.995
20
-124.215
11
105.995
21
-124.215
0
LINE
8
BLACK
6
CONTINUOUS
10
105.995
20
-124.215
11
31.995
21
-124.215
0
LINE
8
BLACK
6
CONTINUOUS
10
31.995
20
-124.215
11
31.6213
21
-124.198
0
LINE
8
BLACK
6
CONTINUOUS
10
31.6213
20
-124.198
11
31.2508
21
-124.146
0
LINE
8
BLACK
6
CONTINUOUS
10
31.2508
20
-124.146
11
30.8867
21
-124.06
0
LINE
8
BLACK
6
CONTINUOUS
10
30.8867
20
-124.06
11
30.532
21
-123.942
0
LINE
8
BLACK
6
CONTINUOUS
10
30.532
20
-123.942
11
30.1898
21
-123.79
0
LINE
8
BLACK
6
CONTINUOUS
10
30.1898
20
-123.79
11
29.8629
21
-123.608
0
LINE
8
BLACK
6
CONTINUOUS
10
29.8629
20
-123.608
11
29.5543
21
-123.397
0
LINE
8
BLACK
6
CONTINUOUS
10
29.5543
20
-123.397
11
29.2665
21
-123.158
0
LINE
8
BLACK
6
CONTINUOUS
10
29.2665
20
-123.158
11
29.002
21
-122.893
0
LINE
8
BLACK
6
CONTINUOUS
10
29.002
20
-122.893
11
28.763
21
-122.606
0
LINE
8
BLACK
6
CONTINUOUS
10
28.763
20
-122.606
11
28.5516
21
-122.297
0
LINE
8
BLACK
6
CONTINUOUS
10
28.5516
20
-122.297
11
28.3696
21
-121.97
0
LINE
8
BLACK
6
CONTINUOUS
10
28.3696
20
-121.97
11
28.2185
21
-121.628
0
LINE
8
BLACK
6
CONTINUOUS
10
28.2185
20
-121.628
11
28.0996
21
-121.273
0
LINE
8
BLACK
6
CONTINUOUS
10
28.0996
20
-121.273
11
28.014
21
-120.909
0
LINE
8
BLACK
6
CONTINUOUS
10
28.014
20
-120.909
11
27.9623
21
-120.539
0
LINE
8
BLACK
6
CONTINUOUS
10
27.9623
20
-120.539
11
27.945
21
-120.165
0
LINE
8
BLACK
6
CONTINUOUS
10
27.945
20
-120.165
11
27.945
21
-29.165
0
LINE
8
BLACK
6
CONTINUOUS
10
27.945
20
-29.165
11
27.9623
21
-28.7913
0
LINE
8
BLACK
6
CONTINUOUS
10
27.9623
20
-28.7913
11
28.014
21
-28.4208
0
LINE
8
BLACK
6
CONTINUOUS
10
28.014
20
-28.4208
11
28.0996
21
-28.0567
0
LINE
8
BLACK
6
CONTINUOUS
10
28.0996
20
-28.0567
11
28.2185
21
-27.702
0
LINE
8
BLACK
6
CONTINUOUS
10
28.2185
20
-27.702
11
28.3696
21
-27.3598
0
LINE
8
BLACK
6
CONTINUOUS
10
28.3696
20
-27.3598
11
28.5516
21
-27.0329
0
LINE
8
BLACK
6
CONTINUOUS
10
28.5516
20
-27.0329
11
28.763
21
-26.7243
0
LINE
8
BLACK
6
CONTINUOUS
10
28.763
20
-26.7243
11
29.002
21
-26.4365
0
LINE
8
BLACK
6
CONTINUOUS
10
29.002
20
-26.4365
11
29.2665
21
-26.172
0
LINE
8
BLACK
6
CONTINUOUS
10
29.2665
20
-26.172
11
29.5543
21
-25.933
0
LINE
8
BLACK
6
CONTINUOUS
10
29.5543
20
-25.933
11
29.8629
21
-25.7216
0
LINE
8
BLACK
6
CONTINUOUS
10
29.8629
20
-25.7216
11
30.1898
21
-25.5396
0
LINE
8
BLACK
6
CONTINUOUS
10
30.1898
20
-25.5396
11
30.532
21
-25.3885
0
LINE
8
BLACK
6
CONTINUOUS
10
30.532
20
-25.3885
11
30.8867
21
-25.2696
0
LINE
8
BLACK
6
CONTINUOUS
10
30.8867
20
-25.2696
11
31.2508
21
-25.184
0
LINE
8
BLACK
6
CONTINUOUS
10
31.2508
20
-25.184
11
31.6213
21
-25.1323
0
LINE
8
BLACK
6
CONTINUOUS
10
31.6213
20
-25.1323
11
31.995
21
-25.115
0
LINE
8
BLACK
6
CONTINUOUS
10
31.995
20
-25.115
11
31.995
21
-25.115
0
LINE
8
BLACK
6
CONTINUOUS
10
31.995
20
-25.115
11
44.495
21
-25.115
0
LINE
8
BLACK
6
CONTINUOUS
10
44.495
20
-25.115
11
44.5304
21
-25.1296
0
LINE
8
BLACK
6
CONTINUOUS
10
44.5304
20
-25.1296
11
44.545
21
-25.165
0
LINE
8
BLACK
6
CONTINUOUS
10
74.545
20
-29.765
11
74.5304
21
-29.8004
0
LINE
8
BLACK
6
CONTINUOUS
10
74.5304
20
-29.8004
11
74.495
21
-29.815
0
LINE
8
BLACK
6
CONTINUOUS
10
74.495
20
-29.815
11
55.745
21
-29.815
0
LINE
8
BLACK
6
CONTINUOUS
10
55.745
20
-29.815
11
55.745
21
-33.165
0
LINE
8
BLACK
6
CONTINUOUS
10
55.745
20
-33.165
11
55.7304
21
-33.2004
0
LINE
8
BLACK
6
CONTINUOUS
10
55.7304
20
-33.2004
11
55.695
21
-33.215
0
LINE
8
BLACK
6
CONTINUOUS
10
55.695
20
-33.215
11
44.495
21
-33.215
0
LINE
8
BLACK
6
CONTINUOUS
10
44.495
20
-33.215
11
44.4596
21
-33.2004
0
LINE
8
BLACK
6
CONTINUOUS
10
44.4596
20
-33.2004
11
44.445
21
-33.165
0
LINE
8
BLACK
6
CONTINUOUS
10
44.445
20
-33.165
11
44.445
21
-25.215
0
LINE
8
BLACK
6
CONTINUOUS
10
44.445
20
-25.215
11
31.995
21
-25.215
0
LINE
8
BLACK
6
CONTINUOUS
10
31.995
20
-25.215
11
31.9858
21
-25.2112
0
LINE
8
BLACK
6
CONTINUOUS
10
31.9858
20
-25.2112
11
31.6301
21
-25.2276
0
LINE
8
BLACK
6
CONTINUOUS
10
31.6301
20
-25.2276
11
31.2684
21
-25.2781
0
LINE
8
BLACK
6
CONTINUOUS
10
31.2684
20
-25.2781
11
30.9129
21
-25.3617
0
LINE
8
BLACK
6
CONTINUOUS
10
30.9129
20
-25.3617
11
30.5666
21
-25.4778
0
LINE
8
BLACK
6
CONTINUOUS
10
30.5666
20
-25.4778
11
30.2325
21
-25.6253
0
LINE
8
BLACK
6
CONTINUOUS
10
30.2325
20
-25.6253
11
29.9134
21
-25.8031
0
LINE
8
BLACK
6
CONTINUOUS
10
29.9134
20
-25.8031
11
29.612
21
-26.0095
0
LINE
8
BLACK
6
CONTINUOUS
10
29.612
20
-26.0095
11
29.3311
21
-26.2428
0
LINE
8
BLACK
6
CONTINUOUS
10
29.3311
20
-26.2428
11
29.0728
21
-26.5011
0
LINE
8
BLACK
6
CONTINUOUS
10
29.0728
20
-26.5011
11
28.8395
21
-26.7821
0
LINE
8
BLACK
6
CONTINUOUS
10
28.8395
20
-26.7821
11
28.6331
21
-27.0834
0
LINE
8
BLACK
6
CONTINUOUS
10
28.6331
20
-27.0834
11
28.4553
21
-27.4025
0
LINE
8
BLACK
6
CONTINUOUS
10
28.4553
20
-27.4025
11
28.3078
21
-27.7366
0
LINE
8
BLACK
6
CONTINUOUS
10
28.3078
20
-27.7366
11
28.1917
21
-28.0829
0
LINE
8
BLACK
6
CONTINUOUS
10
28.1917
20
-28.0829
11
28.1081
21
-28.4384
0
LINE
8
BLACK
6
CONTINUOUS
10
28.1081
20
-28.4384
11
28.0576
21
-28.8002
0
LINE
8
BLACK
6
CONTINUOUS
10
28.0576
20
-28.8002
11
28.0412
21
-29.1558
0
LINE
8
BLACK
6
CONTINUOUS
10
28.0412
20
-29.1558
11
28.045
21
-29.165
0
LINE
8
BLACK
6
CONTINUOUS
10
28.045
20
-29.165
11
28.045
21
-120.165
0
LINE
8
BLACK
6
CONTINUOUS
10
28.045
20
-120.165
11
28.0412
21
-120.174
0
LINE
8
BLACK
6
CONTINUOUS
10
28.0412
20
-120.174
11
28.0576
21
-120.53
0
LINE
8
BLACK
6
CONTINUOUS
10
28.0576
20
-120.53
11
28.1081
21
-120.892
0
LINE
8
BLACK
6
CONTINUOUS
10
28.1081
20
-120.892
11
28.1917
21
-121.247
0
LINE
8
BLACK
6
CONTINUOUS
10
28.1917
20
-121.247
11
28.3078
21
-121.593
0
LINE
8
BLACK
6
CONTINUOUS
10
28.3078
20
-121.593
11
28.4553
21
-121.928
0
LINE
8
BLACK
6
CONTINUOUS
10
28.4553
20
-121.928
11
28.6331
21
-122.247
0
LINE
8
BLACK
6
CONTINUOUS
10
28.6331
20
-122.247
11
28.8395
21
-122.548
0
LINE
8
BLACK
6
CONTINUOUS
10
28.8395
20
-122.548
11
29.0728
21
-122.829
0
LINE
8
BLACK
6
CONTINUOUS
10
29.0728
20
-122.829
11
29.3311
21
-123.087
0
LINE
8
BLACK
6
CONTINUOUS
10
29.3311
20
-123.087
11
29.612
21
-123.321
0
LINE
8
BLACK
6
CONTINUOUS
10
29.612
20
-123.321
11
29.9134
21
-123.527
0
LINE
8
BLACK
6
CONTINUOUS
10
29.9134
20
-123.527
11
30.2325
21
-123.705
0
LINE
8
BLACK
6
CONTINUOUS
10
30.2325
20
-123.705
11
30.5666
21
-123.852
0
LINE
8
BLACK
6
CONTINUOUS
10
30.5666
20
-123.852
11
30.9129
21
-123.968
0
LINE
8
BLACK
6
CONTINUOUS
10
30.9129
20
-123.968
11
31.2684
21
-124.052
0
LINE
8
BLACK
6
CONTINUOUS
10
31.2684
20
-124.052
11
31.6301
21
-124.102
0
LINE
8
BLACK
6
CONTINUOUS
10
31.6301
20
-124.102
11
31.9858
21
-124.119
0
LINE
8
BLACK
6
CONTINUOUS
10
31.9858
20
-124.119
11
31.995
21
-124.115
0
LINE
8
BLACK
6
CONTINUOUS
10
31.995
20
-124.115
11
105.995
21
-124.115
0
LINE
8
BLACK
6
CONTINUOUS
10
105.995
20
-124.115
11
106.004
21
-124.119
0
LINE
8
BLACK
6
CONTINUOUS
10
106.004
20
-124.119
11
106.36
21
-124.102
0
LINE
8
BLACK
6
CONTINUOUS
10
106.36
20
-124.102
11
106.722
21
-124.052
0
LINE
8
BLACK
6
CONTINUOUS
10
106.722
20
-124.052
11
107.077
21
-123.968
0
LINE
8
BLACK
6
CONTINUOUS
10
107.077
20
-123.968
11
107.423
21
-123.852
0
LINE
8
BLACK
6
CONTINUOUS
10
107.423
20
-123.852
11
107.758
21
-123.705
0
LINE
8
BLACK
6
CONTINUOUS
10
107.758
20
-123.705
11
108.077
21
-123.527
0
LINE
8
BLACK
6
CONTINUOUS
10
108.077
20
-123.527
11
108.378
21
-123.321
0
LINE
8
BLACK
6
CONTINUOUS
10
108.378
20
-123.321
11
108.659
21
-123.087
0
LINE
8
BLACK
6
CONTINUOUS
10
108.659
20
-123.087
11
108.917
21
-122.829
0
LINE
8
BLACK
6
CONTINUOUS
10
108.917
20
-122.829
11
109.151
21
-122.548
0
LINE
8
BLACK
6
CONTINUOUS
10
109.151
20
-122.548
11
109.357
21
-122.247
0
LINE
8
BLACK
6
CONTINUOUS
10
109.357
20
-122.247
11
109.535
21
-121.928
0
LINE
8
BLACK
6
CONTINUOUS
10
109.535
20
-121.928
11
109.682
21
-121.593
0
LINE
8
BLACK
6
CONTINUOUS
10
109.682
20
-121.593
11
109.798
21
-121.247
0
LINE
8
BLACK
6
CONTINUOUS
10
109.798
20
-121.247
11
109.882
21
-120.892
0
LINE
8
BLACK
6
CONTINUOUS
10
109.882
20
-120.892
11
109.932
21
-120.53
0
LINE
8
BLACK
6
CONTINUOUS
10
109.932
20
-120.53
11
109.949
21
-120.174
0
LINE
8
BLACK
6
CONTINUOUS
10
109.949
20
-120.174
11
109.945
21
-120.165
0
LINE
8
BLACK
6
CONTINUOUS
10
109.945
20
-120.165
11
109.945
21
-29.165
0
LINE
8
BLACK
6
CONTINUOUS
10
109.945
20
-29.165
11
109.949
21
-29.1558
0
LINE
8
BLACK
6
CONTINUOUS
10
109.949
20
-29.1558
11
109.932
21
-28.8002
0
LINE
8
BLACK
6
CONTINUOUS
10
109.932
20
-28.8002
11
109.882
21
-28.4384
0
LINE
8
BLACK
6
CONTINUOUS
10
109.882
20
-28.4384
11
109.798
21
-28.0829
0
LINE
8
BLACK
6
CONTINUOUS
10
109.798
20
-28.0829
11
109.682
21
-27.7366
0
LINE
8
BLACK
6
CONTINUOUS
10
109.682
20
-27.7366
11
109.535
21
-27.4025
0
LINE
8
BLACK
6
CONTINUOUS
10
109.535
20
-27.4025
11
109.357
21
-27.0834
0
LINE
8
BLACK
6
CONTINUOUS
10
109.357
20
-27.0834
11
109.151
21
-26.7821
0
LINE
8
BLACK
6
CONTINUOUS
10
109.151
20
-26.7821
11
108.917
21
-26.5011
0
LINE
8
BLACK
6
CONTINUOUS
10
108.917
20
-26.5011
11
108.659
21
-26.2428
0
LINE
8
BLACK
6
CONTINUOUS
10
108.659
20
-26.2428
11
108.378
21
-26.0095
0
LINE
8
BLACK
6
CONTINUOUS
10
108.378
20
-26.0095
11
108.077
21
-25.8031
0
LINE
8
BLACK
6
CONTINUOUS
10
108.077
20
-25.8031
11
107.758
21
-25.6253
0
LINE
8
BLACK
6
CONTINUOUS
10
107.758
20
-25.6253
11
107.423
21
-25.4778
0
LINE
8
BLACK
6
CONTINUOUS
10
107.423
20
-25.4778
11
107.077
21
-25.3617
0
LINE
8
BLACK
6
CONTINUOUS
10
107.077
20
-25.3617
11
106.722
21
-25.2781
0
LINE
8
BLACK
6
CONTINUOUS
10
106.722
20
-25.2781
11
106.36
21
-25.2277
0
LINE
8
BLACK
6
CONTINUOUS
10
106.36
20
-25.2277
11
106.004
21
-25.2112
0
LINE
8
BLACK
6
CONTINUOUS
10
106.004
20
-25.2112
11
105.995
21
-25.215
0
LINE
8
BLACK
6
CONTINUOUS
10
105.995
20
-25.215
11
74.545
21
-25.215
0
LINE
8
BLACK
6
CONTINUOUS
10
74.545
20
-25.215
11
74.545
21
-29.765
0
LINE
8
BLACK
6
CONTINUOUS
10
100.245
20
-107.465
11
100.23
21
-107.5
0
LINE
8
BLACK
6
CONTINUOUS
10
100.23
20
-107.5
11
100.195
21
-107.515
0
LINE
8
BLACK
6
CONTINUOUS
10
100.195
20
-107.515
11
99.145
21
-107.515
0
LINE
8
BLACK
6
CONTINUOUS
10
99.145
20
-107.515
11
99.145
21
-114.165
0
LINE
8
BLACK
6
CONTINUOUS
10
99.145
20
-114.165
11
99.1304
21
-114.2
0
LINE
8
BLACK
6
CONTINUOUS
10
99.1304
20
-114.2
11
99.095
21
-114.215
0
LINE
8
BLACK
6
CONTINUOUS
10
99.095
20
-114.215
11
86.045
21
-114.215
0
LINE
8
BLACK
6
CONTINUOUS
10
86.045
20
-114.215
11
86.045
21
-117.165
0
LINE
8
BLACK
6
CONTINUOUS
10
86.045
20
-117.165
11
86.0304
21
-117.2
0
LINE
8
BLACK
6
CONTINUOUS
10
86.0304
20
-117.2
11
85.995
21
-117.215
0
LINE
8
BLACK
6
CONTINUOUS
10
85.995
20
-117.215
11
41.095
21
-117.215
0
LINE
8
BLACK
6
CONTINUOUS
10
41.095
20
-117.215
11
41.0596
21
-117.2
0
LINE
8
BLACK
6
CONTINUOUS
10
41.0596
20
-117.2
11
41.045
21
-117.165
0
LINE
8
BLACK
6
CONTINUOUS
10
41.045
20
-117.165
11
41.045
21
-110.415
0
LINE
8
BLACK
6
CONTINUOUS
10
41.045
20
-110.415
11
32.495
21
-110.415
0
LINE
8
BLACK
6
CONTINUOUS
10
32.495
20
-110.415
11
32.4596
21
-110.4
0
LINE
8
BLACK
6
CONTINUOUS
10
32.4596
20
-110.4
11
32.445
21
-110.365
0
LINE
8
BLACK
6
CONTINUOUS
10
32.445
20
-110.365
11
32.445
21
-94.715
0
LINE
8
BLACK
6
CONTINUOUS
10
32.445
20
-94.715
11
31.495
21
-94.715
0
LINE
8
BLACK
6
CONTINUOUS
10
31.495
20
-94.715
11
31.4596
21
-94.7004
0
LINE
8
BLACK
6
CONTINUOUS
10
31.4596
20
-94.7004
11
31.445
21
-94.665
0
LINE
8
BLACK
6
CONTINUOUS
10
31.445
20
-94.665
11
31.445
21
-91.465
0
LINE
8
BLACK
6
CONTINUOUS
10
31.445
20
-91.465
11
31.4596
21
-91.4296
0
LINE
8
BLACK
6
CONTINUOUS
10
31.4596
20
-91.4296
11
31.495
21
-91.415
0
LINE
8
BLACK
6
CONTINUOUS
10
31.495
20
-91.415
11
32.445
21
-91.415
0
LINE
8
BLACK
6
CONTINUOUS
10
32.445
20
-91.415
11
32.445
21
-56.615
0
LINE
8
BLACK
6
CONTINUOUS
10
32.445
20
-56.615
11
31.495
21
-56.615
0
LINE
8
BLACK
6
CONTINUOUS
10
31.495
20
-56.615
11
31.4596
21
-56.6004
0
LINE
8
BLACK
6
CONTINUOUS
10
31.4596
20
-56.6004
11
31.445
21
-56.565
0
LINE
8
BLACK
6
CONTINUOUS
10
31.445
20
-56.565
11
31.445
21
-53.365
0
LINE
8
BLACK
6
CONTINUOUS
10
31.445
20
-53.365
11
31.4596
21
-53.3296
0
LINE
8
BLACK
6
CONTINUOUS
10
31.4596
20
-53.3296
11
31.495
21
-53.315
0
LINE
8
BLACK
6
CONTINUOUS
10
31.495
20
-53.315
11
32.445
21
-53.315
0
LINE
8
BLACK
6
CONTINUOUS
10
32.445
20
-53.315
11
32.445
21
-35.965
0
LINE
8
BLACK
6
CONTINUOUS
10
32.445
20
-35.965
11
32.4596
21
-35.9296
0
LINE
8
BLACK
6
CONTINUOUS
10
32.4596
20
-35.9296
11
32.495
21
-35.915
0
LINE
8
BLACK
6
CONTINUOUS
10
32.495
20
-35.915
11
106.695
21
-35.915
0
LINE
8
BLACK
6
CONTINUOUS
10
106.695
20
-35.915
11
106.73
21
-35.9296
0
LINE
8
BLACK
6
CONTINUOUS
10
106.73
20
-35.9296
11
106.745
21
-35.965
0
LINE
8
BLACK
6
CONTINUOUS
10
106.745
20
-35.965
11
106.745
21
-46.165
0
LINE
8
BLACK
6
CONTINUOUS
10
106.745
20
-46.165
11
106.73
21
-46.2004
0
LINE
8
BLACK
6
CONTINUOUS
10
106.73
20
-46.2004
11
106.695
21
-46.215
0
LINE
8
BLACK
6
CONTINUOUS
10
106.695
20
-46.215
11
100.245
21
-46.215
0
LINE
8
BLACK
6
CONTINUOUS
10
100.245
20
-46.215
11
100.245
21
-107.465
0
LINE
8
BLACK
6
CONTINUOUS
10
31.545
20
-56.515
11
32.495
21
-56.515
0
LINE
8
BLACK
6
CONTINUOUS
10
32.495
20
-56.515
11
32.5304
21
-56.5296
0
LINE
8
BLACK
6
CONTINUOUS
10
32.5304
20
-56.5296
11
32.545
21
-56.565
0
LINE
8
BLACK
6
CONTINUOUS
10
32.545
20
-56.565
11
32.545
21
-91.465
0
LINE
8
BLACK
6
CONTINUOUS
10
32.545
20
-91.465
11
32.5304
21
-91.5004
0
LINE
8
BLACK
6
CONTINUOUS
10
32.5304
20
-91.5004
11
32.495
21
-91.515
0
LINE
8
BLACK
6
CONTINUOUS
10
32.495
20
-91.515
11
31.545
21
-91.515
0
LINE
8
BLACK
6
CONTINUOUS
10
31.545
20
-91.515
11
31.545
21
-94.615
0
LINE
8
BLACK
6
CONTINUOUS
10
31.545
20
-94.615
11
32.495
21
-94.615
0
LINE
8
BLACK
6
CONTINUOUS
10
32.495
20
-94.615
11
32.5304
21
-94.6296
0
LINE
8
BLACK
6
CONTINUOUS
10
32.5304
20
-94.6296
11
32.545
21
-94.665
0
LINE
8
BLACK
6
CONTINUOUS
10
32.545
20
-94.665
11
32.545
21
-110.315
0
LINE
8
BLACK
6
CONTINUOUS
10
32.545
20
-110.315
11
41.095
21
-110.315
0
LINE
8
BLACK
6
CONTINUOUS
10
41.095
20
-110.315
11
41.1304
21
-110.33
0
LINE
8
BLACK
6
CONTINUOUS
10
41.1304
20
-110.33
11
41.145
21
-110.365
0
LINE
8
BLACK
6
CONTINUOUS
10
41.145
20
-110.365
11
41.145
21
-117.115
0
LINE
8
BLACK
6
CONTINUOUS
10
41.145
20
-117.115
11
85.945
21
-117.115
0
LINE
8
BLACK
6
CONTINUOUS
10
85.945
20
-117.115
11
85.945
21
-114.165
0
LINE
8
BLACK
6
CONTINUOUS
10
85.945
20
-114.165
11
85.9596
21
-114.13
0
LINE
8
BLACK
6
CONTINUOUS
10
85.9596
20
-114.13
11
85.995
21
-114.115
0
LINE
8
BLACK
6
CONTINUOUS
10
85.995
20
-114.115
11
99.045
21
-114.115
0
LINE
8
BLACK
6
CONTINUOUS
10
99.045
20
-114.115
11
99.045
21
-107.465
0
LINE
8
BLACK
6
CONTINUOUS
10
99.045
20
-107.465
11
99.0596
21
-107.43
0
LINE
8
BLACK
6
CONTINUOUS
10
99.0596
20
-107.43
11
99.095
21
-107.415
0
LINE
8
BLACK
6
CONTINUOUS
10
99.095
20
-107.415
11
100.145
21
-107.415
0
LINE
8
BLACK
6
CONTINUOUS
10
100.145
20
-107.415
11
100.145
21
-46.165
0
LINE
8
BLACK
6
CONTINUOUS
10
100.145
20
-46.165
11
100.16
21
-46.1296
0
LINE
8
BLACK
6
CONTINUOUS
10
100.16
20
-46.1296
11
100.195
21
-46.115
0
LINE
8
BLACK
6
CONTINUOUS
10
100.195
20
-46.115
11
106.645
21
-46.115
0
LINE
8
BLACK
6
CONTINUOUS
10
106.645
20
-46.115
11
106.645
21
-36.015
0
LINE
8
BLACK
6
CONTINUOUS
10
106.645
20
-36.015
11
32.545
21
-36.015
0
LINE
8
BLACK
6
CONTINUOUS
10
32.545
20
-36.015
11
32.545
21
-53.365
0
LINE
8
BLACK
6
CONTINUOUS
10
32.545
20
-53.365
11
32.5304
21
-53.4004
0
LINE
8
BLACK
6
CONTINUOUS
10
32.5304
20
-53.4004
11
32.495
21
-53.415
0
LINE
8
BLACK
6
CONTINUOUS
10
32.495
20
-53.415
11
31.545
21
-53.415
0
LINE
8
BLACK
6
CONTINUOUS
10
31.545
20
-53.415
11
31.545
21
-56.515
0
LINE
8
BLACK
6
CONTINUOUS
10
30.5209
20
-118.686
11
30.6139
21
-118.461
0
LINE
8
BLACK
6
CONTINUOUS
10
30.6139
20
-118.461
11
30.741
21
-118.254
0
LINE
8
BLACK
6
CONTINUOUS
10
30.741
20
-118.254
11
30.899
21
-118.069
0
LINE
8
BLACK
6
CONTINUOUS
10
30.899
20
-118.069
11
31.0839
21
-117.911
0
LINE
8
BLACK
6
CONTINUOUS
10
31.0839
20
-117.911
11
31.2913
21
-117.784
0
LINE
8
BLACK
6
CONTINUOUS
10
31.2913
20
-117.784
11
31.516
21
-117.691
0
LINE
8
BLACK
6
CONTINUOUS
10
31.516
20
-117.691
11
31.7525
21
-117.634
0
LINE
8
BLACK
6
CONTINUOUS
10
31.7525
20
-117.634
11
31.995
21
-117.615
0
LINE
8
BLACK
6
CONTINUOUS
10
31.995
20
-117.615
11
32.2375
21
-117.634
0
LINE
8
BLACK
6
CONTINUOUS
10
32.2375
20
-117.634
11
32.474
21
-117.691
0
LINE
8
BLACK
6
CONTINUOUS
10
32.474
20
-117.691
11
32.6987
21
-117.784
0
LINE
8
BLACK
6
CONTINUOUS
10
32.6987
20
-117.784
11
32.9061
21
-117.911
0
LINE
8
BLACK
6
CONTINUOUS
10
32.9061
20
-117.911
11
33.091
21
-118.069
0
LINE
8
BLACK
6
CONTINUOUS
10
33.091
20
-118.069
11
33.249
21
-118.254
0
LINE
8
BLACK
6
CONTINUOUS
10
33.249
20
-118.254
11
33.3761
21
-118.461
0
LINE
8
BLACK
6
CONTINUOUS
10
33.3761
20
-118.461
11
33.4691
21
-118.686
0
LINE
8
BLACK
6
CONTINUOUS
10
33.4691
20
-118.686
11
33.5259
21
-118.923
0
LINE
8
BLACK
6
CONTINUOUS
10
33.5259
20
-118.923
11
33.545
21
-119.165
0
LINE
8
BLACK
6
CONTINUOUS
10
33.545
20
-119.165
11
33.5259
21
-119.407
0
LINE
8
BLACK
6
CONTINUOUS
10
33.5259
20
-119.407
11
33.4691
21
-119.644
0
LINE
8
BLACK
6
CONTINUOUS
10
33.4691
20
-119.644
11
33.3761
21
-119.869
0
LINE
8
BLACK
6
CONTINUOUS
10
33.3761
20
-119.869
11
33.249
21
-120.076
0
LINE
8
BLACK
6
CONTINUOUS
10
33.249
20
-120.076
11
33.091
21
-120.261
0
LINE
8
BLACK
6
CONTINUOUS
10
33.091
20
-120.261
11
32.9061
21
-120.419
0
LINE
8
BLACK
6
CONTINUOUS
10
32.9061
20
-120.419
11
32.6987
21
-120.546
0
LINE
8
BLACK
6
CONTINUOUS
10
32.6987
20
-120.546
11
32.474
21
-120.639
0
LINE
8
BLACK
6
CONTINUOUS
10
32.474
20
-120.639
11
32.2375
21
-120.696
0
LINE
8
BLACK
6
CONTINUOUS
10
32.2375
20
-120.696
11
31.995
21
-120.715
0
LINE
8
BLACK
6
CONTINUOUS
10
31.995
20
-120.715
11
31.7525
21
-120.696
0
LINE
8
BLACK
6
CONTINUOUS
10
31.7525
20
-120.696
11
31.516
21
-120.639
0
LINE
8
BLACK
6
CONTINUOUS
10
31.516
20
-120.639
11
31.2913
21
-120.546
0
LINE
8
BLACK
6
CONTINUOUS
10
31.2913
20
-120.546
11
31.0839
21
-120.419
0
LINE
8
BLACK
6
CONTINUOUS
10
31.0839
20
-120.419
11
30.899
21
-120.261
0
LINE
8
BLACK
6
CONTINUOUS
10
30.899
20
-120.261
11
30.741
21
-120.076
0
LINE
8
BLACK
6
CONTINUOUS
10
30.741
20
-120.076
11
30.6139
21
-119.869
0
LINE
8
BLACK
6
CONTINUOUS
10
30.6139
20
-119.869
11
30.5209
21
-119.644
0
LINE
8
BLACK
6
CONTINUOUS
10
30.5209
20
-119.644
11
30.4641
21
-119.407
0
LINE
8
BLACK
6
CONTINUOUS
10
30.4641
20
-119.407
11
30.445
21
-119.165
0
LINE
8
BLACK
6
CONTINUOUS
10
30.445
20
-119.165
11
30.4478
21
-119.129
0
LINE
8
BLACK
6
CONTINUOUS
10
30.4478
20
-119.129
11
30.4641
21
-118.923
0
LINE
8
BLACK
6
CONTINUOUS
10
30.4641
20
-118.923
11
30.5209
21
-118.686
0
LINE
8
BLACK
6
CONTINUOUS
10
30.6066
20
-119.6
11
30.6963
21
-119.821
0
LINE
8
BLACK
6
CONTINUOUS
10
30.6963
20
-119.821
11
30.8209
21
-120.024
0
LINE
8
BLACK
6
CONTINUOUS
10
30.8209
20
-120.024
11
30.977
21
-120.205
0
LINE
8
BLACK
6
CONTINUOUS
10
30.977
20
-120.205
11
31.1605
21
-120.357
0
LINE
8
BLACK
6
CONTINUOUS
10
31.1605
20
-120.357
11
31.3663
21
-120.477
0
LINE
8
BLACK
6
CONTINUOUS
10
31.3663
20
-120.477
11
31.5891
21
-120.562
0
LINE
8
BLACK
6
CONTINUOUS
10
31.5891
20
-120.562
11
31.8227
21
-120.61
0
LINE
8
BLACK
6
CONTINUOUS
10
31.8227
20
-120.61
11
32.061
21
-120.618
0
LINE
8
BLACK
6
CONTINUOUS
10
32.061
20
-120.618
11
32.2975
21
-120.588
0
LINE
8
BLACK
6
CONTINUOUS
10
32.2975
20
-120.588
11
32.5259
21
-120.52
0
LINE
8
BLACK
6
CONTINUOUS
10
32.5259
20
-120.52
11
32.74
21
-120.415
0
LINE
8
BLACK
6
CONTINUOUS
10
32.74
20
-120.415
11
32.9341
21
-120.276
0
LINE
8
BLACK
6
CONTINUOUS
10
32.9341
20
-120.276
11
33.103
21
-120.108
0
LINE
8
BLACK
6
CONTINUOUS
10
33.103
20
-120.108
11
33.2422
21
-119.914
0
LINE
8
BLACK
6
CONTINUOUS
10
33.2422
20
-119.914
11
33.3478
21
-119.701
0
LINE
8
BLACK
6
CONTINUOUS
10
33.3478
20
-119.701
11
33.4171
21
-119.472
0
LINE
8
BLACK
6
CONTINUOUS
10
33.4171
20
-119.472
11
33.4482
21
-119.236
0
LINE
8
BLACK
6
CONTINUOUS
10
33.4482
20
-119.236
11
33.45
21
-119.165
0
LINE
8
BLACK
6
CONTINUOUS
10
33.45
20
-119.165
11
33.4304
21
-118.927
0
LINE
8
BLACK
6
CONTINUOUS
10
33.4304
20
-118.927
11
33.3723
21
-118.696
0
LINE
8
BLACK
6
CONTINUOUS
10
33.3723
20
-118.696
11
33.2773
21
-118.477
0
LINE
8
BLACK
6
CONTINUOUS
10
33.2773
20
-118.477
11
33.1478
21
-118.277
0
LINE
8
BLACK
6
CONTINUOUS
10
33.1478
20
-118.277
11
32.9873
21
-118.101
0
LINE
8
BLACK
6
CONTINUOUS
10
32.9873
20
-118.101
11
32.8002
21
-117.953
0
LINE
8
BLACK
6
CONTINUOUS
10
32.8002
20
-117.953
11
32.5914
21
-117.838
0
LINE
8
BLACK
6
CONTINUOUS
10
32.5914
20
-117.838
11
32.3667
21
-117.758
0
LINE
8
BLACK
6
CONTINUOUS
10
32.3667
20
-117.758
11
32.1319
21
-117.716
0
LINE
8
BLACK
6
CONTINUOUS
10
32.1319
20
-117.716
11
31.8935
21
-117.714
0
LINE
8
BLACK
6
CONTINUOUS
10
31.8935
20
-117.714
11
31.6578
21
-117.75
0
LINE
8
BLACK
6
CONTINUOUS
10
31.6578
20
-117.75
11
31.4312
21
-117.824
0
LINE
8
BLACK
6
CONTINUOUS
10
31.4312
20
-117.824
11
31.2197
21
-117.934
0
LINE
8
BLACK
6
CONTINUOUS
10
31.2197
20
-117.934
11
31.029
21
-118.077
0
LINE
8
BLACK
6
CONTINUOUS
10
31.029
20
-118.077
11
30.8643
21
-118.249
0
LINE
8
BLACK
6
CONTINUOUS
10
30.8643
20
-118.249
11
30.7299
21
-118.446
0
LINE
8
BLACK
6
CONTINUOUS
10
30.7299
20
-118.446
11
30.6295
21
-118.663
0
LINE
8
BLACK
6
CONTINUOUS
10
30.6295
20
-118.663
11
30.5658
21
-118.892
0
LINE
8
BLACK
6
CONTINUOUS
10
30.5658
20
-118.892
11
30.5405
21
-119.129
0
LINE
8
BLACK
6
CONTINUOUS
10
30.5405
20
-119.129
11
30.5542
21
-119.367
0
LINE
8
BLACK
6
CONTINUOUS
10
30.5542
20
-119.367
11
30.6066
21
-119.6
0
LINE
8
BLACK
6
CONTINUOUS
10
105.021
20
-118.686
11
105.114
21
-118.461
0
LINE
8
BLACK
6
CONTINUOUS
10
105.114
20
-118.461
11
105.241
21
-118.254
0
LINE
8
BLACK
6
CONTINUOUS
10
105.241
20
-118.254
11
105.399
21
-118.069
0
LINE
8
BLACK
6
CONTINUOUS
10
105.399
20
-118.069
11
105.584
21
-117.911
0
LINE
8
BLACK
6
CONTINUOUS
10
105.584
20
-117.911
11
105.791
21
-117.784
0
LINE
8
BLACK
6
CONTINUOUS
10
105.791
20
-117.784
11
106.016
21
-117.691
0
LINE
8
BLACK
6
CONTINUOUS
10
106.016
20
-117.691
11
106.253
21
-117.634
0
LINE
8
BLACK
6
CONTINUOUS
10
106.253
20
-117.634
11
106.495
21
-117.615
0
LINE
8
BLACK
6
CONTINUOUS
10
106.495
20
-117.615
11
106.737
21
-117.634
0
LINE
8
BLACK
6
CONTINUOUS
10
106.737
20
-117.634
11
106.974
21
-117.691
0
LINE
8
BLACK
6
CONTINUOUS
10
106.974
20
-117.691
11
107.199
21
-117.784
0
LINE
8
BLACK
6
CONTINUOUS
10
107.199
20
-117.784
11
107.406
21
-117.911
0
LINE
8
BLACK
6
CONTINUOUS
10
107.406
20
-117.911
11
107.591
21
-118.069
0
LINE
8
BLACK
6
CONTINUOUS
10
107.591
20
-118.069
11
107.749
21
-118.254
0
LINE
8
BLACK
6
CONTINUOUS
10
107.749
20
-118.254
11
107.876
21
-118.461
0
LINE
8
BLACK
6
CONTINUOUS
10
107.876
20
-118.461
11
107.969
21
-118.686
0
LINE
8
BLACK
6
CONTINUOUS
10
107.969
20
-118.686
11
108.026
21
-118.923
0
LINE
8
BLACK
6
CONTINUOUS
10
108.026
20
-118.923
11
108.045
21
-119.165
0
LINE
8
BLACK
6
CONTINUOUS
10
108.045
20
-119.165
11
108.026
21
-119.407
0
LINE
8
BLACK
6
CONTINUOUS
10
108.026
20
-119.407
11
107.969
21
-119.644
0
LINE
8
BLACK
6
CONTINUOUS
10
107.969
20
-119.644
11
107.876
21
-119.869
0
LINE
8
BLACK
6
CONTINUOUS
10
107.876
20
-119.869
11
107.749
21
-120.076
0
LINE
8
BLACK
6
CONTINUOUS
10
107.749
20
-120.076
11
107.591
21
-120.261
0
LINE
8
BLACK
6
CONTINUOUS
10
107.591
20
-120.261
11
107.406
21
-120.419
0
LINE
8
BLACK
6
CONTINUOUS
10
107.406
20
-120.419
11
107.199
21
-120.546
0
LINE
8
BLACK
6
CONTINUOUS
10
107.199
20
-120.546
11
106.974
21
-120.639
0
LINE
8
BLACK
6
CONTINUOUS
10
106.974
20
-120.639
11
106.737
21
-120.696
0
LINE
8
BLACK
6
CONTINUOUS
10
106.737
20
-120.696
11
106.495
21
-120.715
0
LINE
8
BLACK
6
CONTINUOUS
10
106.495
20
-120.715
11
106.253
21
-120.696
0
LINE
8
BLACK
6
CONTINUOUS
10
106.253
20
-120.696
11
106.016
21
-120.639
0
LINE
8
BLACK
6
CONTINUOUS
10
106.016
20
-120.639
11
105.791
21
-120.546
0
LINE
8
BLACK
6
CONTINUOUS
10
105.791
20
-120.546
11
105.584
21
-120.419
0
LINE
8
BLACK
6
CONTINUOUS
10
105.584
20
-120.419
11
105.399
21
-120.261
0
LINE
8
BLACK
6
CONTINUOUS
10
105.399
20
-120.261
11
105.241
21
-120.076
0
LINE
8
BLACK
6
CONTINUOUS
10
105.241
20
-120.076
11
105.114
21
-119.869
0
LINE
8
BLACK
6
CONTINUOUS
10
105.114
20
-119.869
11
105.021
21
-119.644
0
LINE
8
BLACK
6
CONTINUOUS
10
105.021
20
-119.644
11
104.964
21
-119.407
0
LINE
8
BLACK
6
CONTINUOUS
10
104.964
20
-119.407
11
104.945
21
-119.165
0
LINE
8
BLACK
6
CONTINUOUS
10
104.945
20
-119.165
11
104.948
21
-119.129
0
LINE
8
BLACK
6
CONTINUOUS
10
104.948
20
-119.129
11
104.964
21
-118.923
0
LINE
8
BLACK
6
CONTINUOUS
10
104.964
20
-118.923
11
105.021
21
-118.686
0
LINE
8
BLACK
6
CONTINUOUS
10
105.107
20
-119.6
11
105.196
21
-119.821
0
LINE
8
BLACK
6
CONTINUOUS
10
105.196
20
-119.821
11
105.321
21
-120.024
0
LINE
8
BLACK
6
CONTINUOUS
10
105.321
20
-120.024
11
105.477
21
-120.205
0
LINE
8
BLACK
6
CONTINUOUS
10
105.477
20
-120.205
11
105.66
21
-120.357
0
LINE
8
BLACK
6
CONTINUOUS
10
105.66
20
-120.357
11
105.866
21
-120.477
0
LINE
8
BLACK
6
CONTINUOUS
10
105.866
20
-120.477
11
106.089
21
-120.562
0
LINE
8
BLACK
6
CONTINUOUS
10
106.089
20
-120.562
11
106.323
21
-120.61
0
LINE
8
BLACK
6
CONTINUOUS
10
106.323
20
-120.61
11
106.561
21
-120.618
0
LINE
8
BLACK
6
CONTINUOUS
10
106.561
20
-120.618
11
106.798
21
-120.588
0
LINE
8
BLACK
6
CONTINUOUS
10
106.798
20
-120.588
11
107.026
21
-120.52
0
LINE
8
BLACK
6
CONTINUOUS
10
107.026
20
-120.52
11
107.24
21
-120.415
0
LINE
8
BLACK
6
CONTINUOUS
10
107.24
20
-120.415
11
107.434
21
-120.276
0
LINE
8
BLACK
6
CONTINUOUS
10
107.434
20
-120.276
11
107.603
21
-120.108
0
LINE
8
BLACK
6
CONTINUOUS
10
107.603
20
-120.108
11
107.742
21
-119.914
0
LINE
8
BLACK
6
CONTINUOUS
10
107.742
20
-119.914
11
107.848
21
-119.701
0
LINE
8
BLACK
6
CONTINUOUS
10
107.848
20
-119.701
11
107.917
21
-119.472
0
LINE
8
BLACK
6
CONTINUOUS
10
107.917
20
-119.472
11
107.948
21
-119.236
0
LINE
8
BLACK
6
CONTINUOUS
10
107.948
20
-119.236
11
107.95
21
-119.165
0
LINE
8
BLACK
6
CONTINUOUS
10
107.95
20
-119.165
11
107.93
21
-118.927
0
LINE
8
BLACK
6
CONTINUOUS
10
107.93
20
-118.927
11
107.872
21
-118.696
0
LINE
8
BLACK
6
CONTINUOUS
10
107.872
20
-118.696
11
107.777
21
-118.477
0
LINE
8
BLACK
6
CONTINUOUS
10
107.777
20
-118.477
11
107.648
21
-118.277
0
LINE
8
BLACK
6
CONTINUOUS
10
107.648
20
-118.277
11
107.487
21
-118.101
0
LINE
8
BLACK
6
CONTINUOUS
10
107.487
20
-118.101
11
107.3
21
-117.953
0
LINE
8
BLACK
6
CONTINUOUS
10
107.3
20
-117.953
11
107.091
21
-117.838
0
LINE
8
BLACK
6
CONTINUOUS
10
107.091
20
-117.838
11
106.867
21
-117.758
0
LINE
8
BLACK
6
CONTINUOUS
10
106.867
20
-117.758
11
106.632
21
-117.716
0
LINE
8
BLACK
6
CONTINUOUS
10
106.632
20
-117.716
11
106.394
21
-117.714
0
LINE
8
BLACK
6
CONTINUOUS
10
106.394
20
-117.714
11
106.158
21
-117.75
0
LINE
8
BLACK
6
CONTINUOUS
10
106.158
20
-117.75
11
105.931
21
-117.824
0
LINE
8
BLACK
6
CONTINUOUS
10
105.931
20
-117.824
11
105.72
21
-117.934
0
LINE
8
BLACK
6
CONTINUOUS
10
105.72
20
-117.934
11
105.529
21
-118.077
0
LINE
8
BLACK
6
CONTINUOUS
10
105.529
20
-118.077
11
105.364
21
-118.249
0
LINE
8
BLACK
6
CONTINUOUS
10
105.364
20
-118.249
11
105.23
21
-118.446
0
LINE
8
BLACK
6
CONTINUOUS
10
105.23
20
-118.446
11
105.13
21
-118.663
0
LINE
8
BLACK
6
CONTINUOUS
10
105.13
20
-118.663
11
105.066
21
-118.892
0
LINE
8
BLACK
6
CONTINUOUS
10
105.066
20
-118.892
11
105.04
21
-119.129
0
LINE
8
BLACK
6
CONTINUOUS
10
105.04
20
-119.129
11
105.054
21
-119.367
0
LINE
8
BLACK
6
CONTINUOUS
10
105.054
20
-119.367
11
105.107
21
-119.6
0
LINE
8
BLACK
6
CONTINUOUS
10
102.021
20
-28.286
11
102.114
21
-28.0613
0
LINE
8
BLACK
6
CONTINUOUS
10
102.114
20
-28.0613
11
102.241
21
-27.8539
0
LINE
8
BLACK
6
CONTINUOUS
10
102.241
20
-27.8539
11
102.399
21
-27.669
0
LINE
8
BLACK
6
CONTINUOUS
10
102.399
20
-27.669
11
102.584
21
-27.511
0
LINE
8
BLACK
6
CONTINUOUS
10
102.584
20
-27.511
11
102.791
21
-27.3839
0
LINE
8
BLACK
6
CONTINUOUS
10
102.791
20
-27.3839
11
103.016
21
-27.2909
0
LINE
8
BLACK
6
CONTINUOUS
10
103.016
20
-27.2909
11
103.253
21
-27.2341
0
LINE
8
BLACK
6
CONTINUOUS
10
103.253
20
-27.2341
11
103.495
21
-27.215
0
LINE
8
BLACK
6
CONTINUOUS
10
103.495
20
-27.215
11
103.737
21
-27.2341
0
LINE
8
BLACK
6
CONTINUOUS
10
103.737
20
-27.2341
11
103.974
21
-27.2909
0
LINE
8
BLACK
6
CONTINUOUS
10
103.974
20
-27.2909
11
104.199
21
-27.3839
0
LINE
8
BLACK
6
CONTINUOUS
10
104.199
20
-27.3839
11
104.406
21
-27.511
0
LINE
8
BLACK
6
CONTINUOUS
10
104.406
20
-27.511
11
104.591
21
-27.669
0
LINE
8
BLACK
6
CONTINUOUS
10
104.591
20
-27.669
11
104.749
21
-27.8539
0
LINE
8
BLACK
6
CONTINUOUS
10
104.749
20
-27.8539
11
104.876
21
-28.0613
0
LINE
8
BLACK
6
CONTINUOUS
10
104.876
20
-28.0613
11
104.969
21
-28.286
0
LINE
8
BLACK
6
CONTINUOUS
10
104.969
20
-28.286
11
105.026
21
-28.5225
0
LINE
8
BLACK
6
CONTINUOUS
10
105.026
20
-28.5225
11
105.045
21
-28.765
0
LINE
8
BLACK
6
CONTINUOUS
10
105.045
20
-28.765
11
105.026
21
-29.0075
0
LINE
8
BLACK
6
CONTINUOUS
10
105.026
20
-29.0075
11
104.969
21
-29.244
0
LINE
8
BLACK
6
CONTINUOUS
10
104.969
20
-29.244
11
104.876
21
-29.4687
0
LINE
8
BLACK
6
CONTINUOUS
10
104.876
20
-29.4687
11
104.749
21
-29.6761
0
LINE
8
BLACK
6
CONTINUOUS
10
104.749
20
-29.6761
11
104.591
21
-29.861
0
LINE
8
BLACK
6
CONTINUOUS
10
104.591
20
-29.861
11
104.406
21
-30.019
0
LINE
8
BLACK
6
CONTINUOUS
10
104.406
20
-30.019
11
104.199
21
-30.1461
0
LINE
8
BLACK
6
CONTINUOUS
10
104.199
20
-30.1461
11
103.974
21
-30.2391
0
LINE
8
BLACK
6
CONTINUOUS
10
103.974
20
-30.2391
11
103.737
21
-30.2959
0
LINE
8
BLACK
6
CONTINUOUS
10
103.737
20
-30.2959
11
103.495
21
-30.315
0
LINE
8
BLACK
6
CONTINUOUS
10
103.495
20
-30.315
11
103.253
21
-30.2959
0
LINE
8
BLACK
6
CONTINUOUS
10
103.253
20
-30.2959
11
103.016
21
-30.2391
0
LINE
8
BLACK
6
CONTINUOUS
10
103.016
20
-30.2391
11
102.791
21
-30.1461
0
LINE
8
BLACK
6
CONTINUOUS
10
102.791
20
-30.1461
11
102.584
21
-30.019
0
LINE
8
BLACK
6
CONTINUOUS
10
102.584
20
-30.019
11
102.399
21
-29.861
0
LINE
8
BLACK
6
CONTINUOUS
10
102.399
20
-29.861
11
102.241
21
-29.6761
0
LINE
8
BLACK
6
CONTINUOUS
10
102.241
20
-29.6761
11
102.114
21
-29.4687
0
LINE
8
BLACK
6
CONTINUOUS
10
102.114
20
-29.4687
11
102.021
21
-29.244
0
LINE
8
BLACK
6
CONTINUOUS
10
102.021
20
-29.244
11
101.964
21
-29.0075
0
LINE
8
BLACK
6
CONTINUOUS
10
101.964
20
-29.0075
11
101.945
21
-28.765
0
LINE
8
BLACK
6
CONTINUOUS
10
101.945
20
-28.765
11
101.948
21
-28.7295
0
LINE
8
BLACK
6
CONTINUOUS
10
101.948
20
-28.7295
11
101.964
21
-28.5225
0
LINE
8
BLACK
6
CONTINUOUS
10
101.964
20
-28.5225
11
102.021
21
-28.286
0
LINE
8
BLACK
6
CONTINUOUS
10
102.107
20
-29.2001
11
102.196
21
-29.421
0
LINE
8
BLACK
6
CONTINUOUS
10
102.196
20
-29.421
11
102.321
21
-29.6243
0
LINE
8
BLACK
6
CONTINUOUS
10
102.321
20
-29.6243
11
102.477
21
-29.8045
0
LINE
8
BLACK
6
CONTINUOUS
10
102.477
20
-29.8045
11
102.66
21
-29.9568
0
LINE
8
BLACK
6
CONTINUOUS
10
102.66
20
-29.9568
11
102.866
21
-30.0771
0
LINE
8
BLACK
6
CONTINUOUS
10
102.866
20
-30.0771
11
103.089
21
-30.1622
0
LINE
8
BLACK
6
CONTINUOUS
10
103.089
20
-30.1622
11
103.323
21
-30.2097
0
LINE
8
BLACK
6
CONTINUOUS
10
103.323
20
-30.2097
11
103.561
21
-30.2185
0
LINE
8
BLACK
6
CONTINUOUS
10
103.561
20
-30.2185
11
103.798
21
-30.1882
0
LINE
8
BLACK
6
CONTINUOUS
10
103.798
20
-30.1882
11
104.026
21
-30.1197
0
LINE
8
BLACK
6
CONTINUOUS
10
104.026
20
-30.1197
11
104.24
21
-30.0148
0
LINE
8
BLACK
6
CONTINUOUS
10
104.24
20
-30.0148
11
104.434
21
-29.8763
0
LINE
8
BLACK
6
CONTINUOUS
10
104.434
20
-29.8763
11
104.603
21
-29.708
0
LINE
8
BLACK
6
CONTINUOUS
10
104.603
20
-29.708
11
104.742
21
-29.5144
0
LINE
8
BLACK
6
CONTINUOUS
10
104.742
20
-29.5144
11
104.848
21
-29.3006
0
LINE
8
BLACK
6
CONTINUOUS
10
104.848
20
-29.3006
11
104.917
21
-29.0725
0
LINE
8
BLACK
6
CONTINUOUS
10
104.917
20
-29.0725
11
104.948
21
-28.8361
0
LINE
8
BLACK
6
CONTINUOUS
10
104.948
20
-28.8361
11
104.95
21
-28.765
0
LINE
8
BLACK
6
CONTINUOUS
10
104.95
20
-28.765
11
104.93
21
-28.5274
0
LINE
8
BLACK
6
CONTINUOUS
10
104.93
20
-28.5274
11
104.872
21
-28.2961
0
LINE
8
BLACK
6
CONTINUOUS
10
104.872
20
-28.2961
11
104.777
21
-28.0775
0
LINE
8
BLACK
6
CONTINUOUS
10
104.777
20
-28.0775
11
104.648
21
-27.8773
0
LINE
8
BLACK
6
CONTINUOUS
10
104.648
20
-27.8773
11
104.487
21
-27.7009
0
LINE
8
BLACK
6
CONTINUOUS
10
104.487
20
-27.7009
11
104.3
21
-27.5531
0
LINE
8
BLACK
6
CONTINUOUS
10
104.3
20
-27.5531
11
104.091
21
-27.4379
0
LINE
8
BLACK
6
CONTINUOUS
10
104.091
20
-27.4379
11
103.867
21
-27.3583
0
LINE
8
BLACK
6
CONTINUOUS
10
103.867
20
-27.3583
11
103.632
21
-27.3165
0
LINE
8
BLACK
6
CONTINUOUS
10
103.632
20
-27.3165
11
103.394
21
-27.3136
0
LINE
8
BLACK
6
CONTINUOUS
10
103.394
20
-27.3136
11
103.158
21
-27.3496
0
LINE
8
BLACK
6
CONTINUOUS
10
103.158
20
-27.3496
11
102.931
21
-27.4237
0
LINE
8
BLACK
6
CONTINUOUS
10
102.931
20
-27.4237
11
102.72
21
-27.5338
0
LINE
8
BLACK
6
CONTINUOUS
10
102.72
20
-27.5338
11
102.529
21
-27.677
0
LINE
8
BLACK
6
CONTINUOUS
10
102.529
20
-27.677
11
102.364
21
-27.8494
0
LINE
8
BLACK
6
CONTINUOUS
10
102.364
20
-27.8494
11
102.23
21
-28.0463
0
LINE
8
BLACK
6
CONTINUOUS
10
102.23
20
-28.0463
11
102.13
21
-28.2626
0
LINE
8
BLACK
6
CONTINUOUS
10
102.13
20
-28.2626
11
102.066
21
-28.4924
0
LINE
8
BLACK
6
CONTINUOUS
10
102.066
20
-28.4924
11
102.04
21
-28.7295
0
LINE
8
BLACK
6
CONTINUOUS
10
102.04
20
-28.7295
11
102.054
21
-28.9675
0
LINE
8
BLACK
6
CONTINUOUS
10
102.054
20
-28.9675
11
102.107
21
-29.2001
0
LINE
8
BLACK
6
CONTINUOUS
10
33.0209
20
-28.286
11
33.1139
21
-28.0613
0
LINE
8
BLACK
6
CONTINUOUS
10
33.1139
20
-28.0613
11
33.241
21
-27.8539
0
LINE
8
BLACK
6
CONTINUOUS
10
33.241
20
-27.8539
11
33.399
21
-27.669
0
LINE
8
BLACK
6
CONTINUOUS
10
33.399
20
-27.669
11
33.5839
21
-27.511
0
LINE
8
BLACK
6
CONTINUOUS
10
33.5839
20
-27.511
11
33.7913
21
-27.3839
0
LINE
8
BLACK
6
CONTINUOUS
10
33.7913
20
-27.3839
11
34.016
21
-27.2909
0
LINE
8
BLACK
6
CONTINUOUS
10
34.016
20
-27.2909
11
34.2525
21
-27.2341
0
LINE
8
BLACK
6
CONTINUOUS
10
34.2525
20
-27.2341
11
34.495
21
-27.215
0
LINE
8
BLACK
6
CONTINUOUS
10
34.495
20
-27.215
11
34.7375
21
-27.2341
0
LINE
8
BLACK
6
CONTINUOUS
10
34.7375
20
-27.2341
11
34.974
21
-27.2909
0
LINE
8
BLACK
6
CONTINUOUS
10
34.974
20
-27.2909
11
35.1987
21
-27.3839
0
LINE
8
BLACK
6
CONTINUOUS
10
35.1987
20
-27.3839
11
35.4061
21
-27.511
0
LINE
8
BLACK
6
CONTINUOUS
10
35.4061
20
-27.511
11
35.591
21
-27.669
0
LINE
8
BLACK
6
CONTINUOUS
10
35.591
20
-27.669
11
35.749
21
-27.8539
0
LINE
8
BLACK
6
CONTINUOUS
10
35.749
20
-27.8539
11
35.8761
21
-28.0613
0
LINE
8
BLACK
6
CONTINUOUS
10
35.8761
20
-28.0613
11
35.9691
21
-28.286
0
LINE
8
BLACK
6
CONTINUOUS
10
35.9691
20
-28.286
11
36.0259
21
-28.5225
0
LINE
8
BLACK
6
CONTINUOUS
10
36.0259
20
-28.5225
11
36.045
21
-28.765
0
LINE
8
BLACK
6
CONTINUOUS
10
36.045
20
-28.765
11
36.0259
21
-29.0075
0
LINE
8
BLACK
6
CONTINUOUS
10
36.0259
20
-29.0075
11
35.9691
21
-29.244
0
LINE
8
BLACK
6
CONTINUOUS
10
35.9691
20
-29.244
11
35.8761
21
-29.4687
0
LINE
8
BLACK
6
CONTINUOUS
10
35.8761
20
-29.4687
11
35.749
21
-29.6761
0
LINE
8
BLACK
6
CONTINUOUS
10
35.749
20
-29.6761
11
35.591
21
-29.861
0
LINE
8
BLACK
6
CONTINUOUS
10
35.591
20
-29.861
11
35.4061
21
-30.019
0
LINE
8
BLACK
6
CONTINUOUS
10
35.4061
20
-30.019
11
35.1987
21
-30.1461
0
LINE
8
BLACK
6
CONTINUOUS
10
35.1987
20
-30.1461
11
34.974
21
-30.2391
0
LINE
8
BLACK
6
CONTINUOUS
10
34.974
20
-30.2391
11
34.7375
21
-30.2959
0
LINE
8
BLACK
6
CONTINUOUS
10
34.7375
20
-30.2959
11
34.495
21
-30.315
0
LINE
8
BLACK
6
CONTINUOUS
10
34.495
20
-30.315
11
34.2525
21
-30.2959
0
LINE
8
BLACK
6
CONTINUOUS
10
34.2525
20
-30.2959
11
34.016
21
-30.2391
0
LINE
8
BLACK
6
CONTINUOUS
10
34.016
20
-30.2391
11
33.7913
21
-30.1461
0
LINE
8
BLACK
6
CONTINUOUS
10
33.7913
20
-30.1461
11
33.5839
21
-30.019
0
LINE
8
BLACK
6
CONTINUOUS
10
33.5839
20
-30.019
11
33.399
21
-29.861
0
LINE
8
BLACK
6
CONTINUOUS
10
33.399
20
-29.861
11
33.241
21
-29.6761
0
LINE
8
BLACK
6
CONTINUOUS
10
33.241
20
-29.6761
11
33.1139
21
-29.4687
0
LINE
8
BLACK
6
CONTINUOUS
10
33.1139
20
-29.4687
11
33.0209
21
-29.244
0
LINE
8
BLACK
6
CONTINUOUS
10
33.0209
20
-29.244
11
32.9641
21
-29.0075
0
LINE
8
BLACK
6
CONTINUOUS
10
32.9641
20
-29.0075
11
32.945
21
-28.765
0
LINE
8
BLACK
6
CONTINUOUS
10
32.945
20
-28.765
11
32.9478
21
-28.7295
0
LINE
8
BLACK
6
CONTINUOUS
10
32.9478
20
-28.7295
11
32.9641
21
-28.5225
0
LINE
8
BLACK
6
CONTINUOUS
10
32.9641
20
-28.5225
11
33.0209
21
-28.286
0
LINE
8
BLACK
6
CONTINUOUS
10
33.1066
20
-29.2001
11
33.1963
21
-29.421
0
LINE
8
BLACK
6
CONTINUOUS
10
33.1963
20
-29.421
11
33.3209
21
-29.6243
0
LINE
8
BLACK
6
CONTINUOUS
10
33.3209
20
-29.6243
11
33.477
21
-29.8045
0
LINE
8
BLACK
6
CONTINUOUS
10
33.477
20
-29.8045
11
33.6605
21
-29.9568
0
LINE
8
BLACK
6
CONTINUOUS
10
33.6605
20
-29.9568
11
33.8663
21
-30.0771
0
LINE
8
BLACK
6
CONTINUOUS
10
33.8663
20
-30.0771
11
34.0891
21
-30.1622
0
LINE
8
BLACK
6
CONTINUOUS
10
34.0891
20
-30.1622
11
34.3227
21
-30.2097
0
LINE
8
BLACK
6
CONTINUOUS
10
34.3227
20
-30.2097
11
34.561
21
-30.2185
0
LINE
8
BLACK
6
CONTINUOUS
10
34.561
20
-30.2185
11
34.7975
21
-30.1882
0
LINE
8
BLACK
6
CONTINUOUS
10
34.7975
20
-30.1882
11
35.0259
21
-30.1197
0
LINE
8
BLACK
6
CONTINUOUS
10
35.0259
20
-30.1197
11
35.24
21
-30.0148
0
LINE
8
BLACK
6
CONTINUOUS
10
35.24
20
-30.0148
11
35.4341
21
-29.8763
0
LINE
8
BLACK
6
CONTINUOUS
10
35.4341
20
-29.8763
11
35.603
21
-29.708
0
LINE
8
BLACK
6
CONTINUOUS
10
35.603
20
-29.708
11
35.7422
21
-29.5144
0
LINE
8
BLACK
6
CONTINUOUS
10
35.7422
20
-29.5144
11
35.8478
21
-29.3006
0
LINE
8
BLACK
6
CONTINUOUS
10
35.8478
20
-29.3006
11
35.9171
21
-29.0725
0
LINE
8
BLACK
6
CONTINUOUS
10
35.9171
20
-29.0725
11
35.9482
21
-28.8361
0
LINE
8
BLACK
6
CONTINUOUS
10
35.9482
20
-28.8361
11
35.95
21
-28.765
0
LINE
8
BLACK
6
CONTINUOUS
10
35.95
20
-28.765
11
35.9304
21
-28.5274
0
LINE
8
BLACK
6
CONTINUOUS
10
35.9304
20
-28.5274
11
35.8723
21
-28.2961
0
LINE
8
BLACK
6
CONTINUOUS
10
35.8723
20
-28.2961
11
35.7773
21
-28.0775
0
LINE
8
BLACK
6
CONTINUOUS
10
35.7773
20
-28.0775
11
35.6478
21
-27.8773
0
LINE
8
BLACK
6
CONTINUOUS
10
35.6478
20
-27.8773
11
35.4873
21
-27.7009
0
LINE
8
BLACK
6
CONTINUOUS
10
35.4873
20
-27.7009
11
35.3002
21
-27.5531
0
LINE
8
BLACK
6
CONTINUOUS
10
35.3002
20
-27.5531
11
35.0914
21
-27.4379
0
LINE
8
BLACK
6
CONTINUOUS
10
35.0914
20
-27.4379
11
34.8667
21
-27.3583
0
LINE
8
BLACK
6
CONTINUOUS
10
34.8667
20
-27.3583
11
34.6319
21
-27.3165
0
LINE
8
BLACK
6
CONTINUOUS
10
34.6319
20
-27.3165
11
34.3935
21
-27.3136
0
LINE
8
BLACK
6
CONTINUOUS
10
34.3935
20
-27.3136
11
34.1578
21
-27.3496
0
LINE
8
BLACK
6
CONTINUOUS
10
34.1578
20
-27.3496
11
33.9312
21
-27.4237
0
LINE
8
BLACK
6
CONTINUOUS
10
33.9312
20
-27.4237
11
33.7197
21
-27.5338
0
LINE
8
BLACK
6
CONTINUOUS
10
33.7197
20
-27.5338
11
33.529
21
-27.677
0
LINE
8
BLACK
6
CONTINUOUS
10
33.529
20
-27.677
11
33.3643
21
-27.8494
0
LINE
8
BLACK
6
CONTINUOUS
10
33.3643
20
-27.8494
11
33.2299
21
-28.0463
0
LINE
8
BLACK
6
CONTINUOUS
10
33.2299
20
-28.0463
11
33.1295
21
-28.2626
0
LINE
8
BLACK
6
CONTINUOUS
10
33.1295
20
-28.2626
11
33.0658
21
-28.4924
0
LINE
8
BLACK
6
CONTINUOUS
10
33.0658
20
-28.4924
11
33.0405
21
-28.7295
0
LINE
8
BLACK
6
CONTINUOUS
10
33.0405
20
-28.7295
11
33.0542
21
-28.9675
0
LINE
8
BLACK
6
CONTINUOUS
10
33.0542
20
-28.9675
11
33.1066
21
-29.2001
  0
ENDSEC
  0
EOF
