M48
; DRILL file {KiCad (6.0.11)} date Mon Feb 23 11:30:22 2026
; FORMAT={-:-/ absolute / metric / decimal}
; #@! TF.CreationDate,2026-02-23T11:30:22+09:00
; #@! TF.GenerationSoftware,Kicad,Pcbnew,(6.0.11)
; #@! TF.FileFunction,NonPlated,1,2,NPTH
FMAT,2
METRIC
; #@! TA.AperFunction,NonPlated,NPTH,ComponentDrill
T1C0.650
; #@! TA.AperFunction,NonPlated,NPTH,ComponentDrill
T2C1.750
; #@! TA.AperFunction,NonPlated,NPTH,ComponentDrill
T3C4.000
%
G90
G05
T1
X47.195Y-30.865
X52.975Y-30.865
T2
X35.44Y-38.44
X35.44Y-57.49
X35.44Y-76.54
X35.44Y-95.59
X44.965Y-114.64
X45.6Y-38.44
X45.6Y-57.49
X45.6Y-76.54
X45.6Y-95.59
X54.36Y-57.53
X54.49Y-76.54
X54.49Y-95.59
X54.56Y-38.44
X55.125Y-114.64
X64.52Y-57.53
X64.65Y-76.54
X64.65Y-95.59
X64.72Y-38.44
X73.54Y-76.54
X73.54Y-95.59
X73.54Y-114.64
X73.61Y-38.44
X73.61Y-57.53
X83.7Y-76.54
X83.7Y-95.59
X83.7Y-114.64
X83.77Y-38.44
X83.77Y-57.53
X92.66Y-38.44
X97.67Y-61.935
X97.67Y-72.095
X97.67Y-100.035
X97.67Y-110.195
X102.82Y-38.44
T3
X40.52Y-38.44
X40.52Y-57.49
X40.52Y-76.54
X40.52Y-95.59
X50.045Y-114.64
X59.44Y-57.53
X59.57Y-76.54
X59.57Y-95.59
X59.64Y-38.44
X78.62Y-76.54
X78.62Y-95.59
X78.62Y-114.64
X78.69Y-38.44
X78.69Y-57.53
X97.67Y-67.015
X97.67Y-105.115
X97.74Y-38.44
T0
M30
