M48
; DRILL file {KiCad (6.0.11)} date Mon Feb 23 11:30:22 2026
; FORMAT={-:-/ absolute / metric / decimal}
; #@! TF.CreationDate,2026-02-23T11:30:22+09:00
; #@! TF.GenerationSoftware,Kicad,Pcbnew,(6.0.11)
; #@! TF.FileFunction,Plated,1,2,PTH
FMAT,2
METRIC
; #@! TA.AperFunction,Plated,PTH,ViaDrill
T1C0.400
; #@! TA.AperFunction,Plated,PTH,ViaDrill
T2C0.500
; #@! TA.AperFunction,Plated,PTH,ViaDrill
T3C0.600
; #@! TA.AperFunction,Plated,PTH,ComponentDrill
T4C0.600
; #@! TA.AperFunction,Plated,PTH,ViaDrill
T5C0.800
; #@! TA.AperFunction,Plated,PTH,ComponentDrill
T6C1.000
; #@! TA.AperFunction,Plated,PTH,ComponentDrill
T7C3.000
; #@! TA.AperFunction,Plated,PTH,ComponentDrill
T8C3.050
%
G90
G05
T1
X34.165Y-49.765
X42.765Y-72.825
X45.393Y-67.703
X45.515Y-68.985
X47.245Y-86.095
X49.435Y-75.025
X49.905Y-39.865
X50.165Y-74.325
X50.285Y-62.065
X50.529Y-39.325
X50.725Y-104.045
X50.835Y-44.635
X50.935Y-62.765
X51.374Y-49.656
X51.435Y-87.055
X52.175Y-48.715
X54.215Y-71.565
X54.264Y-40.365
X54.305Y-72.835
X55.565Y-36.035
X55.845Y-63.955
X56.615Y-66.485
X57.335Y-69.055
X65.725Y-34.195
X82.375Y-67.725
T2
X49.765Y-65.205
T3
X47.635Y-34.215
X52.535Y-34.275
T5
X44.555Y-66.455
X45.545Y-33.785
X49.315Y-66.535
X51.795Y-74.455
X54.145Y-33.855
X54.815Y-60.295
X55.175Y-47.105
T6
X59.38Y-28.165
X61.92Y-28.165
X66.24Y-28.165
X68.78Y-28.165
X72.785Y-28.165
T7
X31.995Y-119.165
X34.495Y-28.765
X103.495Y-28.765
X106.495Y-119.165
T8
X36.71Y-54.95
X36.71Y-93.05
X37.98Y-43.52
X37.98Y-81.62
X43.06Y-52.41
X43.06Y-90.51
X44.33Y-40.98
X44.33Y-79.08
X46.235Y-112.1
X52.585Y-109.56
X55.63Y-54.99
X55.76Y-93.05
X57.03Y-81.62
X57.1Y-43.52
X61.98Y-52.45
X62.11Y-90.51
X63.38Y-79.08
X63.45Y-40.98
X74.81Y-93.05
X74.81Y-112.1
X74.88Y-54.99
X76.08Y-81.62
X76.15Y-43.52
X81.16Y-90.51
X81.16Y-109.56
X81.23Y-52.45
X82.43Y-79.08
X82.5Y-40.98
X92.59Y-64.475
X92.59Y-102.575
X95.13Y-70.825
X95.13Y-108.925
X95.2Y-43.52
X101.55Y-40.98
T4
X45.765Y-26.815G85X45.765Y-27.615
G05
X45.765Y-30.845G85X45.765Y-31.945
G05
X54.405Y-26.815G85X54.405Y-27.615
G05
X54.405Y-30.845G85X54.405Y-31.945
G05
T0
M30
