%TF.GenerationSoftware,KiCad,Pcbnew,(6.0.11)*%
%TF.CreationDate,2026-02-23T11:30:18+09:00*%
%TF.ProjectId,ch552_numpad_rev2,63683535-325f-46e7-956d-7061645f7265,02*%
%TF.SameCoordinates,Original*%
%TF.FileFunction,Soldermask,Top*%
%TF.FilePolarity,Negative*%
%FSLAX46Y46*%
G04 Gerber Fmt 4.6, Leading zero omitted, Abs format (unit mm)*
G04 Created by KiCad (PCBNEW (6.0.11)) date 2026-02-23 11:30:18*
%MOMM*%
%LPD*%
G01*
G04 APERTURE LIST*
%ADD10C,1.750000*%
%ADD11C,4.000000*%
%ADD12C,3.600000*%
%ADD13C,4.400000*%
%ADD14R,1.700000X1.700000*%
%ADD15O,1.700000X1.700000*%
%ADD16C,0.650000*%
%ADD17O,1.000000X1.900000*%
%ADD18O,1.000000X2.100000*%
G04 APERTURE END LIST*
D10*
X54559999Y-38440001D03*
X64719999Y-38440001D03*
D11*
X59639999Y-38440001D03*
D12*
X63449999Y-40980001D03*
X57099999Y-43520001D03*
D10*
X35439999Y-95590001D03*
D11*
X40519999Y-95590001D03*
D10*
X45599999Y-95590001D03*
D12*
X36709999Y-93050001D03*
X43059999Y-90510001D03*
D10*
X35439999Y-38440001D03*
D11*
X40519999Y-38440001D03*
D10*
X45599999Y-38440001D03*
D12*
X44329999Y-40980001D03*
X37979999Y-43520001D03*
D10*
X83699999Y-95590001D03*
X73539999Y-95590001D03*
D11*
X78619999Y-95590001D03*
D12*
X74809999Y-93050001D03*
X81159999Y-90510001D03*
D10*
X55124999Y-114640001D03*
D11*
X50044999Y-114640001D03*
D10*
X44964999Y-114640001D03*
D12*
X46234999Y-112100001D03*
X52584999Y-109560001D03*
D11*
X78619999Y-114640001D03*
D10*
X83699999Y-114640001D03*
X73539999Y-114640001D03*
D12*
X74809999Y-112100001D03*
X81159999Y-109560001D03*
D11*
X97740000Y-38440001D03*
D10*
X102820000Y-38440001D03*
X92660000Y-38440001D03*
D12*
X101550000Y-40980001D03*
X95200000Y-43520001D03*
D13*
X106494999Y-119165001D03*
D14*
X61919999Y-28165001D03*
D15*
X59379999Y-28165001D03*
D13*
X31994999Y-119165001D03*
D11*
X59439998Y-57530001D03*
D10*
X64519998Y-57530001D03*
X54359998Y-57530001D03*
D12*
X55629998Y-54990001D03*
X61979998Y-52450001D03*
D10*
X35439999Y-76540001D03*
X45599999Y-76540001D03*
D11*
X40519999Y-76540001D03*
D12*
X44329999Y-79080001D03*
X37979999Y-81620001D03*
D14*
X72784999Y-28165001D03*
D11*
X97669999Y-105115001D03*
D10*
X97669999Y-100035001D03*
X97669999Y-110195001D03*
D12*
X95129999Y-108925001D03*
X92589999Y-102575001D03*
D10*
X64649999Y-95590001D03*
X54489999Y-95590001D03*
D11*
X59569999Y-95590001D03*
D12*
X55759999Y-93050001D03*
X62109999Y-90510001D03*
D10*
X97669999Y-61935001D03*
X97669999Y-72095001D03*
D11*
X97669999Y-67015001D03*
D12*
X95129999Y-70825001D03*
X92589999Y-64475001D03*
D11*
X78689999Y-57530001D03*
D10*
X73609999Y-57530001D03*
X83769999Y-57530001D03*
D12*
X74879999Y-54990001D03*
X81229999Y-52450001D03*
D10*
X64649999Y-76540001D03*
D11*
X59569999Y-76540001D03*
D10*
X54489999Y-76540001D03*
D12*
X63379999Y-79080001D03*
X57029999Y-81620001D03*
D11*
X78689999Y-38440001D03*
D10*
X83769999Y-38440001D03*
X73609999Y-38440001D03*
D12*
X82499999Y-40980001D03*
X76149999Y-43520001D03*
D13*
X103494999Y-28765001D03*
X34494999Y-28765001D03*
D10*
X45599999Y-57490001D03*
X35439999Y-57490001D03*
D11*
X40519999Y-57490001D03*
D12*
X36709999Y-54950001D03*
X43059999Y-52410001D03*
D14*
X66239999Y-28165001D03*
D15*
X68779999Y-28165001D03*
D11*
X78619999Y-76540001D03*
D10*
X83699999Y-76540001D03*
X73539999Y-76540001D03*
D12*
X82429999Y-79080001D03*
X76079999Y-81620001D03*
D16*
X47194999Y-30865001D03*
X52974999Y-30865001D03*
D17*
X45764999Y-27215001D03*
D18*
X45764999Y-31395001D03*
D17*
X54404999Y-27215001D03*
D18*
X54404999Y-31395001D03*
M02*
