%TF.GenerationSoftware,KiCad,Pcbnew,(6.0.11)*%
%TF.CreationDate,2026-02-23T11:30:18+09:00*%
%TF.ProjectId,ch552_numpad_rev2,63683535-325f-46e7-956d-7061645f7265,02*%
%TF.SameCoordinates,Original*%
%TF.FileFunction,Legend,Top*%
%TF.FilePolarity,Positive*%
%FSLAX46Y46*%
G04 Gerber Fmt 4.6, Leading zero omitted, Abs format (unit mm)*
G04 Created by KiCad (PCBNEW (6.0.11)) date 2026-02-23 11:30:18*
%MOMM*%
%LPD*%
G01*
G04 APERTURE LIST*
%ADD10C,0.300000*%
%ADD11C,0.150000*%
%ADD12C,0.120000*%
%ADD13C,1.750000*%
%ADD14C,4.000000*%
%ADD15C,3.600000*%
%ADD16C,4.400000*%
%ADD17R,1.700000X1.700000*%
%ADD18O,1.700000X1.700000*%
%ADD19C,0.650000*%
%ADD20O,1.000000X1.900000*%
%ADD21O,1.000000X2.100000*%
G04 APERTURE END LIST*
D10*
X32990713Y-106122143D02*
X32847856Y-106193572D01*
X32562141Y-106193572D01*
X32419284Y-106122143D01*
X32347856Y-106050715D01*
X32276427Y-105907858D01*
X32276427Y-105479286D01*
X32347856Y-105336429D01*
X32419284Y-105265001D01*
X32562141Y-105193572D01*
X32847856Y-105193572D01*
X32990713Y-105265001D01*
X33633570Y-106193572D02*
X33633570Y-104693572D01*
X34276427Y-106193572D02*
X34276427Y-105407858D01*
X34204999Y-105265001D01*
X34062141Y-105193572D01*
X33847856Y-105193572D01*
X33704999Y-105265001D01*
X33633570Y-105336429D01*
X35704999Y-104693572D02*
X34990713Y-104693572D01*
X34919284Y-105407858D01*
X34990713Y-105336429D01*
X35133570Y-105265001D01*
X35490713Y-105265001D01*
X35633570Y-105336429D01*
X35704999Y-105407858D01*
X35776427Y-105550715D01*
X35776427Y-105907858D01*
X35704999Y-106050715D01*
X35633570Y-106122143D01*
X35490713Y-106193572D01*
X35133570Y-106193572D01*
X34990713Y-106122143D01*
X34919284Y-106050715D01*
X37133570Y-104693572D02*
X36419284Y-104693572D01*
X36347856Y-105407858D01*
X36419284Y-105336429D01*
X36562141Y-105265001D01*
X36919284Y-105265001D01*
X37062141Y-105336429D01*
X37133570Y-105407858D01*
X37204999Y-105550715D01*
X37204999Y-105907858D01*
X37133570Y-106050715D01*
X37062141Y-106122143D01*
X36919284Y-106193572D01*
X36562141Y-106193572D01*
X36419284Y-106122143D01*
X36347856Y-106050715D01*
X37776427Y-104836429D02*
X37847856Y-104765001D01*
X37990713Y-104693572D01*
X38347856Y-104693572D01*
X38490713Y-104765001D01*
X38562141Y-104836429D01*
X38633570Y-104979286D01*
X38633570Y-105122143D01*
X38562141Y-105336429D01*
X37704999Y-106193572D01*
X38633570Y-106193572D01*
X38919284Y-106336429D02*
X40062141Y-106336429D01*
X40419284Y-105193572D02*
X40419284Y-106193572D01*
X40419284Y-105336429D02*
X40490713Y-105265001D01*
X40633570Y-105193572D01*
X40847856Y-105193572D01*
X40990713Y-105265001D01*
X41062141Y-105407858D01*
X41062141Y-106193572D01*
X42419284Y-105193572D02*
X42419284Y-106193572D01*
X41776427Y-105193572D02*
X41776427Y-105979286D01*
X41847856Y-106122143D01*
X41990713Y-106193572D01*
X42204999Y-106193572D01*
X42347856Y-106122143D01*
X42419284Y-106050715D01*
X43133570Y-106193572D02*
X43133570Y-105193572D01*
X43133570Y-105336429D02*
X43204999Y-105265001D01*
X43347856Y-105193572D01*
X43562141Y-105193572D01*
X43704999Y-105265001D01*
X43776427Y-105407858D01*
X43776427Y-106193572D01*
X43776427Y-105407858D02*
X43847856Y-105265001D01*
X43990713Y-105193572D01*
X44204999Y-105193572D01*
X44347856Y-105265001D01*
X44419284Y-105407858D01*
X44419284Y-106193572D01*
X45133570Y-105193572D02*
X45133570Y-106693572D01*
X45133570Y-105265001D02*
X45276427Y-105193572D01*
X45562141Y-105193572D01*
X45704999Y-105265001D01*
X45776427Y-105336429D01*
X45847856Y-105479286D01*
X45847856Y-105907858D01*
X45776427Y-106050715D01*
X45704999Y-106122143D01*
X45562141Y-106193572D01*
X45276427Y-106193572D01*
X45133570Y-106122143D01*
X47133570Y-106193572D02*
X47133570Y-105407858D01*
X47062141Y-105265001D01*
X46919284Y-105193572D01*
X46633570Y-105193572D01*
X46490713Y-105265001D01*
X47133570Y-106122143D02*
X46990713Y-106193572D01*
X46633570Y-106193572D01*
X46490713Y-106122143D01*
X46419284Y-105979286D01*
X46419284Y-105836429D01*
X46490713Y-105693572D01*
X46633570Y-105622143D01*
X46990713Y-105622143D01*
X47133570Y-105550715D01*
X48490713Y-106193572D02*
X48490713Y-104693572D01*
X48490713Y-106122143D02*
X48347856Y-106193572D01*
X48062141Y-106193572D01*
X47919284Y-106122143D01*
X47847856Y-106050715D01*
X47776427Y-105907858D01*
X47776427Y-105479286D01*
X47847856Y-105336429D01*
X47919284Y-105265001D01*
X48062141Y-105193572D01*
X48347856Y-105193572D01*
X48490713Y-105265001D01*
X48847856Y-106336429D02*
X49990713Y-106336429D01*
X50347856Y-106193572D02*
X50347856Y-105193572D01*
X50347856Y-105479286D02*
X50419284Y-105336429D01*
X50490713Y-105265001D01*
X50633570Y-105193572D01*
X50776427Y-105193572D01*
X51847856Y-106122143D02*
X51704999Y-106193572D01*
X51419284Y-106193572D01*
X51276427Y-106122143D01*
X51204999Y-105979286D01*
X51204999Y-105407858D01*
X51276427Y-105265001D01*
X51419284Y-105193572D01*
X51704999Y-105193572D01*
X51847856Y-105265001D01*
X51919284Y-105407858D01*
X51919284Y-105550715D01*
X51204999Y-105693572D01*
X52419284Y-105193572D02*
X52776427Y-106193572D01*
X53133570Y-105193572D01*
X53633570Y-104836429D02*
X53704999Y-104765001D01*
X53847856Y-104693572D01*
X54204999Y-104693572D01*
X54347856Y-104765001D01*
X54419284Y-104836429D01*
X54490713Y-104979286D01*
X54490713Y-105122143D01*
X54419284Y-105336429D01*
X53562141Y-106193572D01*
X54490713Y-106193572D01*
X56276427Y-105193572D02*
X56276427Y-106693572D01*
X56276427Y-105265001D02*
X56419284Y-105193572D01*
X56704999Y-105193572D01*
X56847856Y-105265001D01*
X56919284Y-105336429D01*
X56990713Y-105479286D01*
X56990713Y-105907858D01*
X56919284Y-106050715D01*
X56847856Y-106122143D01*
X56704999Y-106193572D01*
X56419284Y-106193572D01*
X56276427Y-106122143D01*
X58276427Y-106122143D02*
X58133570Y-106193572D01*
X57847856Y-106193572D01*
X57704999Y-106122143D01*
X57633570Y-106050715D01*
X57562141Y-105907858D01*
X57562141Y-105479286D01*
X57633570Y-105336429D01*
X57704999Y-105265001D01*
X57847856Y-105193572D01*
X58133570Y-105193572D01*
X58276427Y-105265001D01*
X58919284Y-106193572D02*
X58919284Y-104693572D01*
X58919284Y-105265001D02*
X59062141Y-105193572D01*
X59347856Y-105193572D01*
X59490713Y-105265001D01*
X59562141Y-105336429D01*
X59633570Y-105479286D01*
X59633570Y-105907858D01*
X59562141Y-106050715D01*
X59490713Y-106122143D01*
X59347856Y-106193572D01*
X59062141Y-106193572D01*
X58919284Y-106122143D01*
D11*
X84285564Y-30707381D02*
X84196278Y-30659762D01*
X84154612Y-30612143D01*
X84118897Y-30516905D01*
X84154612Y-30231191D01*
X84214135Y-30135953D01*
X84267707Y-30088334D01*
X84368897Y-30040715D01*
X84511754Y-30040715D01*
X84601040Y-30088334D01*
X84642707Y-30135953D01*
X84678421Y-30231191D01*
X84642707Y-30516905D01*
X84583183Y-30612143D01*
X84529612Y-30659762D01*
X84428421Y-30707381D01*
X84285564Y-30707381D01*
X85047469Y-30707381D02*
X85172469Y-29707381D01*
X85190326Y-30326429D02*
X85428421Y-30707381D01*
X85511754Y-30040715D02*
X85083183Y-30421667D01*
X85856993Y-30707381D02*
X85940326Y-30040715D01*
X85981993Y-29707381D02*
X85928421Y-29755001D01*
X85970088Y-29802620D01*
X86023659Y-29755001D01*
X85981993Y-29707381D01*
X85970088Y-29802620D01*
X86333183Y-30707381D02*
X86416516Y-30040715D01*
X86392707Y-30231191D02*
X86452231Y-30135953D01*
X86505802Y-30088334D01*
X86606993Y-30040715D01*
X86702231Y-30040715D01*
X87380802Y-30707381D02*
X87446278Y-30183572D01*
X87410564Y-30088334D01*
X87321278Y-30040715D01*
X87130802Y-30040715D01*
X87029612Y-30088334D01*
X87386754Y-30659762D02*
X87285564Y-30707381D01*
X87047469Y-30707381D01*
X86958183Y-30659762D01*
X86922469Y-30564524D01*
X86934374Y-30469286D01*
X86993897Y-30374048D01*
X87095088Y-30326429D01*
X87333183Y-30326429D01*
X87434374Y-30278810D01*
X87856993Y-30707381D02*
X87981993Y-29707381D01*
X87999850Y-30326429D02*
X88237945Y-30707381D01*
X88321278Y-30040715D02*
X87892707Y-30421667D01*
X89178421Y-30040715D02*
X89095088Y-30707381D01*
X88749850Y-30040715D02*
X88684374Y-30564524D01*
X88720088Y-30659762D01*
X88809374Y-30707381D01*
X88952231Y-30707381D01*
X89053421Y-30659762D01*
X89106993Y-30612143D01*
X89618897Y-30326429D02*
X90380802Y-30326429D01*
X91243897Y-30659762D02*
X91142707Y-30707381D01*
X90952231Y-30707381D01*
X90862945Y-30659762D01*
X90821278Y-30612143D01*
X90785564Y-30516905D01*
X90821278Y-30231191D01*
X90880802Y-30135953D01*
X90934374Y-30088334D01*
X91035564Y-30040715D01*
X91226040Y-30040715D01*
X91315326Y-30088334D01*
X92095088Y-30707381D02*
X92160564Y-30183572D01*
X92124850Y-30088334D01*
X92035564Y-30040715D01*
X91845088Y-30040715D01*
X91743897Y-30088334D01*
X92101040Y-30659762D02*
X91999850Y-30707381D01*
X91761754Y-30707381D01*
X91672469Y-30659762D01*
X91636754Y-30564524D01*
X91648659Y-30469286D01*
X91708183Y-30374048D01*
X91809374Y-30326429D01*
X92047469Y-30326429D01*
X92148659Y-30278810D01*
X92571278Y-30707381D02*
X92654612Y-30040715D01*
X92642707Y-30135953D02*
X92696278Y-30088334D01*
X92797469Y-30040715D01*
X92940326Y-30040715D01*
X93029612Y-30088334D01*
X93065326Y-30183572D01*
X92999850Y-30707381D01*
X93065326Y-30183572D02*
X93124850Y-30088334D01*
X93226040Y-30040715D01*
X93368897Y-30040715D01*
X93458183Y-30088334D01*
X93493897Y-30183572D01*
X93428421Y-30707381D01*
X94291516Y-30659762D02*
X94190326Y-30707381D01*
X93999850Y-30707381D01*
X93910564Y-30659762D01*
X93874850Y-30564524D01*
X93922469Y-30183572D01*
X93981993Y-30088334D01*
X94083183Y-30040715D01*
X94273659Y-30040715D01*
X94362945Y-30088334D01*
X94398659Y-30183572D01*
X94386754Y-30278810D01*
X93898659Y-30374048D01*
X94761754Y-30707381D02*
X94845088Y-30040715D01*
X94821278Y-30231191D02*
X94880802Y-30135953D01*
X94934374Y-30088334D01*
X95035564Y-30040715D01*
X95130802Y-30040715D01*
X95809374Y-30707381D02*
X95874850Y-30183572D01*
X95839135Y-30088334D01*
X95749850Y-30040715D01*
X95559374Y-30040715D01*
X95458183Y-30088334D01*
X95815326Y-30659762D02*
X95714135Y-30707381D01*
X95476040Y-30707381D01*
X95386754Y-30659762D01*
X95351040Y-30564524D01*
X95362945Y-30469286D01*
X95422469Y-30374048D01*
X95523659Y-30326429D01*
X95761754Y-30326429D01*
X95862945Y-30278810D01*
X96297469Y-30612143D02*
X96339135Y-30659762D01*
X96285564Y-30707381D01*
X96243897Y-30659762D01*
X96297469Y-30612143D01*
X96285564Y-30707381D01*
X96702231Y-30040715D02*
X97083183Y-30040715D01*
X96886754Y-29707381D02*
X96779612Y-30564524D01*
X96815326Y-30659762D01*
X96904612Y-30707381D01*
X96999850Y-30707381D01*
X97476040Y-30707381D02*
X97386754Y-30659762D01*
X97345088Y-30612143D01*
X97309374Y-30516905D01*
X97345088Y-30231191D01*
X97404612Y-30135953D01*
X97458183Y-30088334D01*
X97559374Y-30040715D01*
X97702231Y-30040715D01*
X97791516Y-30088334D01*
X97833183Y-30135953D01*
X97868897Y-30231191D01*
X97833183Y-30516905D01*
X97773659Y-30612143D01*
X97720088Y-30659762D01*
X97618897Y-30707381D01*
X97476040Y-30707381D01*
X98237945Y-30707381D02*
X98362945Y-29707381D01*
X98380802Y-30326429D02*
X98618897Y-30707381D01*
X98702231Y-30040715D02*
X98273659Y-30421667D01*
X99035564Y-30040715D02*
X99190326Y-30707381D01*
X99511754Y-30040715D02*
X99190326Y-30707381D01*
X99065326Y-30945477D01*
X99011754Y-30993096D01*
X98910564Y-31040715D01*
X99952231Y-30707381D02*
X99862945Y-30659762D01*
X99821278Y-30612143D01*
X99785564Y-30516905D01*
X99821278Y-30231191D01*
X99880802Y-30135953D01*
X99934374Y-30088334D01*
X100035564Y-30040715D01*
X100178421Y-30040715D01*
X100267707Y-30088334D01*
X100309374Y-30135953D01*
X100345088Y-30231191D01*
X100309374Y-30516905D01*
X100249850Y-30612143D01*
X100196278Y-30659762D01*
X100095088Y-30707381D01*
X99952231Y-30707381D01*
X64509284Y-26236429D02*
X65271189Y-26236429D01*
X64890237Y-26617381D02*
X64890237Y-25855477D01*
X66223570Y-25617381D02*
X65747379Y-25617381D01*
X65699760Y-26093572D01*
X65747379Y-26045953D01*
X65842618Y-25998334D01*
X66080713Y-25998334D01*
X66175951Y-26045953D01*
X66223570Y-26093572D01*
X66271189Y-26188810D01*
X66271189Y-26426905D01*
X66223570Y-26522143D01*
X66175951Y-26569762D01*
X66080713Y-26617381D01*
X65842618Y-26617381D01*
X65747379Y-26569762D01*
X65699760Y-26522143D01*
X66556903Y-25617381D02*
X66890237Y-26617381D01*
X67223570Y-25617381D01*
X68537379Y-26617381D02*
X68204046Y-26141191D01*
X67965951Y-26617381D02*
X67965951Y-25617381D01*
X68346903Y-25617381D01*
X68442141Y-25665001D01*
X68489760Y-25712620D01*
X68537379Y-25807858D01*
X68537379Y-25950715D01*
X68489760Y-26045953D01*
X68442141Y-26093572D01*
X68346903Y-26141191D01*
X67965951Y-26141191D01*
X68918332Y-26569762D02*
X69061189Y-26617381D01*
X69299284Y-26617381D01*
X69394522Y-26569762D01*
X69442141Y-26522143D01*
X69489760Y-26426905D01*
X69489760Y-26331667D01*
X69442141Y-26236429D01*
X69394522Y-26188810D01*
X69299284Y-26141191D01*
X69108808Y-26093572D01*
X69013570Y-26045953D01*
X68965951Y-25998334D01*
X68918332Y-25903096D01*
X68918332Y-25807858D01*
X68965951Y-25712620D01*
X69013570Y-25665001D01*
X69108808Y-25617381D01*
X69346903Y-25617381D01*
X69489760Y-25665001D01*
X69775475Y-25617381D02*
X70346903Y-25617381D01*
X70061189Y-26617381D02*
X70061189Y-25617381D01*
X56806903Y-25617381D02*
X57425951Y-25617381D01*
X57092618Y-25998334D01*
X57235475Y-25998334D01*
X57330713Y-26045953D01*
X57378332Y-26093572D01*
X57425951Y-26188810D01*
X57425951Y-26426905D01*
X57378332Y-26522143D01*
X57330713Y-26569762D01*
X57235475Y-26617381D01*
X56949760Y-26617381D01*
X56854522Y-26569762D01*
X56806903Y-26522143D01*
X57759284Y-25617381D02*
X58378332Y-25617381D01*
X58044999Y-25998334D01*
X58187856Y-25998334D01*
X58283094Y-26045953D01*
X58330713Y-26093572D01*
X58378332Y-26188810D01*
X58378332Y-26426905D01*
X58330713Y-26522143D01*
X58283094Y-26569762D01*
X58187856Y-26617381D01*
X57902141Y-26617381D01*
X57806903Y-26569762D01*
X57759284Y-26522143D01*
X58664046Y-25617381D02*
X58997379Y-26617381D01*
X59330713Y-25617381D01*
X60697856Y-26093572D02*
X60840713Y-26141191D01*
X60888332Y-26188810D01*
X60935951Y-26284048D01*
X60935951Y-26426905D01*
X60888332Y-26522143D01*
X60840713Y-26569762D01*
X60745475Y-26617381D01*
X60364522Y-26617381D01*
X60364522Y-25617381D01*
X60697856Y-25617381D01*
X60793094Y-25665001D01*
X60840713Y-25712620D01*
X60888332Y-25807858D01*
X60888332Y-25903096D01*
X60840713Y-25998334D01*
X60793094Y-26045953D01*
X60697856Y-26093572D01*
X60364522Y-26093572D01*
X61554999Y-25617381D02*
X61745475Y-25617381D01*
X61840713Y-25665001D01*
X61935951Y-25760239D01*
X61983570Y-25950715D01*
X61983570Y-26284048D01*
X61935951Y-26474524D01*
X61840713Y-26569762D01*
X61745475Y-26617381D01*
X61554999Y-26617381D01*
X61459760Y-26569762D01*
X61364522Y-26474524D01*
X61316903Y-26284048D01*
X61316903Y-25950715D01*
X61364522Y-25760239D01*
X61459760Y-25665001D01*
X61554999Y-25617381D01*
X62602618Y-25617381D02*
X62793094Y-25617381D01*
X62888332Y-25665001D01*
X62983570Y-25760239D01*
X63031189Y-25950715D01*
X63031189Y-26284048D01*
X62983570Y-26474524D01*
X62888332Y-26569762D01*
X62793094Y-26617381D01*
X62602618Y-26617381D01*
X62507379Y-26569762D01*
X62412141Y-26474524D01*
X62364522Y-26284048D01*
X62364522Y-25950715D01*
X62412141Y-25760239D01*
X62507379Y-25665001D01*
X62602618Y-25617381D01*
X63316903Y-25617381D02*
X63888332Y-25617381D01*
X63602618Y-26617381D02*
X63602618Y-25617381D01*
X72023094Y-25665001D02*
X71927856Y-25617381D01*
X71784999Y-25617381D01*
X71642141Y-25665001D01*
X71546903Y-25760239D01*
X71499284Y-25855477D01*
X71451665Y-26045953D01*
X71451665Y-26188810D01*
X71499284Y-26379286D01*
X71546903Y-26474524D01*
X71642141Y-26569762D01*
X71784999Y-26617381D01*
X71880237Y-26617381D01*
X72023094Y-26569762D01*
X72070713Y-26522143D01*
X72070713Y-26188810D01*
X71880237Y-26188810D01*
X72499284Y-26617381D02*
X72499284Y-25617381D01*
X73070713Y-26617381D01*
X73070713Y-25617381D01*
X73546903Y-26617381D02*
X73546903Y-25617381D01*
X73784999Y-25617381D01*
X73927856Y-25665001D01*
X74023094Y-25760239D01*
X74070713Y-25855477D01*
X74118332Y-26045953D01*
X74118332Y-26188810D01*
X74070713Y-26379286D01*
X74023094Y-26474524D01*
X73927856Y-26569762D01*
X73784999Y-26617381D01*
X73546903Y-26617381D01*
X63181665Y-32949762D02*
X63324522Y-32997381D01*
X63562618Y-32997381D01*
X63657856Y-32949762D01*
X63705475Y-32902143D01*
X63753094Y-32806905D01*
X63753094Y-32711667D01*
X63705475Y-32616429D01*
X63657856Y-32568810D01*
X63562618Y-32521191D01*
X63372141Y-32473572D01*
X63276903Y-32425953D01*
X63229284Y-32378334D01*
X63181665Y-32283096D01*
X63181665Y-32187858D01*
X63229284Y-32092620D01*
X63276903Y-32045001D01*
X63372141Y-31997381D01*
X63610237Y-31997381D01*
X63753094Y-32045001D01*
X64086427Y-31997381D02*
X64324522Y-32997381D01*
X64514999Y-32283096D01*
X64705475Y-32997381D01*
X64943570Y-31997381D01*
X65276903Y-32092620D02*
X65324522Y-32045001D01*
X65419760Y-31997381D01*
X65657856Y-31997381D01*
X65753094Y-32045001D01*
X65800713Y-32092620D01*
X65848332Y-32187858D01*
X65848332Y-32283096D01*
X65800713Y-32425953D01*
X65229284Y-32997381D01*
X65848332Y-32997381D01*
X43035475Y-101629762D02*
X43178332Y-101677381D01*
X43416427Y-101677381D01*
X43511665Y-101629762D01*
X43559284Y-101582143D01*
X43606903Y-101486905D01*
X43606903Y-101391667D01*
X43559284Y-101296429D01*
X43511665Y-101248810D01*
X43416427Y-101201191D01*
X43225951Y-101153572D01*
X43130713Y-101105953D01*
X43083094Y-101058334D01*
X43035475Y-100963096D01*
X43035475Y-100867858D01*
X43083094Y-100772620D01*
X43130713Y-100725001D01*
X43225951Y-100677381D01*
X43464046Y-100677381D01*
X43606903Y-100725001D01*
X43940237Y-100677381D02*
X44178332Y-101677381D01*
X44368808Y-100963096D01*
X44559284Y-101677381D01*
X44797379Y-100677381D01*
X45702141Y-101677381D02*
X45130713Y-101677381D01*
X45416427Y-101677381D02*
X45416427Y-100677381D01*
X45321189Y-100820239D01*
X45225951Y-100915477D01*
X45130713Y-100963096D01*
X46035475Y-100677381D02*
X46654522Y-100677381D01*
X46321189Y-101058334D01*
X46464046Y-101058334D01*
X46559284Y-101105953D01*
X46606903Y-101153572D01*
X46654522Y-101248810D01*
X46654522Y-101486905D01*
X46606903Y-101582143D01*
X46559284Y-101629762D01*
X46464046Y-101677381D01*
X46178332Y-101677381D01*
X46083094Y-101629762D01*
X46035475Y-101582143D01*
X34371665Y-32989762D02*
X34514522Y-33037381D01*
X34752618Y-33037381D01*
X34847856Y-32989762D01*
X34895475Y-32942143D01*
X34943094Y-32846905D01*
X34943094Y-32751667D01*
X34895475Y-32656429D01*
X34847856Y-32608810D01*
X34752618Y-32561191D01*
X34562141Y-32513572D01*
X34466903Y-32465953D01*
X34419284Y-32418334D01*
X34371665Y-32323096D01*
X34371665Y-32227858D01*
X34419284Y-32132620D01*
X34466903Y-32085001D01*
X34562141Y-32037381D01*
X34800237Y-32037381D01*
X34943094Y-32085001D01*
X35276427Y-32037381D02*
X35514522Y-33037381D01*
X35704999Y-32323096D01*
X35895475Y-33037381D01*
X36133570Y-32037381D01*
X37038332Y-33037381D02*
X36466903Y-33037381D01*
X36752618Y-33037381D02*
X36752618Y-32037381D01*
X36657379Y-32180239D01*
X36562141Y-32275477D01*
X36466903Y-32323096D01*
X80925475Y-101509762D02*
X81068332Y-101557381D01*
X81306427Y-101557381D01*
X81401665Y-101509762D01*
X81449284Y-101462143D01*
X81496903Y-101366905D01*
X81496903Y-101271667D01*
X81449284Y-101176429D01*
X81401665Y-101128810D01*
X81306427Y-101081191D01*
X81115951Y-101033572D01*
X81020713Y-100985953D01*
X80973094Y-100938334D01*
X80925475Y-100843096D01*
X80925475Y-100747858D01*
X80973094Y-100652620D01*
X81020713Y-100605001D01*
X81115951Y-100557381D01*
X81354046Y-100557381D01*
X81496903Y-100605001D01*
X81830237Y-100557381D02*
X82068332Y-101557381D01*
X82258808Y-100843096D01*
X82449284Y-101557381D01*
X82687379Y-100557381D01*
X83592141Y-101557381D02*
X83020713Y-101557381D01*
X83306427Y-101557381D02*
X83306427Y-100557381D01*
X83211189Y-100700239D01*
X83115951Y-100795477D01*
X83020713Y-100843096D01*
X84496903Y-100557381D02*
X84020713Y-100557381D01*
X83973094Y-101033572D01*
X84020713Y-100985953D01*
X84115951Y-100938334D01*
X84354046Y-100938334D01*
X84449284Y-100985953D01*
X84496903Y-101033572D01*
X84544522Y-101128810D01*
X84544522Y-101366905D01*
X84496903Y-101462143D01*
X84449284Y-101509762D01*
X84354046Y-101557381D01*
X84115951Y-101557381D01*
X84020713Y-101509762D01*
X83973094Y-101462143D01*
X44455475Y-120379762D02*
X44598332Y-120427381D01*
X44836427Y-120427381D01*
X44931665Y-120379762D01*
X44979284Y-120332143D01*
X45026903Y-120236905D01*
X45026903Y-120141667D01*
X44979284Y-120046429D01*
X44931665Y-119998810D01*
X44836427Y-119951191D01*
X44645951Y-119903572D01*
X44550713Y-119855953D01*
X44503094Y-119808334D01*
X44455475Y-119713096D01*
X44455475Y-119617858D01*
X44503094Y-119522620D01*
X44550713Y-119475001D01*
X44645951Y-119427381D01*
X44884046Y-119427381D01*
X45026903Y-119475001D01*
X45360237Y-119427381D02*
X45598332Y-120427381D01*
X45788808Y-119713096D01*
X45979284Y-120427381D01*
X46217379Y-119427381D01*
X47122141Y-120427381D02*
X46550713Y-120427381D01*
X46836427Y-120427381D02*
X46836427Y-119427381D01*
X46741189Y-119570239D01*
X46645951Y-119665477D01*
X46550713Y-119713096D01*
X47455475Y-119427381D02*
X48122141Y-119427381D01*
X47693570Y-120427381D01*
X72745475Y-120469762D02*
X72888332Y-120517381D01*
X73126427Y-120517381D01*
X73221665Y-120469762D01*
X73269284Y-120422143D01*
X73316903Y-120326905D01*
X73316903Y-120231667D01*
X73269284Y-120136429D01*
X73221665Y-120088810D01*
X73126427Y-120041191D01*
X72935951Y-119993572D01*
X72840713Y-119945953D01*
X72793094Y-119898334D01*
X72745475Y-119803096D01*
X72745475Y-119707858D01*
X72793094Y-119612620D01*
X72840713Y-119565001D01*
X72935951Y-119517381D01*
X73174046Y-119517381D01*
X73316903Y-119565001D01*
X73650237Y-119517381D02*
X73888332Y-120517381D01*
X74078808Y-119803096D01*
X74269284Y-120517381D01*
X74507379Y-119517381D01*
X75412141Y-120517381D02*
X74840713Y-120517381D01*
X75126427Y-120517381D02*
X75126427Y-119517381D01*
X75031189Y-119660239D01*
X74935951Y-119755477D01*
X74840713Y-119803096D01*
X75888332Y-120517381D02*
X76078808Y-120517381D01*
X76174046Y-120469762D01*
X76221665Y-120422143D01*
X76316903Y-120279286D01*
X76364522Y-120088810D01*
X76364522Y-119707858D01*
X76316903Y-119612620D01*
X76269284Y-119565001D01*
X76174046Y-119517381D01*
X75983570Y-119517381D01*
X75888332Y-119565001D01*
X75840713Y-119612620D01*
X75793094Y-119707858D01*
X75793094Y-119945953D01*
X75840713Y-120041191D01*
X75888332Y-120088810D01*
X75983570Y-120136429D01*
X76174046Y-120136429D01*
X76269284Y-120088810D01*
X76316903Y-120041191D01*
X76364522Y-119945953D01*
X101171665Y-33099762D02*
X101314522Y-33147381D01*
X101552618Y-33147381D01*
X101647856Y-33099762D01*
X101695475Y-33052143D01*
X101743094Y-32956905D01*
X101743094Y-32861667D01*
X101695475Y-32766429D01*
X101647856Y-32718810D01*
X101552618Y-32671191D01*
X101362141Y-32623572D01*
X101266903Y-32575953D01*
X101219284Y-32528334D01*
X101171665Y-32433096D01*
X101171665Y-32337858D01*
X101219284Y-32242620D01*
X101266903Y-32195001D01*
X101362141Y-32147381D01*
X101600237Y-32147381D01*
X101743094Y-32195001D01*
X102076427Y-32147381D02*
X102314522Y-33147381D01*
X102504999Y-32433096D01*
X102695475Y-33147381D01*
X102933570Y-32147381D01*
X103743094Y-32480715D02*
X103743094Y-33147381D01*
X103504999Y-32099762D02*
X103266903Y-32814048D01*
X103885951Y-32814048D01*
X63111665Y-63749762D02*
X63254522Y-63797381D01*
X63492618Y-63797381D01*
X63587856Y-63749762D01*
X63635475Y-63702143D01*
X63683094Y-63606905D01*
X63683094Y-63511667D01*
X63635475Y-63416429D01*
X63587856Y-63368810D01*
X63492618Y-63321191D01*
X63302141Y-63273572D01*
X63206903Y-63225953D01*
X63159284Y-63178334D01*
X63111665Y-63083096D01*
X63111665Y-62987858D01*
X63159284Y-62892620D01*
X63206903Y-62845001D01*
X63302141Y-62797381D01*
X63540237Y-62797381D01*
X63683094Y-62845001D01*
X64016427Y-62797381D02*
X64254522Y-63797381D01*
X64444999Y-63083096D01*
X64635475Y-63797381D01*
X64873570Y-62797381D01*
X65683094Y-62797381D02*
X65492618Y-62797381D01*
X65397379Y-62845001D01*
X65349760Y-62892620D01*
X65254522Y-63035477D01*
X65206903Y-63225953D01*
X65206903Y-63606905D01*
X65254522Y-63702143D01*
X65302141Y-63749762D01*
X65397379Y-63797381D01*
X65587856Y-63797381D01*
X65683094Y-63749762D01*
X65730713Y-63702143D01*
X65778332Y-63606905D01*
X65778332Y-63368810D01*
X65730713Y-63273572D01*
X65683094Y-63225953D01*
X65587856Y-63178334D01*
X65397379Y-63178334D01*
X65302141Y-63225953D01*
X65254522Y-63273572D01*
X65206903Y-63368810D01*
X33991665Y-71089762D02*
X34134522Y-71137381D01*
X34372618Y-71137381D01*
X34467856Y-71089762D01*
X34515475Y-71042143D01*
X34563094Y-70946905D01*
X34563094Y-70851667D01*
X34515475Y-70756429D01*
X34467856Y-70708810D01*
X34372618Y-70661191D01*
X34182141Y-70613572D01*
X34086903Y-70565953D01*
X34039284Y-70518334D01*
X33991665Y-70423096D01*
X33991665Y-70327858D01*
X34039284Y-70232620D01*
X34086903Y-70185001D01*
X34182141Y-70137381D01*
X34420237Y-70137381D01*
X34563094Y-70185001D01*
X34896427Y-70137381D02*
X35134522Y-71137381D01*
X35324999Y-70423096D01*
X35515475Y-71137381D01*
X35753570Y-70137381D01*
X36182141Y-71137381D02*
X36372618Y-71137381D01*
X36467856Y-71089762D01*
X36515475Y-71042143D01*
X36610713Y-70899286D01*
X36658332Y-70708810D01*
X36658332Y-70327858D01*
X36610713Y-70232620D01*
X36563094Y-70185001D01*
X36467856Y-70137381D01*
X36277379Y-70137381D01*
X36182141Y-70185001D01*
X36134522Y-70232620D01*
X36086903Y-70327858D01*
X36086903Y-70565953D01*
X36134522Y-70661191D01*
X36182141Y-70708810D01*
X36277379Y-70756429D01*
X36467856Y-70756429D01*
X36563094Y-70708810D01*
X36610713Y-70661191D01*
X36658332Y-70565953D01*
X100665475Y-111629762D02*
X100808332Y-111677381D01*
X101046427Y-111677381D01*
X101141665Y-111629762D01*
X101189284Y-111582143D01*
X101236903Y-111486905D01*
X101236903Y-111391667D01*
X101189284Y-111296429D01*
X101141665Y-111248810D01*
X101046427Y-111201191D01*
X100855951Y-111153572D01*
X100760713Y-111105953D01*
X100713094Y-111058334D01*
X100665475Y-110963096D01*
X100665475Y-110867858D01*
X100713094Y-110772620D01*
X100760713Y-110725001D01*
X100855951Y-110677381D01*
X101094046Y-110677381D01*
X101236903Y-110725001D01*
X101570237Y-110677381D02*
X101808332Y-111677381D01*
X101998808Y-110963096D01*
X102189284Y-111677381D01*
X102427379Y-110677381D01*
X103332141Y-111677381D02*
X102760713Y-111677381D01*
X103046427Y-111677381D02*
X103046427Y-110677381D01*
X102951189Y-110820239D01*
X102855951Y-110915477D01*
X102760713Y-110963096D01*
X104189284Y-110677381D02*
X103998808Y-110677381D01*
X103903570Y-110725001D01*
X103855951Y-110772620D01*
X103760713Y-110915477D01*
X103713094Y-111105953D01*
X103713094Y-111486905D01*
X103760713Y-111582143D01*
X103808332Y-111629762D01*
X103903570Y-111677381D01*
X104094046Y-111677381D01*
X104189284Y-111629762D01*
X104236903Y-111582143D01*
X104284522Y-111486905D01*
X104284522Y-111248810D01*
X104236903Y-111153572D01*
X104189284Y-111105953D01*
X104094046Y-111058334D01*
X103903570Y-111058334D01*
X103808332Y-111105953D01*
X103760713Y-111153572D01*
X103713094Y-111248810D01*
X62285475Y-101399762D02*
X62428332Y-101447381D01*
X62666427Y-101447381D01*
X62761665Y-101399762D01*
X62809284Y-101352143D01*
X62856903Y-101256905D01*
X62856903Y-101161667D01*
X62809284Y-101066429D01*
X62761665Y-101018810D01*
X62666427Y-100971191D01*
X62475951Y-100923572D01*
X62380713Y-100875953D01*
X62333094Y-100828334D01*
X62285475Y-100733096D01*
X62285475Y-100637858D01*
X62333094Y-100542620D01*
X62380713Y-100495001D01*
X62475951Y-100447381D01*
X62714046Y-100447381D01*
X62856903Y-100495001D01*
X63190237Y-100447381D02*
X63428332Y-101447381D01*
X63618808Y-100733096D01*
X63809284Y-101447381D01*
X64047379Y-100447381D01*
X64952141Y-101447381D02*
X64380713Y-101447381D01*
X64666427Y-101447381D02*
X64666427Y-100447381D01*
X64571189Y-100590239D01*
X64475951Y-100685477D01*
X64380713Y-100733096D01*
X65809284Y-100780715D02*
X65809284Y-101447381D01*
X65571189Y-100399762D02*
X65333094Y-101114048D01*
X65952141Y-101114048D01*
X101601665Y-73659762D02*
X101744522Y-73707381D01*
X101982618Y-73707381D01*
X102077856Y-73659762D01*
X102125475Y-73612143D01*
X102173094Y-73516905D01*
X102173094Y-73421667D01*
X102125475Y-73326429D01*
X102077856Y-73278810D01*
X101982618Y-73231191D01*
X101792141Y-73183572D01*
X101696903Y-73135953D01*
X101649284Y-73088334D01*
X101601665Y-72993096D01*
X101601665Y-72897858D01*
X101649284Y-72802620D01*
X101696903Y-72755001D01*
X101792141Y-72707381D01*
X102030237Y-72707381D01*
X102173094Y-72755001D01*
X102506427Y-72707381D02*
X102744522Y-73707381D01*
X102934999Y-72993096D01*
X103125475Y-73707381D01*
X103363570Y-72707381D01*
X103887379Y-73135953D02*
X103792141Y-73088334D01*
X103744522Y-73040715D01*
X103696903Y-72945477D01*
X103696903Y-72897858D01*
X103744522Y-72802620D01*
X103792141Y-72755001D01*
X103887379Y-72707381D01*
X104077856Y-72707381D01*
X104173094Y-72755001D01*
X104220713Y-72802620D01*
X104268332Y-72897858D01*
X104268332Y-72945477D01*
X104220713Y-73040715D01*
X104173094Y-73088334D01*
X104077856Y-73135953D01*
X103887379Y-73135953D01*
X103792141Y-73183572D01*
X103744522Y-73231191D01*
X103696903Y-73326429D01*
X103696903Y-73516905D01*
X103744522Y-73612143D01*
X103792141Y-73659762D01*
X103887379Y-73707381D01*
X104077856Y-73707381D01*
X104173094Y-73659762D01*
X104220713Y-73612143D01*
X104268332Y-73516905D01*
X104268332Y-73326429D01*
X104220713Y-73231191D01*
X104173094Y-73183572D01*
X104077856Y-73135953D01*
X82381665Y-63749762D02*
X82524522Y-63797381D01*
X82762618Y-63797381D01*
X82857856Y-63749762D01*
X82905475Y-63702143D01*
X82953094Y-63606905D01*
X82953094Y-63511667D01*
X82905475Y-63416429D01*
X82857856Y-63368810D01*
X82762618Y-63321191D01*
X82572141Y-63273572D01*
X82476903Y-63225953D01*
X82429284Y-63178334D01*
X82381665Y-63083096D01*
X82381665Y-62987858D01*
X82429284Y-62892620D01*
X82476903Y-62845001D01*
X82572141Y-62797381D01*
X82810237Y-62797381D01*
X82953094Y-62845001D01*
X83286427Y-62797381D02*
X83524522Y-63797381D01*
X83714999Y-63083096D01*
X83905475Y-63797381D01*
X84143570Y-62797381D01*
X84429284Y-62797381D02*
X85095951Y-62797381D01*
X84667379Y-63797381D01*
X62145475Y-71219762D02*
X62288332Y-71267381D01*
X62526427Y-71267381D01*
X62621665Y-71219762D01*
X62669284Y-71172143D01*
X62716903Y-71076905D01*
X62716903Y-70981667D01*
X62669284Y-70886429D01*
X62621665Y-70838810D01*
X62526427Y-70791191D01*
X62335951Y-70743572D01*
X62240713Y-70695953D01*
X62193094Y-70648334D01*
X62145475Y-70553096D01*
X62145475Y-70457858D01*
X62193094Y-70362620D01*
X62240713Y-70315001D01*
X62335951Y-70267381D01*
X62574046Y-70267381D01*
X62716903Y-70315001D01*
X63050237Y-70267381D02*
X63288332Y-71267381D01*
X63478808Y-70553096D01*
X63669284Y-71267381D01*
X63907379Y-70267381D01*
X64812141Y-71267381D02*
X64240713Y-71267381D01*
X64526427Y-71267381D02*
X64526427Y-70267381D01*
X64431189Y-70410239D01*
X64335951Y-70505477D01*
X64240713Y-70553096D01*
X65431189Y-70267381D02*
X65526427Y-70267381D01*
X65621665Y-70315001D01*
X65669284Y-70362620D01*
X65716903Y-70457858D01*
X65764522Y-70648334D01*
X65764522Y-70886429D01*
X65716903Y-71076905D01*
X65669284Y-71172143D01*
X65621665Y-71219762D01*
X65526427Y-71267381D01*
X65431189Y-71267381D01*
X65335951Y-71219762D01*
X65288332Y-71172143D01*
X65240713Y-71076905D01*
X65193094Y-70886429D01*
X65193094Y-70648334D01*
X65240713Y-70457858D01*
X65288332Y-70362620D01*
X65335951Y-70315001D01*
X65431189Y-70267381D01*
X82291665Y-33249762D02*
X82434522Y-33297381D01*
X82672618Y-33297381D01*
X82767856Y-33249762D01*
X82815475Y-33202143D01*
X82863094Y-33106905D01*
X82863094Y-33011667D01*
X82815475Y-32916429D01*
X82767856Y-32868810D01*
X82672618Y-32821191D01*
X82482141Y-32773572D01*
X82386903Y-32725953D01*
X82339284Y-32678334D01*
X82291665Y-32583096D01*
X82291665Y-32487858D01*
X82339284Y-32392620D01*
X82386903Y-32345001D01*
X82482141Y-32297381D01*
X82720237Y-32297381D01*
X82863094Y-32345001D01*
X83196427Y-32297381D02*
X83434522Y-33297381D01*
X83624999Y-32583096D01*
X83815475Y-33297381D01*
X84053570Y-32297381D01*
X84339284Y-32297381D02*
X84958332Y-32297381D01*
X84624999Y-32678334D01*
X84767856Y-32678334D01*
X84863094Y-32725953D01*
X84910713Y-32773572D01*
X84958332Y-32868810D01*
X84958332Y-33106905D01*
X84910713Y-33202143D01*
X84863094Y-33249762D01*
X84767856Y-33297381D01*
X84482141Y-33297381D01*
X84386903Y-33249762D01*
X84339284Y-33202143D01*
X34321665Y-63639762D02*
X34464522Y-63687381D01*
X34702618Y-63687381D01*
X34797856Y-63639762D01*
X34845475Y-63592143D01*
X34893094Y-63496905D01*
X34893094Y-63401667D01*
X34845475Y-63306429D01*
X34797856Y-63258810D01*
X34702618Y-63211191D01*
X34512141Y-63163572D01*
X34416903Y-63115953D01*
X34369284Y-63068334D01*
X34321665Y-62973096D01*
X34321665Y-62877858D01*
X34369284Y-62782620D01*
X34416903Y-62735001D01*
X34512141Y-62687381D01*
X34750237Y-62687381D01*
X34893094Y-62735001D01*
X35226427Y-62687381D02*
X35464522Y-63687381D01*
X35654999Y-62973096D01*
X35845475Y-63687381D01*
X36083570Y-62687381D01*
X36940713Y-62687381D02*
X36464522Y-62687381D01*
X36416903Y-63163572D01*
X36464522Y-63115953D01*
X36559760Y-63068334D01*
X36797856Y-63068334D01*
X36893094Y-63115953D01*
X36940713Y-63163572D01*
X36988332Y-63258810D01*
X36988332Y-63496905D01*
X36940713Y-63592143D01*
X36893094Y-63639762D01*
X36797856Y-63687381D01*
X36559760Y-63687381D01*
X36464522Y-63639762D01*
X36416903Y-63592143D01*
X81575475Y-71109762D02*
X81718332Y-71157381D01*
X81956427Y-71157381D01*
X82051665Y-71109762D01*
X82099284Y-71062143D01*
X82146903Y-70966905D01*
X82146903Y-70871667D01*
X82099284Y-70776429D01*
X82051665Y-70728810D01*
X81956427Y-70681191D01*
X81765951Y-70633572D01*
X81670713Y-70585953D01*
X81623094Y-70538334D01*
X81575475Y-70443096D01*
X81575475Y-70347858D01*
X81623094Y-70252620D01*
X81670713Y-70205001D01*
X81765951Y-70157381D01*
X82004046Y-70157381D01*
X82146903Y-70205001D01*
X82480237Y-70157381D02*
X82718332Y-71157381D01*
X82908808Y-70443096D01*
X83099284Y-71157381D01*
X83337379Y-70157381D01*
X84242141Y-71157381D02*
X83670713Y-71157381D01*
X83956427Y-71157381D02*
X83956427Y-70157381D01*
X83861189Y-70300239D01*
X83765951Y-70395477D01*
X83670713Y-70443096D01*
X85194522Y-71157381D02*
X84623094Y-71157381D01*
X84908808Y-71157381D02*
X84908808Y-70157381D01*
X84813570Y-70300239D01*
X84718332Y-70395477D01*
X84623094Y-70443096D01*
D12*
X66739999Y-45540001D02*
X66739999Y-31340001D01*
X52539999Y-45540001D02*
X66739999Y-45540001D01*
X52539999Y-31340001D02*
X52539999Y-45540001D01*
X66739999Y-31340001D02*
X52539999Y-31340001D01*
X47619999Y-88490001D02*
X33419999Y-88490001D01*
X33419999Y-88490001D02*
X33419999Y-102690001D01*
X33419999Y-102690001D02*
X47619999Y-102690001D01*
X47619999Y-102690001D02*
X47619999Y-88490001D01*
X47619999Y-31340001D02*
X33419999Y-31340001D01*
X33419999Y-31340001D02*
X33419999Y-45540001D01*
X47619999Y-45540001D02*
X47619999Y-31340001D01*
X33419999Y-45540001D02*
X47619999Y-45540001D01*
X71519999Y-102690001D02*
X85719999Y-102690001D01*
X85719999Y-88490001D02*
X71519999Y-88490001D01*
X85719999Y-102690001D02*
X85719999Y-88490001D01*
X71519999Y-88490001D02*
X71519999Y-102690001D01*
X42944999Y-107540001D02*
X42944999Y-121740001D01*
X42944999Y-121740001D02*
X57144999Y-121740001D01*
X57144999Y-121740001D02*
X57144999Y-107540001D01*
X57144999Y-107540001D02*
X42944999Y-107540001D01*
X85719999Y-121740001D02*
X85719999Y-107540001D01*
X71519999Y-121740001D02*
X85719999Y-121740001D01*
X71519999Y-107540001D02*
X71519999Y-121740001D01*
X85719999Y-107540001D02*
X71519999Y-107540001D01*
X90640000Y-45540001D02*
X104840000Y-45540001D01*
X104840000Y-45540001D02*
X104840000Y-31340001D01*
X104840000Y-31340001D02*
X90640000Y-31340001D01*
X90640000Y-31340001D02*
X90640000Y-45540001D01*
X63249999Y-26835001D02*
X63249999Y-29495001D01*
X58049999Y-26835001D02*
X58049999Y-29495001D01*
X63249999Y-26835001D02*
X58049999Y-26835001D01*
X63249999Y-29495001D02*
X58049999Y-29495001D01*
X52339998Y-64630001D02*
X66539998Y-64630001D01*
X52339998Y-50430001D02*
X52339998Y-64630001D01*
X66539998Y-64630001D02*
X66539998Y-50430001D01*
X66539998Y-50430001D02*
X52339998Y-50430001D01*
X47619999Y-69440001D02*
X33419999Y-69440001D01*
X33419999Y-69440001D02*
X33419999Y-83640001D01*
X33419999Y-83640001D02*
X47619999Y-83640001D01*
X47619999Y-83640001D02*
X47619999Y-69440001D01*
X74114999Y-29435001D02*
X74114999Y-29495001D01*
X71454999Y-29435001D02*
X74114999Y-29435001D01*
X71454999Y-28165001D02*
X71454999Y-26835001D01*
X71454999Y-26835001D02*
X72784999Y-26835001D01*
X71454999Y-29435001D02*
X71454999Y-29495001D01*
X71454999Y-29495001D02*
X74114999Y-29495001D01*
X90569999Y-112215001D02*
X104769999Y-112215001D01*
X104769999Y-98015001D02*
X90569999Y-98015001D01*
X90569999Y-98015001D02*
X90569999Y-112215001D01*
X104769999Y-112215001D02*
X104769999Y-98015001D01*
X52469999Y-102690001D02*
X66669999Y-102690001D01*
X66669999Y-88490001D02*
X52469999Y-88490001D01*
X66669999Y-102690001D02*
X66669999Y-88490001D01*
X52469999Y-88490001D02*
X52469999Y-102690001D01*
X104769999Y-59915001D02*
X90569999Y-59915001D01*
X90569999Y-59915001D02*
X90569999Y-74115001D01*
X90569999Y-74115001D02*
X104769999Y-74115001D01*
X104769999Y-74115001D02*
X104769999Y-59915001D01*
X71589999Y-64630001D02*
X85789999Y-64630001D01*
X71589999Y-50430001D02*
X71589999Y-64630001D01*
X85789999Y-64630001D02*
X85789999Y-50430001D01*
X85789999Y-50430001D02*
X71589999Y-50430001D01*
X66669999Y-69440001D02*
X52469999Y-69440001D01*
X52469999Y-69440001D02*
X52469999Y-83640001D01*
X52469999Y-83640001D02*
X66669999Y-83640001D01*
X66669999Y-83640001D02*
X66669999Y-69440001D01*
X85789999Y-31340001D02*
X71589999Y-31340001D01*
X71589999Y-45540001D02*
X85789999Y-45540001D01*
X71589999Y-31340001D02*
X71589999Y-45540001D01*
X85789999Y-45540001D02*
X85789999Y-31340001D01*
X33419999Y-50390001D02*
X33419999Y-64590001D01*
X33419999Y-64590001D02*
X47619999Y-64590001D01*
X47619999Y-50390001D02*
X33419999Y-50390001D01*
X47619999Y-64590001D02*
X47619999Y-50390001D01*
X70109999Y-29495001D02*
X70109999Y-26835001D01*
X64969999Y-26835001D02*
X70109999Y-26835001D01*
X64969999Y-29495001D02*
X70109999Y-29495001D01*
X64969999Y-29495001D02*
X64969999Y-26835001D01*
X85719999Y-69440001D02*
X71519999Y-69440001D01*
X71519999Y-83640001D02*
X85719999Y-83640001D01*
X85719999Y-83640001D02*
X85719999Y-69440001D01*
X71519999Y-69440001D02*
X71519999Y-83640001D01*
%LPC*%
D13*
X54559999Y-38440001D03*
X64719999Y-38440001D03*
D14*
X59639999Y-38440001D03*
D15*
X63449999Y-40980001D03*
X57099999Y-43520001D03*
D13*
X35439999Y-95590001D03*
D14*
X40519999Y-95590001D03*
D13*
X45599999Y-95590001D03*
D15*
X36709999Y-93050001D03*
X43059999Y-90510001D03*
D13*
X35439999Y-38440001D03*
D14*
X40519999Y-38440001D03*
D13*
X45599999Y-38440001D03*
D15*
X44329999Y-40980001D03*
X37979999Y-43520001D03*
D13*
X83699999Y-95590001D03*
X73539999Y-95590001D03*
D14*
X78619999Y-95590001D03*
D15*
X74809999Y-93050001D03*
X81159999Y-90510001D03*
D13*
X55124999Y-114640001D03*
D14*
X50044999Y-114640001D03*
D13*
X44964999Y-114640001D03*
D15*
X46234999Y-112100001D03*
X52584999Y-109560001D03*
D14*
X78619999Y-114640001D03*
D13*
X83699999Y-114640001D03*
X73539999Y-114640001D03*
D15*
X74809999Y-112100001D03*
X81159999Y-109560001D03*
D14*
X97740000Y-38440001D03*
D13*
X102820000Y-38440001D03*
X92660000Y-38440001D03*
D15*
X101550000Y-40980001D03*
X95200000Y-43520001D03*
D16*
X106494999Y-119165001D03*
D17*
X61919999Y-28165001D03*
D18*
X59379999Y-28165001D03*
D16*
X31994999Y-119165001D03*
D14*
X59439998Y-57530001D03*
D13*
X64519998Y-57530001D03*
X54359998Y-57530001D03*
D15*
X55629998Y-54990001D03*
X61979998Y-52450001D03*
D13*
X35439999Y-76540001D03*
X45599999Y-76540001D03*
D14*
X40519999Y-76540001D03*
D15*
X44329999Y-79080001D03*
X37979999Y-81620001D03*
D17*
X72784999Y-28165001D03*
D14*
X97669999Y-105115001D03*
D13*
X97669999Y-100035001D03*
X97669999Y-110195001D03*
D15*
X95129999Y-108925001D03*
X92589999Y-102575001D03*
D13*
X64649999Y-95590001D03*
X54489999Y-95590001D03*
D14*
X59569999Y-95590001D03*
D15*
X55759999Y-93050001D03*
X62109999Y-90510001D03*
D13*
X97669999Y-61935001D03*
X97669999Y-72095001D03*
D14*
X97669999Y-67015001D03*
D15*
X95129999Y-70825001D03*
X92589999Y-64475001D03*
D14*
X78689999Y-57530001D03*
D13*
X73609999Y-57530001D03*
X83769999Y-57530001D03*
D15*
X74879999Y-54990001D03*
X81229999Y-52450001D03*
D13*
X64649999Y-76540001D03*
D14*
X59569999Y-76540001D03*
D13*
X54489999Y-76540001D03*
D15*
X63379999Y-79080001D03*
X57029999Y-81620001D03*
D14*
X78689999Y-38440001D03*
D13*
X83769999Y-38440001D03*
X73609999Y-38440001D03*
D15*
X82499999Y-40980001D03*
X76149999Y-43520001D03*
D16*
X103494999Y-28765001D03*
X34494999Y-28765001D03*
D13*
X45599999Y-57490001D03*
X35439999Y-57490001D03*
D14*
X40519999Y-57490001D03*
D15*
X36709999Y-54950001D03*
X43059999Y-52410001D03*
D17*
X66239999Y-28165001D03*
D18*
X68779999Y-28165001D03*
D14*
X78619999Y-76540001D03*
D13*
X83699999Y-76540001D03*
X73539999Y-76540001D03*
D15*
X82429999Y-79080001D03*
X76079999Y-81620001D03*
D19*
X47194999Y-30865001D03*
X52974999Y-30865001D03*
D20*
X45764999Y-27215001D03*
D21*
X45764999Y-31395001D03*
D20*
X54404999Y-27215001D03*
D21*
X54404999Y-31395001D03*
M02*
