  0
SECTION
  2
HEADER
  9
$ANGBASE
  50
0.0
  9
$ANGDIR
  70
1
  9
$MEASUREMENT
  70
1
  0
ENDSEC
  0
SECTION
  2
TABLES
  0
TABLE
  2
LTYPE
  70
4
  0
LTYPE
  5
40F
  2
CONTINUOUS
  70
0
  3
Solid line
  72
65
  73
0
  40
0.0
  0
LTYPE
  5
410
  2
DASHDOT
 70
0
  3
Dash Dot ____ _ ____ _
 72
65
 73
4
 40
2.0
 49
1.25
 49
-0.25
 49
0.25
 49
-0.25
  0
LTYPE
  5
411
  2
DASHED
 70
0
  3
Dashed __ __ __ __ __
 72
65
 73
2
 40
0.75
 49
0.5
 49
-0.25
  0
LTYPE
  5
43B
  2
DOTTED
 70
0
  3
Dotted .  .  .  .
 72
65
 73
2
 40
0.2
 49
0.0
 49
-0.2
  0
ENDTAB
  0
TABLE
  2
STYLE
  70
4
  0
STYLE
  2
KICAD
  70
0
  40
0
  41
1
  42
1
  50
0
  71
0
  3
isocp.shx
  0
STYLE
  2
KICADB
  70
0
  40
0
  41
1
  42
1
  50
0
  71
0
  3
isocp.shx
  0
STYLE
  2
KICADI
  70
0
  40
0
  41
1
  42
1
  50
15
  71
0
  3
isocp.shx
  0
STYLE
  2
KICADBI
  70
0
  40
0
  41
1
  42
1
  50
15
  71
0
  3
isocp.shx
  0
ENDTAB
  0
TABLE
  2
LAYER
  70
1
  0
LAYER
  2
BLACK
  70
0
  62
7
  6
CONTINUOUS
  0
ENDTAB
  0
ENDSEC
  0
SECTION
  2
ENTITIES
0
LINE
8
BLACK
6
CONTINUOUS
10
57.545
20
-25.165
11
57.545
21
-28.365
0
LINE
8
BLACK
6
CONTINUOUS
10
57.545
20
-28.365
11
57.542
21
-28.3722
0
LINE
8
BLACK
6
CONTINUOUS
10
57.542
20
-28.3722
11
57.5559
21
-28.5306
0
LINE
8
BLACK
6
CONTINUOUS
10
57.5559
20
-28.5306
11
57.5989
21
-28.6912
0
LINE
8
BLACK
6
CONTINUOUS
10
57.5989
20
-28.6912
11
57.6691
21
-28.8418
0
LINE
8
BLACK
6
CONTINUOUS
10
57.6691
20
-28.8418
11
57.7645
21
-28.978
0
LINE
8
BLACK
6
CONTINUOUS
10
57.7645
20
-28.978
11
57.882
21
-29.0955
0
LINE
8
BLACK
6
CONTINUOUS
10
57.882
20
-29.0955
11
58.0182
21
-29.1909
0
LINE
8
BLACK
6
CONTINUOUS
10
58.0182
20
-29.1909
11
58.1688
21
-29.2611
0
LINE
8
BLACK
6
CONTINUOUS
10
58.1688
20
-29.2611
11
58.3294
21
-29.3041
0
LINE
8
BLACK
6
CONTINUOUS
10
58.3294
20
-29.3041
11
58.4878
21
-29.318
0
LINE
8
BLACK
6
CONTINUOUS
10
58.4878
20
-29.318
11
58.4878
21
-29.318
0
LINE
8
BLACK
6
CONTINUOUS
10
58.4878
20
-29.318
11
58.495
21
-29.315
0
LINE
8
BLACK
6
CONTINUOUS
10
58.495
20
-29.315
11
73.995
21
-29.315
0
LINE
8
BLACK
6
CONTINUOUS
10
73.995
20
-29.315
11
74.0022
21
-29.318
0
LINE
8
BLACK
6
CONTINUOUS
10
74.0022
20
-29.318
11
74.1606
21
-29.3041
0
LINE
8
BLACK
6
CONTINUOUS
10
74.1606
20
-29.3041
11
74.3212
21
-29.2611
0
LINE
8
BLACK
6
CONTINUOUS
10
74.3212
20
-29.2611
11
74.4718
21
-29.1909
0
LINE
8
BLACK
6
CONTINUOUS
10
74.4718
20
-29.1909
11
74.608
21
-29.0955
0
LINE
8
BLACK
6
CONTINUOUS
10
74.608
20
-29.0955
11
74.7255
21
-28.978
0
LINE
8
BLACK
6
CONTINUOUS
10
74.7255
20
-28.978
11
74.8209
21
-28.8418
0
LINE
8
BLACK
6
CONTINUOUS
10
74.8209
20
-28.8418
11
74.8911
21
-28.6912
0
LINE
8
BLACK
6
CONTINUOUS
10
74.8911
20
-28.6912
11
74.9341
21
-28.5306
0
LINE
8
BLACK
6
CONTINUOUS
10
74.9341
20
-28.5306
11
74.948
21
-28.3722
0
LINE
8
BLACK
6
CONTINUOUS
10
74.948
20
-28.3722
11
74.945
21
-28.365
0
LINE
8
BLACK
6
CONTINUOUS
10
74.945
20
-28.365
11
74.945
21
-25.165
0
LINE
8
BLACK
6
CONTINUOUS
10
74.945
20
-25.165
11
74.9596
21
-25.1296
0
LINE
8
BLACK
6
CONTINUOUS
10
74.9596
20
-25.1296
11
74.995
21
-25.115
0
LINE
8
BLACK
6
CONTINUOUS
10
74.995
20
-25.115
11
105.995
21
-25.115
0
LINE
8
BLACK
6
CONTINUOUS
10
105.995
20
-25.115
11
106.369
21
-25.1323
0
LINE
8
BLACK
6
CONTINUOUS
10
106.369
20
-25.1323
11
106.739
21
-25.184
0
LINE
8
BLACK
6
CONTINUOUS
10
106.739
20
-25.184
11
107.103
21
-25.2696
0
LINE
8
BLACK
6
CONTINUOUS
10
107.103
20
-25.2696
11
107.458
21
-25.3885
0
LINE
8
BLACK
6
CONTINUOUS
10
107.458
20
-25.3885
11
107.8
21
-25.5396
0
LINE
8
BLACK
6
CONTINUOUS
10
107.8
20
-25.5396
11
108.127
21
-25.7216
0
LINE
8
BLACK
6
CONTINUOUS
10
108.127
20
-25.7216
11
108.436
21
-25.933
0
LINE
8
BLACK
6
CONTINUOUS
10
108.436
20
-25.933
11
108.723
21
-26.172
0
LINE
8
BLACK
6
CONTINUOUS
10
108.723
20
-26.172
11
108.988
21
-26.4365
0
LINE
8
BLACK
6
CONTINUOUS
10
108.988
20
-26.4365
11
109.227
21
-26.7243
0
LINE
8
BLACK
6
CONTINUOUS
10
109.227
20
-26.7243
11
109.438
21
-27.033
0
LINE
8
BLACK
6
CONTINUOUS
10
109.438
20
-27.033
11
109.62
21
-27.3598
0
LINE
8
BLACK
6
CONTINUOUS
10
109.62
20
-27.3598
11
109.772
21
-27.702
0
LINE
8
BLACK
6
CONTINUOUS
10
109.772
20
-27.702
11
109.89
21
-28.0567
0
LINE
8
BLACK
6
CONTINUOUS
10
109.89
20
-28.0567
11
109.976
21
-28.4208
0
LINE
8
BLACK
6
CONTINUOUS
10
109.976
20
-28.4208
11
110.028
21
-28.7913
0
LINE
8
BLACK
6
CONTINUOUS
10
110.028
20
-28.7913
11
110.045
21
-29.165
0
LINE
8
BLACK
6
CONTINUOUS
10
110.045
20
-29.165
11
110.045
21
-120.165
0
LINE
8
BLACK
6
CONTINUOUS
10
110.045
20
-120.165
11
110.028
21
-120.539
0
LINE
8
BLACK
6
CONTINUOUS
10
110.028
20
-120.539
11
109.976
21
-120.909
0
LINE
8
BLACK
6
CONTINUOUS
10
109.976
20
-120.909
11
109.89
21
-121.273
0
LINE
8
BLACK
6
CONTINUOUS
10
109.89
20
-121.273
11
109.772
21
-121.628
0
LINE
8
BLACK
6
CONTINUOUS
10
109.772
20
-121.628
11
109.62
21
-121.97
0
LINE
8
BLACK
6
CONTINUOUS
10
109.62
20
-121.97
11
109.438
21
-122.297
0
LINE
8
BLACK
6
CONTINUOUS
10
109.438
20
-122.297
11
109.227
21
-122.606
0
LINE
8
BLACK
6
CONTINUOUS
10
109.227
20
-122.606
11
108.988
21
-122.893
0
LINE
8
BLACK
6
CONTINUOUS
10
108.988
20
-122.893
11
108.723
21
-123.158
0
LINE
8
BLACK
6
CONTINUOUS
10
108.723
20
-123.158
11
108.436
21
-123.397
0
LINE
8
BLACK
6
CONTINUOUS
10
108.436
20
-123.397
11
108.127
21
-123.608
0
LINE
8
BLACK
6
CONTINUOUS
10
108.127
20
-123.608
11
107.8
21
-123.79
0
LINE
8
BLACK
6
CONTINUOUS
10
107.8
20
-123.79
11
107.458
21
-123.942
0
LINE
8
BLACK
6
CONTINUOUS
10
107.458
20
-123.942
11
107.103
21
-124.06
0
LINE
8
BLACK
6
CONTINUOUS
10
107.103
20
-124.06
11
106.739
21
-124.146
0
LINE
8
BLACK
6
CONTINUOUS
10
106.739
20
-124.146
11
106.369
21
-124.198
0
LINE
8
BLACK
6
CONTINUOUS
10
106.369
20
-124.198
11
105.995
21
-124.215
0
LINE
8
BLACK
6
CONTINUOUS
10
105.995
20
-124.215
11
105.995
21
-124.215
0
LINE
8
BLACK
6
CONTINUOUS
10
105.995
20
-124.215
11
31.995
21
-124.215
0
LINE
8
BLACK
6
CONTINUOUS
10
31.995
20
-124.215
11
31.6213
21
-124.198
0
LINE
8
BLACK
6
CONTINUOUS
10
31.6213
20
-124.198
11
31.2508
21
-124.146
0
LINE
8
BLACK
6
CONTINUOUS
10
31.2508
20
-124.146
11
30.8867
21
-124.06
0
LINE
8
BLACK
6
CONTINUOUS
10
30.8867
20
-124.06
11
30.532
21
-123.942
0
LINE
8
BLACK
6
CONTINUOUS
10
30.532
20
-123.942
11
30.1898
21
-123.79
0
LINE
8
BLACK
6
CONTINUOUS
10
30.1898
20
-123.79
11
29.8629
21
-123.608
0
LINE
8
BLACK
6
CONTINUOUS
10
29.8629
20
-123.608
11
29.5543
21
-123.397
0
LINE
8
BLACK
6
CONTINUOUS
10
29.5543
20
-123.397
11
29.2665
21
-123.158
0
LINE
8
BLACK
6
CONTINUOUS
10
29.2665
20
-123.158
11
29.002
21
-122.893
0
LINE
8
BLACK
6
CONTINUOUS
10
29.002
20
-122.893
11
28.763
21
-122.606
0
LINE
8
BLACK
6
CONTINUOUS
10
28.763
20
-122.606
11
28.5516
21
-122.297
0
LINE
8
BLACK
6
CONTINUOUS
10
28.5516
20
-122.297
11
28.3696
21
-121.97
0
LINE
8
BLACK
6
CONTINUOUS
10
28.3696
20
-121.97
11
28.2185
21
-121.628
0
LINE
8
BLACK
6
CONTINUOUS
10
28.2185
20
-121.628
11
28.0996
21
-121.273
0
LINE
8
BLACK
6
CONTINUOUS
10
28.0996
20
-121.273
11
28.014
21
-120.909
0
LINE
8
BLACK
6
CONTINUOUS
10
28.014
20
-120.909
11
27.9623
21
-120.539
0
LINE
8
BLACK
6
CONTINUOUS
10
27.9623
20
-120.539
11
27.945
21
-120.165
0
LINE
8
BLACK
6
CONTINUOUS
10
27.945
20
-120.165
11
27.945
21
-29.165
0
LINE
8
BLACK
6
CONTINUOUS
10
27.945
20
-29.165
11
27.9623
21
-28.7913
0
LINE
8
BLACK
6
CONTINUOUS
10
27.9623
20
-28.7913
11
28.014
21
-28.4208
0
LINE
8
BLACK
6
CONTINUOUS
10
28.014
20
-28.4208
11
28.0996
21
-28.0567
0
LINE
8
BLACK
6
CONTINUOUS
10
28.0996
20
-28.0567
11
28.2185
21
-27.702
0
LINE
8
BLACK
6
CONTINUOUS
10
28.2185
20
-27.702
11
28.3696
21
-27.3598
0
LINE
8
BLACK
6
CONTINUOUS
10
28.3696
20
-27.3598
11
28.5516
21
-27.0329
0
LINE
8
BLACK
6
CONTINUOUS
10
28.5516
20
-27.0329
11
28.763
21
-26.7243
0
LINE
8
BLACK
6
CONTINUOUS
10
28.763
20
-26.7243
11
29.002
21
-26.4365
0
LINE
8
BLACK
6
CONTINUOUS
10
29.002
20
-26.4365
11
29.2665
21
-26.172
0
LINE
8
BLACK
6
CONTINUOUS
10
29.2665
20
-26.172
11
29.5543
21
-25.933
0
LINE
8
BLACK
6
CONTINUOUS
10
29.5543
20
-25.933
11
29.8629
21
-25.7216
0
LINE
8
BLACK
6
CONTINUOUS
10
29.8629
20
-25.7216
11
30.1898
21
-25.5396
0
LINE
8
BLACK
6
CONTINUOUS
10
30.1898
20
-25.5396
11
30.532
21
-25.3885
0
LINE
8
BLACK
6
CONTINUOUS
10
30.532
20
-25.3885
11
30.8867
21
-25.2696
0
LINE
8
BLACK
6
CONTINUOUS
10
30.8867
20
-25.2696
11
31.2508
21
-25.184
0
LINE
8
BLACK
6
CONTINUOUS
10
31.2508
20
-25.184
11
31.6213
21
-25.1323
0
LINE
8
BLACK
6
CONTINUOUS
10
31.6213
20
-25.1323
11
31.995
21
-25.115
0
LINE
8
BLACK
6
CONTINUOUS
10
31.995
20
-25.115
11
31.995
21
-25.115
0
LINE
8
BLACK
6
CONTINUOUS
10
31.995
20
-25.115
11
57.495
21
-25.115
0
LINE
8
BLACK
6
CONTINUOUS
10
57.495
20
-25.115
11
57.5304
21
-25.1296
0
LINE
8
BLACK
6
CONTINUOUS
10
57.5304
20
-25.1296
11
57.545
21
-25.165
0
LINE
8
BLACK
6
CONTINUOUS
10
75.045
20
-28.365
11
75.029
21
-28.5473
0
LINE
8
BLACK
6
CONTINUOUS
10
75.029
20
-28.5473
11
74.9817
21
-28.7241
0
LINE
8
BLACK
6
CONTINUOUS
10
74.9817
20
-28.7241
11
74.9043
21
-28.89
0
LINE
8
BLACK
6
CONTINUOUS
10
74.9043
20
-28.89
11
74.7993
21
-29.0399
0
LINE
8
BLACK
6
CONTINUOUS
10
74.7993
20
-29.0399
11
74.6699
21
-29.1693
0
LINE
8
BLACK
6
CONTINUOUS
10
74.6699
20
-29.1693
11
74.52
21
-29.2743
0
LINE
8
BLACK
6
CONTINUOUS
10
74.52
20
-29.2743
11
74.3541
21
-29.3517
0
LINE
8
BLACK
6
CONTINUOUS
10
74.3541
20
-29.3517
11
74.1773
21
-29.399
0
LINE
8
BLACK
6
CONTINUOUS
10
74.1773
20
-29.399
11
73.995
21
-29.415
0
LINE
8
BLACK
6
CONTINUOUS
10
73.995
20
-29.415
11
73.995
21
-29.415
0
LINE
8
BLACK
6
CONTINUOUS
10
73.995
20
-29.415
11
58.495
21
-29.415
0
LINE
8
BLACK
6
CONTINUOUS
10
58.495
20
-29.415
11
58.3127
21
-29.399
0
LINE
8
BLACK
6
CONTINUOUS
10
58.3127
20
-29.399
11
58.1359
21
-29.3517
0
LINE
8
BLACK
6
CONTINUOUS
10
58.1359
20
-29.3517
11
57.97
21
-29.2743
0
LINE
8
BLACK
6
CONTINUOUS
10
57.97
20
-29.2743
11
57.8201
21
-29.1693
0
LINE
8
BLACK
6
CONTINUOUS
10
57.8201
20
-29.1693
11
57.6907
21
-29.0399
0
LINE
8
BLACK
6
CONTINUOUS
10
57.6907
20
-29.0399
11
57.5857
21
-28.89
0
LINE
8
BLACK
6
CONTINUOUS
10
57.5857
20
-28.89
11
57.5083
21
-28.7241
0
LINE
8
BLACK
6
CONTINUOUS
10
57.5083
20
-28.7241
11
57.461
21
-28.5473
0
LINE
8
BLACK
6
CONTINUOUS
10
57.461
20
-28.5473
11
57.445
21
-28.365
0
LINE
8
BLACK
6
CONTINUOUS
10
57.445
20
-28.365
11
57.445
21
-25.215
0
LINE
8
BLACK
6
CONTINUOUS
10
57.445
20
-25.215
11
31.995
21
-25.215
0
LINE
8
BLACK
6
CONTINUOUS
10
31.995
20
-25.215
11
31.9858
21
-25.2112
0
LINE
8
BLACK
6
CONTINUOUS
10
31.9858
20
-25.2112
11
31.6301
21
-25.2276
0
LINE
8
BLACK
6
CONTINUOUS
10
31.6301
20
-25.2276
11
31.2684
21
-25.2781
0
LINE
8
BLACK
6
CONTINUOUS
10
31.2684
20
-25.2781
11
30.9129
21
-25.3617
0
LINE
8
BLACK
6
CONTINUOUS
10
30.9129
20
-25.3617
11
30.5666
21
-25.4778
0
LINE
8
BLACK
6
CONTINUOUS
10
30.5666
20
-25.4778
11
30.2325
21
-25.6253
0
LINE
8
BLACK
6
CONTINUOUS
10
30.2325
20
-25.6253
11
29.9134
21
-25.8031
0
LINE
8
BLACK
6
CONTINUOUS
10
29.9134
20
-25.8031
11
29.612
21
-26.0095
0
LINE
8
BLACK
6
CONTINUOUS
10
29.612
20
-26.0095
11
29.3311
21
-26.2428
0
LINE
8
BLACK
6
CONTINUOUS
10
29.3311
20
-26.2428
11
29.0728
21
-26.5011
0
LINE
8
BLACK
6
CONTINUOUS
10
29.0728
20
-26.5011
11
28.8395
21
-26.7821
0
LINE
8
BLACK
6
CONTINUOUS
10
28.8395
20
-26.7821
11
28.6331
21
-27.0834
0
LINE
8
BLACK
6
CONTINUOUS
10
28.6331
20
-27.0834
11
28.4553
21
-27.4025
0
LINE
8
BLACK
6
CONTINUOUS
10
28.4553
20
-27.4025
11
28.3078
21
-27.7366
0
LINE
8
BLACK
6
CONTINUOUS
10
28.3078
20
-27.7366
11
28.1917
21
-28.0829
0
LINE
8
BLACK
6
CONTINUOUS
10
28.1917
20
-28.0829
11
28.1081
21
-28.4384
0
LINE
8
BLACK
6
CONTINUOUS
10
28.1081
20
-28.4384
11
28.0576
21
-28.8002
0
LINE
8
BLACK
6
CONTINUOUS
10
28.0576
20
-28.8002
11
28.0412
21
-29.1558
0
LINE
8
BLACK
6
CONTINUOUS
10
28.0412
20
-29.1558
11
28.045
21
-29.165
0
LINE
8
BLACK
6
CONTINUOUS
10
28.045
20
-29.165
11
28.045
21
-120.165
0
LINE
8
BLACK
6
CONTINUOUS
10
28.045
20
-120.165
11
28.0412
21
-120.174
0
LINE
8
BLACK
6
CONTINUOUS
10
28.0412
20
-120.174
11
28.0576
21
-120.53
0
LINE
8
BLACK
6
CONTINUOUS
10
28.0576
20
-120.53
11
28.1081
21
-120.892
0
LINE
8
BLACK
6
CONTINUOUS
10
28.1081
20
-120.892
11
28.1917
21
-121.247
0
LINE
8
BLACK
6
CONTINUOUS
10
28.1917
20
-121.247
11
28.3078
21
-121.593
0
LINE
8
BLACK
6
CONTINUOUS
10
28.3078
20
-121.593
11
28.4553
21
-121.928
0
LINE
8
BLACK
6
CONTINUOUS
10
28.4553
20
-121.928
11
28.6331
21
-122.247
0
LINE
8
BLACK
6
CONTINUOUS
10
28.6331
20
-122.247
11
28.8395
21
-122.548
0
LINE
8
BLACK
6
CONTINUOUS
10
28.8395
20
-122.548
11
29.0728
21
-122.829
0
LINE
8
BLACK
6
CONTINUOUS
10
29.0728
20
-122.829
11
29.3311
21
-123.087
0
LINE
8
BLACK
6
CONTINUOUS
10
29.3311
20
-123.087
11
29.612
21
-123.321
0
LINE
8
BLACK
6
CONTINUOUS
10
29.612
20
-123.321
11
29.9134
21
-123.527
0
LINE
8
BLACK
6
CONTINUOUS
10
29.9134
20
-123.527
11
30.2325
21
-123.705
0
LINE
8
BLACK
6
CONTINUOUS
10
30.2325
20
-123.705
11
30.5666
21
-123.852
0
LINE
8
BLACK
6
CONTINUOUS
10
30.5666
20
-123.852
11
30.9129
21
-123.968
0
LINE
8
BLACK
6
CONTINUOUS
10
30.9129
20
-123.968
11
31.2684
21
-124.052
0
LINE
8
BLACK
6
CONTINUOUS
10
31.2684
20
-124.052
11
31.6301
21
-124.102
0
LINE
8
BLACK
6
CONTINUOUS
10
31.6301
20
-124.102
11
31.9858
21
-124.119
0
LINE
8
BLACK
6
CONTINUOUS
10
31.9858
20
-124.119
11
31.995
21
-124.115
0
LINE
8
BLACK
6
CONTINUOUS
10
31.995
20
-124.115
11
105.995
21
-124.115
0
LINE
8
BLACK
6
CONTINUOUS
10
105.995
20
-124.115
11
106.004
21
-124.119
0
LINE
8
BLACK
6
CONTINUOUS
10
106.004
20
-124.119
11
106.36
21
-124.102
0
LINE
8
BLACK
6
CONTINUOUS
10
106.36
20
-124.102
11
106.722
21
-124.052
0
LINE
8
BLACK
6
CONTINUOUS
10
106.722
20
-124.052
11
107.077
21
-123.968
0
LINE
8
BLACK
6
CONTINUOUS
10
107.077
20
-123.968
11
107.423
21
-123.852
0
LINE
8
BLACK
6
CONTINUOUS
10
107.423
20
-123.852
11
107.758
21
-123.705
0
LINE
8
BLACK
6
CONTINUOUS
10
107.758
20
-123.705
11
108.077
21
-123.527
0
LINE
8
BLACK
6
CONTINUOUS
10
108.077
20
-123.527
11
108.378
21
-123.321
0
LINE
8
BLACK
6
CONTINUOUS
10
108.378
20
-123.321
11
108.659
21
-123.087
0
LINE
8
BLACK
6
CONTINUOUS
10
108.659
20
-123.087
11
108.917
21
-122.829
0
LINE
8
BLACK
6
CONTINUOUS
10
108.917
20
-122.829
11
109.151
21
-122.548
0
LINE
8
BLACK
6
CONTINUOUS
10
109.151
20
-122.548
11
109.357
21
-122.247
0
LINE
8
BLACK
6
CONTINUOUS
10
109.357
20
-122.247
11
109.535
21
-121.928
0
LINE
8
BLACK
6
CONTINUOUS
10
109.535
20
-121.928
11
109.682
21
-121.593
0
LINE
8
BLACK
6
CONTINUOUS
10
109.682
20
-121.593
11
109.798
21
-121.247
0
LINE
8
BLACK
6
CONTINUOUS
10
109.798
20
-121.247
11
109.882
21
-120.892
0
LINE
8
BLACK
6
CONTINUOUS
10
109.882
20
-120.892
11
109.932
21
-120.53
0
LINE
8
BLACK
6
CONTINUOUS
10
109.932
20
-120.53
11
109.949
21
-120.174
0
LINE
8
BLACK
6
CONTINUOUS
10
109.949
20
-120.174
11
109.945
21
-120.165
0
LINE
8
BLACK
6
CONTINUOUS
10
109.945
20
-120.165
11
109.945
21
-29.165
0
LINE
8
BLACK
6
CONTINUOUS
10
109.945
20
-29.165
11
109.949
21
-29.1558
0
LINE
8
BLACK
6
CONTINUOUS
10
109.949
20
-29.1558
11
109.932
21
-28.8002
0
LINE
8
BLACK
6
CONTINUOUS
10
109.932
20
-28.8002
11
109.882
21
-28.4384
0
LINE
8
BLACK
6
CONTINUOUS
10
109.882
20
-28.4384
11
109.798
21
-28.0829
0
LINE
8
BLACK
6
CONTINUOUS
10
109.798
20
-28.0829
11
109.682
21
-27.7366
0
LINE
8
BLACK
6
CONTINUOUS
10
109.682
20
-27.7366
11
109.535
21
-27.4025
0
LINE
8
BLACK
6
CONTINUOUS
10
109.535
20
-27.4025
11
109.357
21
-27.0834
0
LINE
8
BLACK
6
CONTINUOUS
10
109.357
20
-27.0834
11
109.151
21
-26.7821
0
LINE
8
BLACK
6
CONTINUOUS
10
109.151
20
-26.7821
11
108.917
21
-26.5011
0
LINE
8
BLACK
6
CONTINUOUS
10
108.917
20
-26.5011
11
108.659
21
-26.2428
0
LINE
8
BLACK
6
CONTINUOUS
10
108.659
20
-26.2428
11
108.378
21
-26.0095
0
LINE
8
BLACK
6
CONTINUOUS
10
108.378
20
-26.0095
11
108.077
21
-25.8031
0
LINE
8
BLACK
6
CONTINUOUS
10
108.077
20
-25.8031
11
107.758
21
-25.6253
0
LINE
8
BLACK
6
CONTINUOUS
10
107.758
20
-25.6253
11
107.423
21
-25.4778
0
LINE
8
BLACK
6
CONTINUOUS
10
107.423
20
-25.4778
11
107.077
21
-25.3617
0
LINE
8
BLACK
6
CONTINUOUS
10
107.077
20
-25.3617
11
106.722
21
-25.2781
0
LINE
8
BLACK
6
CONTINUOUS
10
106.722
20
-25.2781
11
106.36
21
-25.2277
0
LINE
8
BLACK
6
CONTINUOUS
10
106.36
20
-25.2277
11
106.004
21
-25.2112
0
LINE
8
BLACK
6
CONTINUOUS
10
106.004
20
-25.2112
11
105.995
21
-25.215
0
LINE
8
BLACK
6
CONTINUOUS
10
105.995
20
-25.215
11
75.045
21
-25.215
0
LINE
8
BLACK
6
CONTINUOUS
10
75.045
20
-25.215
11
75.045
21
-28.365
0
LINE
8
BLACK
6
CONTINUOUS
10
105.045
20
-31.065
11
105.045
21
-115.565
0
LINE
8
BLACK
6
CONTINUOUS
10
105.045
20
-115.565
11
105.03
21
-115.6
0
LINE
8
BLACK
6
CONTINUOUS
10
105.03
20
-115.6
11
104.995
21
-115.615
0
LINE
8
BLACK
6
CONTINUOUS
10
104.995
20
-115.615
11
103.645
21
-115.615
0
LINE
8
BLACK
6
CONTINUOUS
10
103.645
20
-115.615
11
103.645
21
-121.765
0
LINE
8
BLACK
6
CONTINUOUS
10
103.645
20
-121.765
11
103.63
21
-121.8
0
LINE
8
BLACK
6
CONTINUOUS
10
103.63
20
-121.8
11
103.595
21
-121.815
0
LINE
8
BLACK
6
CONTINUOUS
10
103.595
20
-121.815
11
34.595
21
-121.815
0
LINE
8
BLACK
6
CONTINUOUS
10
34.595
20
-121.815
11
34.5596
21
-121.8
0
LINE
8
BLACK
6
CONTINUOUS
10
34.5596
20
-121.8
11
34.545
21
-121.765
0
LINE
8
BLACK
6
CONTINUOUS
10
34.545
20
-121.765
11
34.545
21
-117.315
0
LINE
8
BLACK
6
CONTINUOUS
10
34.545
20
-117.315
11
33.195
21
-117.315
0
LINE
8
BLACK
6
CONTINUOUS
10
33.195
20
-117.315
11
33.1596
21
-117.3
0
LINE
8
BLACK
6
CONTINUOUS
10
33.1596
20
-117.3
11
33.145
21
-117.265
0
LINE
8
BLACK
6
CONTINUOUS
10
33.145
20
-117.265
11
33.145
21
-31.065
0
LINE
8
BLACK
6
CONTINUOUS
10
33.145
20
-31.065
11
33.1596
21
-31.0296
0
LINE
8
BLACK
6
CONTINUOUS
10
33.1596
20
-31.0296
11
33.195
21
-31.015
0
LINE
8
BLACK
6
CONTINUOUS
10
33.195
20
-31.015
11
44.945
21
-31.015
0
LINE
8
BLACK
6
CONTINUOUS
10
44.945
20
-31.015
11
44.945
21
-30.165
0
LINE
8
BLACK
6
CONTINUOUS
10
44.945
20
-30.165
11
44.9596
21
-30.1296
0
LINE
8
BLACK
6
CONTINUOUS
10
44.9596
20
-30.1296
11
44.995
21
-30.115
0
LINE
8
BLACK
6
CONTINUOUS
10
44.995
20
-30.115
11
54.995
21
-30.115
0
LINE
8
BLACK
6
CONTINUOUS
10
54.995
20
-30.115
11
55.0304
21
-30.1296
0
LINE
8
BLACK
6
CONTINUOUS
10
55.0304
20
-30.1296
11
55.045
21
-30.165
0
LINE
8
BLACK
6
CONTINUOUS
10
55.045
20
-30.165
11
55.045
21
-31.015
0
LINE
8
BLACK
6
CONTINUOUS
10
55.045
20
-31.015
11
104.995
21
-31.015
0
LINE
8
BLACK
6
CONTINUOUS
10
104.995
20
-31.015
11
105.03
21
-31.0296
0
LINE
8
BLACK
6
CONTINUOUS
10
105.03
20
-31.0296
11
105.045
21
-31.065
0
LINE
8
BLACK
6
CONTINUOUS
10
33.245
20
-117.215
11
34.595
21
-117.215
0
LINE
8
BLACK
6
CONTINUOUS
10
34.595
20
-117.215
11
34.6304
21
-117.23
0
LINE
8
BLACK
6
CONTINUOUS
10
34.6304
20
-117.23
11
34.645
21
-117.265
0
LINE
8
BLACK
6
CONTINUOUS
10
34.645
20
-117.265
11
34.645
21
-121.715
0
LINE
8
BLACK
6
CONTINUOUS
10
34.645
20
-121.715
11
103.545
21
-121.715
0
LINE
8
BLACK
6
CONTINUOUS
10
103.545
20
-121.715
11
103.545
21
-115.565
0
LINE
8
BLACK
6
CONTINUOUS
10
103.545
20
-115.565
11
103.56
21
-115.53
0
LINE
8
BLACK
6
CONTINUOUS
10
103.56
20
-115.53
11
103.595
21
-115.515
0
LINE
8
BLACK
6
CONTINUOUS
10
103.595
20
-115.515
11
104.945
21
-115.515
0
LINE
8
BLACK
6
CONTINUOUS
10
104.945
20
-115.515
11
104.945
21
-31.115
0
LINE
8
BLACK
6
CONTINUOUS
10
104.945
20
-31.115
11
54.995
21
-31.115
0
LINE
8
BLACK
6
CONTINUOUS
10
54.995
20
-31.115
11
54.9596
21
-31.1004
0
LINE
8
BLACK
6
CONTINUOUS
10
54.9596
20
-31.1004
11
54.945
21
-31.065
0
LINE
8
BLACK
6
CONTINUOUS
10
54.945
20
-31.065
11
54.945
21
-30.215
0
LINE
8
BLACK
6
CONTINUOUS
10
54.945
20
-30.215
11
45.045
21
-30.215
0
LINE
8
BLACK
6
CONTINUOUS
10
45.045
20
-30.215
11
45.045
21
-31.065
0
LINE
8
BLACK
6
CONTINUOUS
10
45.045
20
-31.065
11
45.0304
21
-31.1004
0
LINE
8
BLACK
6
CONTINUOUS
10
45.0304
20
-31.1004
11
44.995
21
-31.115
0
LINE
8
BLACK
6
CONTINUOUS
10
44.995
20
-31.115
11
33.245
21
-31.115
0
LINE
8
BLACK
6
CONTINUOUS
10
33.245
20
-31.115
11
33.245
21
-117.215
0
LINE
8
BLACK
6
CONTINUOUS
10
30.8204
20
-118.737
11
30.9125
21
-118.54
0
LINE
8
BLACK
6
CONTINUOUS
10
30.9125
20
-118.54
11
31.0374
21
-118.362
0
LINE
8
BLACK
6
CONTINUOUS
10
31.0374
20
-118.362
11
31.1915
21
-118.207
0
LINE
8
BLACK
6
CONTINUOUS
10
31.1915
20
-118.207
11
31.37
21
-118.082
0
LINE
8
BLACK
6
CONTINUOUS
10
31.37
20
-118.082
11
31.5675
21
-117.99
0
LINE
8
BLACK
6
CONTINUOUS
10
31.5675
20
-117.99
11
31.7779
21
-117.934
0
LINE
8
BLACK
6
CONTINUOUS
10
31.7779
20
-117.934
11
31.995
21
-117.915
0
LINE
8
BLACK
6
CONTINUOUS
10
31.995
20
-117.915
11
32.2121
21
-117.934
0
LINE
8
BLACK
6
CONTINUOUS
10
32.2121
20
-117.934
11
32.4225
21
-117.99
0
LINE
8
BLACK
6
CONTINUOUS
10
32.4225
20
-117.99
11
32.62
21
-118.082
0
LINE
8
BLACK
6
CONTINUOUS
10
32.62
20
-118.082
11
32.7985
21
-118.207
0
LINE
8
BLACK
6
CONTINUOUS
10
32.7985
20
-118.207
11
32.9526
21
-118.362
0
LINE
8
BLACK
6
CONTINUOUS
10
32.9526
20
-118.362
11
33.0775
21
-118.54
0
LINE
8
BLACK
6
CONTINUOUS
10
33.0775
20
-118.54
11
33.1696
21
-118.737
0
LINE
8
BLACK
6
CONTINUOUS
10
33.1696
20
-118.737
11
33.226
21
-118.948
0
LINE
8
BLACK
6
CONTINUOUS
10
33.226
20
-118.948
11
33.245
21
-119.165
0
LINE
8
BLACK
6
CONTINUOUS
10
33.245
20
-119.165
11
33.226
21
-119.382
0
LINE
8
BLACK
6
CONTINUOUS
10
33.226
20
-119.382
11
33.1696
21
-119.593
0
LINE
8
BLACK
6
CONTINUOUS
10
33.1696
20
-119.593
11
33.0775
21
-119.79
0
LINE
8
BLACK
6
CONTINUOUS
10
33.0775
20
-119.79
11
32.9526
21
-119.968
0
LINE
8
BLACK
6
CONTINUOUS
10
32.9526
20
-119.968
11
32.7985
21
-120.123
0
LINE
8
BLACK
6
CONTINUOUS
10
32.7985
20
-120.123
11
32.62
21
-120.248
0
LINE
8
BLACK
6
CONTINUOUS
10
32.62
20
-120.248
11
32.4225
21
-120.34
0
LINE
8
BLACK
6
CONTINUOUS
10
32.4225
20
-120.34
11
32.2121
21
-120.396
0
LINE
8
BLACK
6
CONTINUOUS
10
32.2121
20
-120.396
11
31.995
21
-120.415
0
LINE
8
BLACK
6
CONTINUOUS
10
31.995
20
-120.415
11
31.7779
21
-120.396
0
LINE
8
BLACK
6
CONTINUOUS
10
31.7779
20
-120.396
11
31.5675
21
-120.34
0
LINE
8
BLACK
6
CONTINUOUS
10
31.5675
20
-120.34
11
31.37
21
-120.248
0
LINE
8
BLACK
6
CONTINUOUS
10
31.37
20
-120.248
11
31.1915
21
-120.123
0
LINE
8
BLACK
6
CONTINUOUS
10
31.1915
20
-120.123
11
31.0374
21
-119.968
0
LINE
8
BLACK
6
CONTINUOUS
10
31.0374
20
-119.968
11
30.9125
21
-119.79
0
LINE
8
BLACK
6
CONTINUOUS
10
30.9125
20
-119.79
11
30.8204
21
-119.593
0
LINE
8
BLACK
6
CONTINUOUS
10
30.8204
20
-119.593
11
30.764
21
-119.382
0
LINE
8
BLACK
6
CONTINUOUS
10
30.764
20
-119.382
11
30.745
21
-119.165
0
LINE
8
BLACK
6
CONTINUOUS
10
30.745
20
-119.165
11
30.7476
21
-119.135
0
LINE
8
BLACK
6
CONTINUOUS
10
30.7476
20
-119.135
11
30.764
21
-118.948
0
LINE
8
BLACK
6
CONTINUOUS
10
30.764
20
-118.948
11
30.8204
21
-118.737
0
LINE
8
BLACK
6
CONTINUOUS
10
30.9063
20
-119.551
11
30.9948
21
-119.742
0
LINE
8
BLACK
6
CONTINUOUS
10
30.9948
20
-119.742
11
31.1168
21
-119.915
0
LINE
8
BLACK
6
CONTINUOUS
10
31.1168
20
-119.915
11
31.2682
21
-120.063
0
LINE
8
BLACK
6
CONTINUOUS
10
31.2682
20
-120.063
11
31.4439
21
-120.18
0
LINE
8
BLACK
6
CONTINUOUS
10
31.4439
20
-120.18
11
31.6381
21
-120.263
0
LINE
8
BLACK
6
CONTINUOUS
10
31.6381
20
-120.263
11
31.8443
21
-120.31
0
LINE
8
BLACK
6
CONTINUOUS
10
31.8443
20
-120.31
11
32.0554
21
-120.318
0
LINE
8
BLACK
6
CONTINUOUS
10
32.0554
20
-120.318
11
32.2646
21
-120.288
0
LINE
8
BLACK
6
CONTINUOUS
10
32.2646
20
-120.288
11
32.4647
21
-120.22
0
LINE
8
BLACK
6
CONTINUOUS
10
32.4647
20
-120.22
11
32.6492
21
-120.117
0
LINE
8
BLACK
6
CONTINUOUS
10
32.6492
20
-120.117
11
32.8117
21
-119.982
0
LINE
8
BLACK
6
CONTINUOUS
10
32.8117
20
-119.982
11
32.9468
21
-119.819
0
LINE
8
BLACK
6
CONTINUOUS
10
32.9468
20
-119.819
11
33.0501
21
-119.635
0
LINE
8
BLACK
6
CONTINUOUS
10
33.0501
20
-119.635
11
33.118
21
-119.435
0
LINE
8
BLACK
6
CONTINUOUS
10
33.118
20
-119.435
11
33.1483
21
-119.225
0
LINE
8
BLACK
6
CONTINUOUS
10
33.1483
20
-119.225
11
33.1499
21
-119.165
0
LINE
8
BLACK
6
CONTINUOUS
10
33.1499
20
-119.165
11
33.1306
21
-118.955
0
LINE
8
BLACK
6
CONTINUOUS
10
33.1306
20
-118.955
11
33.0732
21
-118.751
0
LINE
8
BLACK
6
CONTINUOUS
10
33.0732
20
-118.751
11
32.9797
21
-118.562
0
LINE
8
BLACK
6
CONTINUOUS
10
32.9797
20
-118.562
11
32.8533
21
-118.392
0
LINE
8
BLACK
6
CONTINUOUS
10
32.8533
20
-118.392
11
32.6981
21
-118.249
0
LINE
8
BLACK
6
CONTINUOUS
10
32.6981
20
-118.249
11
32.5193
21
-118.136
0
LINE
8
BLACK
6
CONTINUOUS
10
32.5193
20
-118.136
11
32.323
21
-118.058
0
LINE
8
BLACK
6
CONTINUOUS
10
32.323
20
-118.058
11
32.1157
21
-118.016
0
LINE
8
BLACK
6
CONTINUOUS
10
32.1157
20
-118.016
11
31.9044
21
-118.014
0
LINE
8
BLACK
6
CONTINUOUS
10
31.9044
20
-118.014
11
31.6961
21
-118.049
0
LINE
8
BLACK
6
CONTINUOUS
10
31.6961
20
-118.049
11
31.4978
21
-118.123
0
LINE
8
BLACK
6
CONTINUOUS
10
31.4978
20
-118.123
11
31.3161
21
-118.231
0
LINE
8
BLACK
6
CONTINUOUS
10
31.3161
20
-118.231
11
31.1572
21
-118.37
0
LINE
8
BLACK
6
CONTINUOUS
10
31.1572
20
-118.37
11
31.0264
21
-118.536
0
LINE
8
BLACK
6
CONTINUOUS
10
31.0264
20
-118.536
11
30.928
21
-118.723
0
LINE
8
BLACK
6
CONTINUOUS
10
30.928
20
-118.723
11
30.8653
21
-118.925
0
LINE
8
BLACK
6
CONTINUOUS
10
30.8653
20
-118.925
11
30.8405
21
-119.135
0
LINE
8
BLACK
6
CONTINUOUS
10
30.8405
20
-119.135
11
30.8543
21
-119.346
0
LINE
8
BLACK
6
CONTINUOUS
10
30.8543
20
-119.346
11
30.9063
21
-119.551
0
LINE
8
BLACK
6
CONTINUOUS
10
105.32
20
-118.737
11
105.412
21
-118.54
0
LINE
8
BLACK
6
CONTINUOUS
10
105.412
20
-118.54
11
105.537
21
-118.362
0
LINE
8
BLACK
6
CONTINUOUS
10
105.537
20
-118.362
11
105.692
21
-118.207
0
LINE
8
BLACK
6
CONTINUOUS
10
105.692
20
-118.207
11
105.87
21
-118.082
0
LINE
8
BLACK
6
CONTINUOUS
10
105.87
20
-118.082
11
106.067
21
-117.99
0
LINE
8
BLACK
6
CONTINUOUS
10
106.067
20
-117.99
11
106.278
21
-117.934
0
LINE
8
BLACK
6
CONTINUOUS
10
106.278
20
-117.934
11
106.495
21
-117.915
0
LINE
8
BLACK
6
CONTINUOUS
10
106.495
20
-117.915
11
106.712
21
-117.934
0
LINE
8
BLACK
6
CONTINUOUS
10
106.712
20
-117.934
11
106.923
21
-117.99
0
LINE
8
BLACK
6
CONTINUOUS
10
106.923
20
-117.99
11
107.12
21
-118.082
0
LINE
8
BLACK
6
CONTINUOUS
10
107.12
20
-118.082
11
107.298
21
-118.207
0
LINE
8
BLACK
6
CONTINUOUS
10
107.298
20
-118.207
11
107.453
21
-118.362
0
LINE
8
BLACK
6
CONTINUOUS
10
107.453
20
-118.362
11
107.578
21
-118.54
0
LINE
8
BLACK
6
CONTINUOUS
10
107.578
20
-118.54
11
107.67
21
-118.737
0
LINE
8
BLACK
6
CONTINUOUS
10
107.67
20
-118.737
11
107.726
21
-118.948
0
LINE
8
BLACK
6
CONTINUOUS
10
107.726
20
-118.948
11
107.745
21
-119.165
0
LINE
8
BLACK
6
CONTINUOUS
10
107.745
20
-119.165
11
107.726
21
-119.382
0
LINE
8
BLACK
6
CONTINUOUS
10
107.726
20
-119.382
11
107.67
21
-119.593
0
LINE
8
BLACK
6
CONTINUOUS
10
107.67
20
-119.593
11
107.578
21
-119.79
0
LINE
8
BLACK
6
CONTINUOUS
10
107.578
20
-119.79
11
107.453
21
-119.968
0
LINE
8
BLACK
6
CONTINUOUS
10
107.453
20
-119.968
11
107.298
21
-120.123
0
LINE
8
BLACK
6
CONTINUOUS
10
107.298
20
-120.123
11
107.12
21
-120.248
0
LINE
8
BLACK
6
CONTINUOUS
10
107.12
20
-120.248
11
106.923
21
-120.34
0
LINE
8
BLACK
6
CONTINUOUS
10
106.923
20
-120.34
11
106.712
21
-120.396
0
LINE
8
BLACK
6
CONTINUOUS
10
106.712
20
-120.396
11
106.495
21
-120.415
0
LINE
8
BLACK
6
CONTINUOUS
10
106.495
20
-120.415
11
106.278
21
-120.396
0
LINE
8
BLACK
6
CONTINUOUS
10
106.278
20
-120.396
11
106.067
21
-120.34
0
LINE
8
BLACK
6
CONTINUOUS
10
106.067
20
-120.34
11
105.87
21
-120.248
0
LINE
8
BLACK
6
CONTINUOUS
10
105.87
20
-120.248
11
105.692
21
-120.123
0
LINE
8
BLACK
6
CONTINUOUS
10
105.692
20
-120.123
11
105.537
21
-119.968
0
LINE
8
BLACK
6
CONTINUOUS
10
105.537
20
-119.968
11
105.412
21
-119.79
0
LINE
8
BLACK
6
CONTINUOUS
10
105.412
20
-119.79
11
105.32
21
-119.593
0
LINE
8
BLACK
6
CONTINUOUS
10
105.32
20
-119.593
11
105.264
21
-119.382
0
LINE
8
BLACK
6
CONTINUOUS
10
105.264
20
-119.382
11
105.245
21
-119.165
0
LINE
8
BLACK
6
CONTINUOUS
10
105.245
20
-119.165
11
105.248
21
-119.135
0
LINE
8
BLACK
6
CONTINUOUS
10
105.248
20
-119.135
11
105.264
21
-118.948
0
LINE
8
BLACK
6
CONTINUOUS
10
105.264
20
-118.948
11
105.32
21
-118.737
0
LINE
8
BLACK
6
CONTINUOUS
10
105.406
20
-119.551
11
105.495
21
-119.742
0
LINE
8
BLACK
6
CONTINUOUS
10
105.495
20
-119.742
11
105.617
21
-119.915
0
LINE
8
BLACK
6
CONTINUOUS
10
105.617
20
-119.915
11
105.768
21
-120.063
0
LINE
8
BLACK
6
CONTINUOUS
10
105.768
20
-120.063
11
105.944
21
-120.18
0
LINE
8
BLACK
6
CONTINUOUS
10
105.944
20
-120.18
11
106.138
21
-120.263
0
LINE
8
BLACK
6
CONTINUOUS
10
106.138
20
-120.263
11
106.344
21
-120.31
0
LINE
8
BLACK
6
CONTINUOUS
10
106.344
20
-120.31
11
106.555
21
-120.318
0
LINE
8
BLACK
6
CONTINUOUS
10
106.555
20
-120.318
11
106.765
21
-120.288
0
LINE
8
BLACK
6
CONTINUOUS
10
106.765
20
-120.288
11
106.965
21
-120.22
0
LINE
8
BLACK
6
CONTINUOUS
10
106.965
20
-120.22
11
107.149
21
-120.117
0
LINE
8
BLACK
6
CONTINUOUS
10
107.149
20
-120.117
11
107.312
21
-119.982
0
LINE
8
BLACK
6
CONTINUOUS
10
107.312
20
-119.982
11
107.447
21
-119.819
0
LINE
8
BLACK
6
CONTINUOUS
10
107.447
20
-119.819
11
107.55
21
-119.635
0
LINE
8
BLACK
6
CONTINUOUS
10
107.55
20
-119.635
11
107.618
21
-119.435
0
LINE
8
BLACK
6
CONTINUOUS
10
107.618
20
-119.435
11
107.648
21
-119.225
0
LINE
8
BLACK
6
CONTINUOUS
10
107.648
20
-119.225
11
107.65
21
-119.165
0
LINE
8
BLACK
6
CONTINUOUS
10
107.65
20
-119.165
11
107.631
21
-118.955
0
LINE
8
BLACK
6
CONTINUOUS
10
107.631
20
-118.955
11
107.573
21
-118.751
0
LINE
8
BLACK
6
CONTINUOUS
10
107.573
20
-118.751
11
107.48
21
-118.562
0
LINE
8
BLACK
6
CONTINUOUS
10
107.48
20
-118.562
11
107.353
21
-118.392
0
LINE
8
BLACK
6
CONTINUOUS
10
107.353
20
-118.392
11
107.198
21
-118.249
0
LINE
8
BLACK
6
CONTINUOUS
10
107.198
20
-118.249
11
107.019
21
-118.136
0
LINE
8
BLACK
6
CONTINUOUS
10
107.019
20
-118.136
11
106.823
21
-118.058
0
LINE
8
BLACK
6
CONTINUOUS
10
106.823
20
-118.058
11
106.616
21
-118.016
0
LINE
8
BLACK
6
CONTINUOUS
10
106.616
20
-118.016
11
106.404
21
-118.014
0
LINE
8
BLACK
6
CONTINUOUS
10
106.404
20
-118.014
11
106.196
21
-118.049
0
LINE
8
BLACK
6
CONTINUOUS
10
106.196
20
-118.049
11
105.998
21
-118.123
0
LINE
8
BLACK
6
CONTINUOUS
10
105.998
20
-118.123
11
105.816
21
-118.231
0
LINE
8
BLACK
6
CONTINUOUS
10
105.816
20
-118.231
11
105.657
21
-118.37
0
LINE
8
BLACK
6
CONTINUOUS
10
105.657
20
-118.37
11
105.526
21
-118.536
0
LINE
8
BLACK
6
CONTINUOUS
10
105.526
20
-118.536
11
105.428
21
-118.723
0
LINE
8
BLACK
6
CONTINUOUS
10
105.428
20
-118.723
11
105.365
21
-118.925
0
LINE
8
BLACK
6
CONTINUOUS
10
105.365
20
-118.925
11
105.34
21
-119.135
0
LINE
8
BLACK
6
CONTINUOUS
10
105.34
20
-119.135
11
105.354
21
-119.346
0
LINE
8
BLACK
6
CONTINUOUS
10
105.354
20
-119.346
11
105.406
21
-119.551
0
LINE
8
BLACK
6
CONTINUOUS
10
102.32
20
-28.3375
11
102.412
21
-28.14
0
LINE
8
BLACK
6
CONTINUOUS
10
102.412
20
-28.14
11
102.537
21
-27.9615
0
LINE
8
BLACK
6
CONTINUOUS
10
102.537
20
-27.9615
11
102.692
21
-27.8074
0
LINE
8
BLACK
6
CONTINUOUS
10
102.692
20
-27.8074
11
102.87
21
-27.6825
0
LINE
8
BLACK
6
CONTINUOUS
10
102.87
20
-27.6825
11
103.067
21
-27.5904
0
LINE
8
BLACK
6
CONTINUOUS
10
103.067
20
-27.5904
11
103.278
21
-27.534
0
LINE
8
BLACK
6
CONTINUOUS
10
103.278
20
-27.534
11
103.495
21
-27.515
0
LINE
8
BLACK
6
CONTINUOUS
10
103.495
20
-27.515
11
103.712
21
-27.534
0
LINE
8
BLACK
6
CONTINUOUS
10
103.712
20
-27.534
11
103.923
21
-27.5904
0
LINE
8
BLACK
6
CONTINUOUS
10
103.923
20
-27.5904
11
104.12
21
-27.6825
0
LINE
8
BLACK
6
CONTINUOUS
10
104.12
20
-27.6825
11
104.298
21
-27.8074
0
LINE
8
BLACK
6
CONTINUOUS
10
104.298
20
-27.8074
11
104.453
21
-27.9615
0
LINE
8
BLACK
6
CONTINUOUS
10
104.453
20
-27.9615
11
104.578
21
-28.14
0
LINE
8
BLACK
6
CONTINUOUS
10
104.578
20
-28.14
11
104.67
21
-28.3375
0
LINE
8
BLACK
6
CONTINUOUS
10
104.67
20
-28.3375
11
104.726
21
-28.5479
0
LINE
8
BLACK
6
CONTINUOUS
10
104.726
20
-28.5479
11
104.745
21
-28.765
0
LINE
8
BLACK
6
CONTINUOUS
10
104.745
20
-28.765
11
104.726
21
-28.9821
0
LINE
8
BLACK
6
CONTINUOUS
10
104.726
20
-28.9821
11
104.67
21
-29.1925
0
LINE
8
BLACK
6
CONTINUOUS
10
104.67
20
-29.1925
11
104.578
21
-29.39
0
LINE
8
BLACK
6
CONTINUOUS
10
104.578
20
-29.39
11
104.453
21
-29.5685
0
LINE
8
BLACK
6
CONTINUOUS
10
104.453
20
-29.5685
11
104.298
21
-29.7226
0
LINE
8
BLACK
6
CONTINUOUS
10
104.298
20
-29.7226
11
104.12
21
-29.8475
0
LINE
8
BLACK
6
CONTINUOUS
10
104.12
20
-29.8475
11
103.923
21
-29.9396
0
LINE
8
BLACK
6
CONTINUOUS
10
103.923
20
-29.9396
11
103.712
21
-29.996
0
LINE
8
BLACK
6
CONTINUOUS
10
103.712
20
-29.996
11
103.495
21
-30.015
0
LINE
8
BLACK
6
CONTINUOUS
10
103.495
20
-30.015
11
103.278
21
-29.996
0
LINE
8
BLACK
6
CONTINUOUS
10
103.278
20
-29.996
11
103.067
21
-29.9396
0
LINE
8
BLACK
6
CONTINUOUS
10
103.067
20
-29.9396
11
102.87
21
-29.8475
0
LINE
8
BLACK
6
CONTINUOUS
10
102.87
20
-29.8475
11
102.692
21
-29.7226
0
LINE
8
BLACK
6
CONTINUOUS
10
102.692
20
-29.7226
11
102.537
21
-29.5685
0
LINE
8
BLACK
6
CONTINUOUS
10
102.537
20
-29.5685
11
102.412
21
-29.39
0
LINE
8
BLACK
6
CONTINUOUS
10
102.412
20
-29.39
11
102.32
21
-29.1925
0
LINE
8
BLACK
6
CONTINUOUS
10
102.32
20
-29.1925
11
102.264
21
-28.9821
0
LINE
8
BLACK
6
CONTINUOUS
10
102.264
20
-28.9821
11
102.245
21
-28.765
0
LINE
8
BLACK
6
CONTINUOUS
10
102.245
20
-28.765
11
102.248
21
-28.7348
0
LINE
8
BLACK
6
CONTINUOUS
10
102.248
20
-28.7348
11
102.264
21
-28.5479
0
LINE
8
BLACK
6
CONTINUOUS
10
102.264
20
-28.5479
11
102.32
21
-28.3375
0
LINE
8
BLACK
6
CONTINUOUS
10
102.406
20
-29.1505
11
102.495
21
-29.3425
0
LINE
8
BLACK
6
CONTINUOUS
10
102.495
20
-29.3425
11
102.617
21
-29.5151
0
LINE
8
BLACK
6
CONTINUOUS
10
102.617
20
-29.5151
11
102.768
21
-29.6625
0
LINE
8
BLACK
6
CONTINUOUS
10
102.768
20
-29.6625
11
102.944
21
-29.78
0
LINE
8
BLACK
6
CONTINUOUS
10
102.944
20
-29.78
11
103.138
21
-29.8634
0
LINE
8
BLACK
6
CONTINUOUS
10
103.138
20
-29.8634
11
103.344
21
-29.91
0
LINE
8
BLACK
6
CONTINUOUS
10
103.344
20
-29.91
11
103.555
21
-29.9183
0
LINE
8
BLACK
6
CONTINUOUS
10
103.555
20
-29.9183
11
103.765
21
-29.888
0
LINE
8
BLACK
6
CONTINUOUS
10
103.765
20
-29.888
11
103.965
21
-29.8201
0
LINE
8
BLACK
6
CONTINUOUS
10
103.965
20
-29.8201
11
104.149
21
-29.7168
0
LINE
8
BLACK
6
CONTINUOUS
10
104.149
20
-29.7168
11
104.312
21
-29.5817
0
LINE
8
BLACK
6
CONTINUOUS
10
104.312
20
-29.5817
11
104.447
21
-29.4192
0
LINE
8
BLACK
6
CONTINUOUS
10
104.447
20
-29.4192
11
104.55
21
-29.2348
0
LINE
8
BLACK
6
CONTINUOUS
10
104.55
20
-29.2348
11
104.618
21
-29.0346
0
LINE
8
BLACK
6
CONTINUOUS
10
104.618
20
-29.0346
11
104.648
21
-28.8254
0
LINE
8
BLACK
6
CONTINUOUS
10
104.648
20
-28.8254
11
104.65
21
-28.765
0
LINE
8
BLACK
6
CONTINUOUS
10
104.65
20
-28.765
11
104.631
21
-28.5545
0
LINE
8
BLACK
6
CONTINUOUS
10
104.631
20
-28.5545
11
104.573
21
-28.3511
0
LINE
8
BLACK
6
CONTINUOUS
10
104.573
20
-28.3511
11
104.48
21
-28.1616
0
LINE
8
BLACK
6
CONTINUOUS
10
104.48
20
-28.1616
11
104.353
21
-27.9922
0
LINE
8
BLACK
6
CONTINUOUS
10
104.353
20
-27.9922
11
104.198
21
-27.8487
0
LINE
8
BLACK
6
CONTINUOUS
10
104.198
20
-27.8487
11
104.019
21
-27.736
0
LINE
8
BLACK
6
CONTINUOUS
10
104.019
20
-27.736
11
103.823
21
-27.6576
0
LINE
8
BLACK
6
CONTINUOUS
10
103.823
20
-27.6576
11
103.616
21
-27.6164
0
LINE
8
BLACK
6
CONTINUOUS
10
103.616
20
-27.6164
11
103.404
21
-27.6136
0
LINE
8
BLACK
6
CONTINUOUS
10
103.404
20
-27.6136
11
103.196
21
-27.6494
0
LINE
8
BLACK
6
CONTINUOUS
10
103.196
20
-27.6494
11
102.998
21
-27.7226
0
LINE
8
BLACK
6
CONTINUOUS
10
102.998
20
-27.7226
11
102.816
21
-27.8306
0
LINE
8
BLACK
6
CONTINUOUS
10
102.816
20
-27.8306
11
102.657
21
-27.97
0
LINE
8
BLACK
6
CONTINUOUS
10
102.657
20
-27.97
11
102.526
21
-28.136
0
LINE
8
BLACK
6
CONTINUOUS
10
102.526
20
-28.136
11
102.428
21
-28.323
0
LINE
8
BLACK
6
CONTINUOUS
10
102.428
20
-28.323
11
102.365
21
-28.5249
0
LINE
8
BLACK
6
CONTINUOUS
10
102.365
20
-28.5249
11
102.34
21
-28.7348
0
LINE
8
BLACK
6
CONTINUOUS
10
102.34
20
-28.7348
11
102.354
21
-28.9457
0
LINE
8
BLACK
6
CONTINUOUS
10
102.354
20
-28.9457
11
102.406
21
-29.1505
0
LINE
8
BLACK
6
CONTINUOUS
10
33.3204
20
-28.3375
11
33.4125
21
-28.14
0
LINE
8
BLACK
6
CONTINUOUS
10
33.4125
20
-28.14
11
33.5374
21
-27.9615
0
LINE
8
BLACK
6
CONTINUOUS
10
33.5374
20
-27.9615
11
33.6915
21
-27.8074
0
LINE
8
BLACK
6
CONTINUOUS
10
33.6915
20
-27.8074
11
33.87
21
-27.6825
0
LINE
8
BLACK
6
CONTINUOUS
10
33.87
20
-27.6825
11
34.0675
21
-27.5904
0
LINE
8
BLACK
6
CONTINUOUS
10
34.0675
20
-27.5904
11
34.2779
21
-27.534
0
LINE
8
BLACK
6
CONTINUOUS
10
34.2779
20
-27.534
11
34.495
21
-27.515
0
LINE
8
BLACK
6
CONTINUOUS
10
34.495
20
-27.515
11
34.7121
21
-27.534
0
LINE
8
BLACK
6
CONTINUOUS
10
34.7121
20
-27.534
11
34.9225
21
-27.5904
0
LINE
8
BLACK
6
CONTINUOUS
10
34.9225
20
-27.5904
11
35.12
21
-27.6825
0
LINE
8
BLACK
6
CONTINUOUS
10
35.12
20
-27.6825
11
35.2985
21
-27.8074
0
LINE
8
BLACK
6
CONTINUOUS
10
35.2985
20
-27.8074
11
35.4526
21
-27.9615
0
LINE
8
BLACK
6
CONTINUOUS
10
35.4526
20
-27.9615
11
35.5775
21
-28.14
0
LINE
8
BLACK
6
CONTINUOUS
10
35.5775
20
-28.14
11
35.6696
21
-28.3375
0
LINE
8
BLACK
6
CONTINUOUS
10
35.6696
20
-28.3375
11
35.726
21
-28.5479
0
LINE
8
BLACK
6
CONTINUOUS
10
35.726
20
-28.5479
11
35.745
21
-28.765
0
LINE
8
BLACK
6
CONTINUOUS
10
35.745
20
-28.765
11
35.726
21
-28.9821
0
LINE
8
BLACK
6
CONTINUOUS
10
35.726
20
-28.9821
11
35.6696
21
-29.1925
0
LINE
8
BLACK
6
CONTINUOUS
10
35.6696
20
-29.1925
11
35.5775
21
-29.39
0
LINE
8
BLACK
6
CONTINUOUS
10
35.5775
20
-29.39
11
35.4526
21
-29.5685
0
LINE
8
BLACK
6
CONTINUOUS
10
35.4526
20
-29.5685
11
35.2985
21
-29.7226
0
LINE
8
BLACK
6
CONTINUOUS
10
35.2985
20
-29.7226
11
35.12
21
-29.8475
0
LINE
8
BLACK
6
CONTINUOUS
10
35.12
20
-29.8475
11
34.9225
21
-29.9396
0
LINE
8
BLACK
6
CONTINUOUS
10
34.9225
20
-29.9396
11
34.7121
21
-29.996
0
LINE
8
BLACK
6
CONTINUOUS
10
34.7121
20
-29.996
11
34.495
21
-30.015
0
LINE
8
BLACK
6
CONTINUOUS
10
34.495
20
-30.015
11
34.2779
21
-29.996
0
LINE
8
BLACK
6
CONTINUOUS
10
34.2779
20
-29.996
11
34.0675
21
-29.9396
0
LINE
8
BLACK
6
CONTINUOUS
10
34.0675
20
-29.9396
11
33.87
21
-29.8475
0
LINE
8
BLACK
6
CONTINUOUS
10
33.87
20
-29.8475
11
33.6915
21
-29.7226
0
LINE
8
BLACK
6
CONTINUOUS
10
33.6915
20
-29.7226
11
33.5374
21
-29.5685
0
LINE
8
BLACK
6
CONTINUOUS
10
33.5374
20
-29.5685
11
33.4125
21
-29.39
0
LINE
8
BLACK
6
CONTINUOUS
10
33.4125
20
-29.39
11
33.3204
21
-29.1925
0
LINE
8
BLACK
6
CONTINUOUS
10
33.3204
20
-29.1925
11
33.264
21
-28.9821
0
LINE
8
BLACK
6
CONTINUOUS
10
33.264
20
-28.9821
11
33.245
21
-28.765
0
LINE
8
BLACK
6
CONTINUOUS
10
33.245
20
-28.765
11
33.2476
21
-28.7348
0
LINE
8
BLACK
6
CONTINUOUS
10
33.2476
20
-28.7348
11
33.264
21
-28.5479
0
LINE
8
BLACK
6
CONTINUOUS
10
33.264
20
-28.5479
11
33.3204
21
-28.3375
0
LINE
8
BLACK
6
CONTINUOUS
10
33.4063
20
-29.1505
11
33.4948
21
-29.3425
0
LINE
8
BLACK
6
CONTINUOUS
10
33.4948
20
-29.3425
11
33.6168
21
-29.5151
0
LINE
8
BLACK
6
CONTINUOUS
10
33.6168
20
-29.5151
11
33.7682
21
-29.6625
0
LINE
8
BLACK
6
CONTINUOUS
10
33.7682
20
-29.6625
11
33.9439
21
-29.78
0
LINE
8
BLACK
6
CONTINUOUS
10
33.9439
20
-29.78
11
34.1381
21
-29.8634
0
LINE
8
BLACK
6
CONTINUOUS
10
34.1381
20
-29.8634
11
34.3443
21
-29.91
0
LINE
8
BLACK
6
CONTINUOUS
10
34.3443
20
-29.91
11
34.5554
21
-29.9183
0
LINE
8
BLACK
6
CONTINUOUS
10
34.5554
20
-29.9183
11
34.7646
21
-29.888
0
LINE
8
BLACK
6
CONTINUOUS
10
34.7646
20
-29.888
11
34.9647
21
-29.8201
0
LINE
8
BLACK
6
CONTINUOUS
10
34.9647
20
-29.8201
11
35.1492
21
-29.7168
0
LINE
8
BLACK
6
CONTINUOUS
10
35.1492
20
-29.7168
11
35.3117
21
-29.5817
0
LINE
8
BLACK
6
CONTINUOUS
10
35.3117
20
-29.5817
11
35.4468
21
-29.4192
0
LINE
8
BLACK
6
CONTINUOUS
10
35.4468
20
-29.4192
11
35.5501
21
-29.2348
0
LINE
8
BLACK
6
CONTINUOUS
10
35.5501
20
-29.2348
11
35.618
21
-29.0346
0
LINE
8
BLACK
6
CONTINUOUS
10
35.618
20
-29.0346
11
35.6483
21
-28.8254
0
LINE
8
BLACK
6
CONTINUOUS
10
35.6483
20
-28.8254
11
35.6499
21
-28.765
0
LINE
8
BLACK
6
CONTINUOUS
10
35.6499
20
-28.765
11
35.6306
21
-28.5545
0
LINE
8
BLACK
6
CONTINUOUS
10
35.6306
20
-28.5545
11
35.5732
21
-28.3511
0
LINE
8
BLACK
6
CONTINUOUS
10
35.5732
20
-28.3511
11
35.4797
21
-28.1616
0
LINE
8
BLACK
6
CONTINUOUS
10
35.4797
20
-28.1616
11
35.3533
21
-27.9922
0
LINE
8
BLACK
6
CONTINUOUS
10
35.3533
20
-27.9922
11
35.1981
21
-27.8487
0
LINE
8
BLACK
6
CONTINUOUS
10
35.1981
20
-27.8487
11
35.0193
21
-27.736
0
LINE
8
BLACK
6
CONTINUOUS
10
35.0193
20
-27.736
11
34.823
21
-27.6576
0
LINE
8
BLACK
6
CONTINUOUS
10
34.823
20
-27.6576
11
34.6157
21
-27.6164
0
LINE
8
BLACK
6
CONTINUOUS
10
34.6157
20
-27.6164
11
34.4044
21
-27.6136
0
LINE
8
BLACK
6
CONTINUOUS
10
34.4044
20
-27.6136
11
34.1961
21
-27.6494
0
LINE
8
BLACK
6
CONTINUOUS
10
34.1961
20
-27.6494
11
33.9978
21
-27.7226
0
LINE
8
BLACK
6
CONTINUOUS
10
33.9978
20
-27.7226
11
33.8162
21
-27.8306
0
LINE
8
BLACK
6
CONTINUOUS
10
33.8162
20
-27.8306
11
33.6572
21
-27.97
0
LINE
8
BLACK
6
CONTINUOUS
10
33.6572
20
-27.97
11
33.5264
21
-28.136
0
LINE
8
BLACK
6
CONTINUOUS
10
33.5264
20
-28.136
11
33.428
21
-28.323
0
LINE
8
BLACK
6
CONTINUOUS
10
33.428
20
-28.323
11
33.3653
21
-28.5249
0
LINE
8
BLACK
6
CONTINUOUS
10
33.3653
20
-28.5249
11
33.3405
21
-28.7348
0
LINE
8
BLACK
6
CONTINUOUS
10
33.3405
20
-28.7348
11
33.3543
21
-28.9457
0
LINE
8
BLACK
6
CONTINUOUS
10
33.3543
20
-28.9457
11
33.4063
21
-29.1505
0
LINE
8
BLACK
6
CONTINUOUS
10
53.3679
20
-26.9967
11
53.4299
21
-26.8014
0
LINE
8
BLACK
6
CONTINUOUS
10
53.4299
20
-26.8014
11
53.5286
21
-26.6218
0
LINE
8
BLACK
6
CONTINUOUS
10
53.5286
20
-26.6218
11
53.6604
21
-26.4648
0
LINE
8
BLACK
6
CONTINUOUS
10
53.6604
20
-26.4648
11
53.8201
21
-26.3364
0
LINE
8
BLACK
6
CONTINUOUS
10
53.8201
20
-26.3364
11
54.0017
21
-26.2415
0
LINE
8
BLACK
6
CONTINUOUS
10
54.0017
20
-26.2415
11
54.1982
21
-26.1836
0
LINE
8
BLACK
6
CONTINUOUS
10
54.1982
20
-26.1836
11
54.4023
21
-26.165
0
LINE
8
BLACK
6
CONTINUOUS
10
54.4023
20
-26.165
11
54.6061
21
-26.1864
0
LINE
8
BLACK
6
CONTINUOUS
10
54.6061
20
-26.1864
11
54.8019
21
-26.247
0
LINE
8
BLACK
6
CONTINUOUS
10
54.8019
20
-26.247
11
54.9822
21
-26.3445
0
LINE
8
BLACK
6
CONTINUOUS
10
54.9822
20
-26.3445
11
55.14
21
-26.4751
0
LINE
8
BLACK
6
CONTINUOUS
10
55.14
20
-26.4751
11
55.2696
21
-26.6339
0
LINE
8
BLACK
6
CONTINUOUS
10
55.2696
20
-26.6339
11
55.3658
21
-26.8149
0
LINE
8
BLACK
6
CONTINUOUS
10
55.3658
20
-26.8149
11
55.425
21
-27.0111
0
LINE
8
BLACK
6
CONTINUOUS
10
55.425
20
-27.0111
11
55.445
21
-27.215
0
LINE
8
BLACK
6
CONTINUOUS
10
55.445
20
-27.215
11
55.4446
21
-27.2443
0
LINE
8
BLACK
6
CONTINUOUS
10
55.4446
20
-27.2443
11
55.4189
21
-27.4476
0
LINE
8
BLACK
6
CONTINUOUS
10
55.4189
20
-27.4476
11
55.3542
21
-27.6421
0
LINE
8
BLACK
6
CONTINUOUS
10
55.3542
20
-27.6421
11
55.253
21
-27.8203
0
LINE
8
BLACK
6
CONTINUOUS
10
55.253
20
-27.8203
11
55.1191
21
-27.9754
0
LINE
8
BLACK
6
CONTINUOUS
10
55.1191
20
-27.9754
11
54.9576
21
-28.1015
0
LINE
8
BLACK
6
CONTINUOUS
10
54.9576
20
-28.1015
11
54.7747
21
-28.1939
0
LINE
8
BLACK
6
CONTINUOUS
10
54.7747
20
-28.1939
11
54.5773
21
-28.249
0
LINE
8
BLACK
6
CONTINUOUS
10
54.5773
20
-28.249
11
54.373
21
-28.2648
0
LINE
8
BLACK
6
CONTINUOUS
10
54.373
20
-28.2648
11
54.1695
21
-28.2405
0
LINE
8
BLACK
6
CONTINUOUS
10
54.1695
20
-28.2405
11
53.9746
21
-28.1772
0
LINE
8
BLACK
6
CONTINUOUS
10
53.9746
20
-28.1772
11
53.7957
21
-28.0772
0
LINE
8
BLACK
6
CONTINUOUS
10
53.7957
20
-28.0772
11
53.6397
21
-27.9444
0
LINE
8
BLACK
6
CONTINUOUS
10
53.6397
20
-27.9444
11
53.5124
21
-27.7838
0
LINE
8
BLACK
6
CONTINUOUS
10
53.5124
20
-27.7838
11
53.4187
21
-27.6015
0
LINE
8
BLACK
6
CONTINUOUS
10
53.4187
20
-27.6015
11
53.3622
21
-27.4045
0
LINE
8
BLACK
6
CONTINUOUS
10
53.3622
20
-27.4045
11
53.3452
21
-27.2017
0
LINE
8
BLACK
6
CONTINUOUS
10
53.3452
20
-27.2017
11
53.3451
21
-27.2003
0
LINE
8
BLACK
6
CONTINUOUS
10
53.3451
20
-27.2003
11
53.3679
21
-26.9967
0
LINE
8
BLACK
6
CONTINUOUS
10
53.5074
20
-27.5664
11
53.5926
21
-27.7321
0
LINE
8
BLACK
6
CONTINUOUS
10
53.5926
20
-27.7321
11
53.7083
21
-27.8781
0
LINE
8
BLACK
6
CONTINUOUS
10
53.7083
20
-27.8781
11
53.8502
21
-27.9989
0
LINE
8
BLACK
6
CONTINUOUS
10
53.8502
20
-27.9989
11
54.0128
21
-28.0898
0
LINE
8
BLACK
6
CONTINUOUS
10
54.0128
20
-28.0898
11
54.19
21
-28.1473
0
LINE
8
BLACK
6
CONTINUOUS
10
54.19
20
-28.1473
11
54.375
21
-28.1694
0
LINE
8
BLACK
6
CONTINUOUS
10
54.375
20
-28.1694
11
54.5608
21
-28.1551
0
LINE
8
BLACK
6
CONTINUOUS
10
54.5608
20
-28.1551
11
54.7402
21
-28.105
0
LINE
8
BLACK
6
CONTINUOUS
10
54.7402
20
-28.105
11
54.9065
21
-28.021
0
LINE
8
BLACK
6
CONTINUOUS
10
54.9065
20
-28.021
11
55.0533
21
-27.9063
0
LINE
8
BLACK
6
CONTINUOUS
10
55.0533
20
-27.9063
11
55.175
21
-27.7653
0
LINE
8
BLACK
6
CONTINUOUS
10
55.175
20
-27.7653
11
55.2671
21
-27.6033
0
LINE
8
BLACK
6
CONTINUOUS
10
55.2671
20
-27.6033
11
55.3259
21
-27.4265
0
LINE
8
BLACK
6
CONTINUOUS
10
55.3259
20
-27.4265
11
55.3492
21
-27.2417
0
LINE
8
BLACK
6
CONTINUOUS
10
55.3492
20
-27.2417
11
55.3496
21
-27.215
0
LINE
8
BLACK
6
CONTINUOUS
10
55.3496
20
-27.215
11
55.3314
21
-27.0296
0
LINE
8
BLACK
6
CONTINUOUS
10
55.3314
20
-27.0296
11
55.2776
21
-26.8512
0
LINE
8
BLACK
6
CONTINUOUS
10
55.2776
20
-26.8512
11
55.1901
21
-26.6867
0
LINE
8
BLACK
6
CONTINUOUS
10
55.1901
20
-26.6867
11
55.0724
21
-26.5424
0
LINE
8
BLACK
6
CONTINUOUS
10
55.0724
20
-26.5424
11
54.9288
21
-26.4236
0
LINE
8
BLACK
6
CONTINUOUS
10
54.9288
20
-26.4236
11
54.7649
21
-26.335
0
LINE
8
BLACK
6
CONTINUOUS
10
54.7649
20
-26.335
11
54.5869
21
-26.2799
0
LINE
8
BLACK
6
CONTINUOUS
10
54.5869
20
-26.2799
11
54.4017
21
-26.2604
0
LINE
8
BLACK
6
CONTINUOUS
10
54.4017
20
-26.2604
11
54.2161
21
-26.2773
0
LINE
8
BLACK
6
CONTINUOUS
10
54.2161
20
-26.2773
11
54.0374
21
-26.3299
0
LINE
8
BLACK
6
CONTINUOUS
10
54.0374
20
-26.3299
11
53.8723
21
-26.4162
0
LINE
8
BLACK
6
CONTINUOUS
10
53.8723
20
-26.4162
11
53.7271
21
-26.533
0
LINE
8
BLACK
6
CONTINUOUS
10
53.7271
20
-26.533
11
53.6073
21
-26.6757
0
LINE
8
BLACK
6
CONTINUOUS
10
53.6073
20
-26.6757
11
53.5176
21
-26.8389
0
LINE
8
BLACK
6
CONTINUOUS
10
53.5176
20
-26.8389
11
53.4613
21
-27.0165
0
LINE
8
BLACK
6
CONTINUOUS
10
53.4613
20
-27.0165
11
53.4405
21
-27.2017
0
LINE
8
BLACK
6
CONTINUOUS
10
53.4405
20
-27.2017
11
53.4561
21
-27.3873
0
LINE
8
BLACK
6
CONTINUOUS
10
53.4561
20
-27.3873
11
53.5074
21
-27.5664
0
LINE
8
BLACK
6
CONTINUOUS
10
44.6679
20
-26.9967
11
44.7299
21
-26.8014
0
LINE
8
BLACK
6
CONTINUOUS
10
44.7299
20
-26.8014
11
44.8286
21
-26.6218
0
LINE
8
BLACK
6
CONTINUOUS
10
44.8286
20
-26.6218
11
44.9604
21
-26.4648
0
LINE
8
BLACK
6
CONTINUOUS
10
44.9604
20
-26.4648
11
45.1201
21
-26.3364
0
LINE
8
BLACK
6
CONTINUOUS
10
45.1201
20
-26.3364
11
45.3017
21
-26.2415
0
LINE
8
BLACK
6
CONTINUOUS
10
45.3017
20
-26.2415
11
45.4982
21
-26.1836
0
LINE
8
BLACK
6
CONTINUOUS
10
45.4982
20
-26.1836
11
45.7023
21
-26.165
0
LINE
8
BLACK
6
CONTINUOUS
10
45.7023
20
-26.165
11
45.9061
21
-26.1864
0
LINE
8
BLACK
6
CONTINUOUS
10
45.9061
20
-26.1864
11
46.1019
21
-26.247
0
LINE
8
BLACK
6
CONTINUOUS
10
46.1019
20
-26.247
11
46.2822
21
-26.3445
0
LINE
8
BLACK
6
CONTINUOUS
10
46.2822
20
-26.3445
11
46.44
21
-26.4751
0
LINE
8
BLACK
6
CONTINUOUS
10
46.44
20
-26.4751
11
46.5696
21
-26.6339
0
LINE
8
BLACK
6
CONTINUOUS
10
46.5696
20
-26.6339
11
46.6658
21
-26.8149
0
LINE
8
BLACK
6
CONTINUOUS
10
46.6658
20
-26.8149
11
46.725
21
-27.0111
0
LINE
8
BLACK
6
CONTINUOUS
10
46.725
20
-27.0111
11
46.745
21
-27.215
0
LINE
8
BLACK
6
CONTINUOUS
10
46.745
20
-27.215
11
46.7446
21
-27.2443
0
LINE
8
BLACK
6
CONTINUOUS
10
46.7446
20
-27.2443
11
46.7189
21
-27.4476
0
LINE
8
BLACK
6
CONTINUOUS
10
46.7189
20
-27.4476
11
46.6542
21
-27.6421
0
LINE
8
BLACK
6
CONTINUOUS
10
46.6542
20
-27.6421
11
46.553
21
-27.8203
0
LINE
8
BLACK
6
CONTINUOUS
10
46.553
20
-27.8203
11
46.4191
21
-27.9754
0
LINE
8
BLACK
6
CONTINUOUS
10
46.4191
20
-27.9754
11
46.2576
21
-28.1015
0
LINE
8
BLACK
6
CONTINUOUS
10
46.2576
20
-28.1015
11
46.0747
21
-28.1939
0
LINE
8
BLACK
6
CONTINUOUS
10
46.0747
20
-28.1939
11
45.8773
21
-28.249
0
LINE
8
BLACK
6
CONTINUOUS
10
45.8773
20
-28.249
11
45.673
21
-28.2648
0
LINE
8
BLACK
6
CONTINUOUS
10
45.673
20
-28.2648
11
45.4695
21
-28.2405
0
LINE
8
BLACK
6
CONTINUOUS
10
45.4695
20
-28.2405
11
45.2746
21
-28.1772
0
LINE
8
BLACK
6
CONTINUOUS
10
45.2746
20
-28.1772
11
45.0957
21
-28.0772
0
LINE
8
BLACK
6
CONTINUOUS
10
45.0957
20
-28.0772
11
44.9397
21
-27.9444
0
LINE
8
BLACK
6
CONTINUOUS
10
44.9397
20
-27.9444
11
44.8124
21
-27.7838
0
LINE
8
BLACK
6
CONTINUOUS
10
44.8124
20
-27.7838
11
44.7187
21
-27.6015
0
LINE
8
BLACK
6
CONTINUOUS
10
44.7187
20
-27.6015
11
44.6622
21
-27.4045
0
LINE
8
BLACK
6
CONTINUOUS
10
44.6622
20
-27.4045
11
44.6452
21
-27.2017
0
LINE
8
BLACK
6
CONTINUOUS
10
44.6452
20
-27.2017
11
44.6451
21
-27.2003
0
LINE
8
BLACK
6
CONTINUOUS
10
44.6451
20
-27.2003
11
44.6679
21
-26.9967
0
LINE
8
BLACK
6
CONTINUOUS
10
44.8074
20
-27.5664
11
44.8926
21
-27.7321
0
LINE
8
BLACK
6
CONTINUOUS
10
44.8926
20
-27.7321
11
45.0083
21
-27.8781
0
LINE
8
BLACK
6
CONTINUOUS
10
45.0083
20
-27.8781
11
45.1502
21
-27.9989
0
LINE
8
BLACK
6
CONTINUOUS
10
45.1502
20
-27.9989
11
45.3128
21
-28.0898
0
LINE
8
BLACK
6
CONTINUOUS
10
45.3128
20
-28.0898
11
45.49
21
-28.1473
0
LINE
8
BLACK
6
CONTINUOUS
10
45.49
20
-28.1473
11
45.675
21
-28.1694
0
LINE
8
BLACK
6
CONTINUOUS
10
45.675
20
-28.1694
11
45.8608
21
-28.1551
0
LINE
8
BLACK
6
CONTINUOUS
10
45.8608
20
-28.1551
11
46.0402
21
-28.105
0
LINE
8
BLACK
6
CONTINUOUS
10
46.0402
20
-28.105
11
46.2065
21
-28.021
0
LINE
8
BLACK
6
CONTINUOUS
10
46.2065
20
-28.021
11
46.3533
21
-27.9063
0
LINE
8
BLACK
6
CONTINUOUS
10
46.3533
20
-27.9063
11
46.475
21
-27.7653
0
LINE
8
BLACK
6
CONTINUOUS
10
46.475
20
-27.7653
11
46.5671
21
-27.6033
0
LINE
8
BLACK
6
CONTINUOUS
10
46.5671
20
-27.6033
11
46.6259
21
-27.4265
0
LINE
8
BLACK
6
CONTINUOUS
10
46.6259
20
-27.4265
11
46.6492
21
-27.2417
0
LINE
8
BLACK
6
CONTINUOUS
10
46.6492
20
-27.2417
11
46.6496
21
-27.215
0
LINE
8
BLACK
6
CONTINUOUS
10
46.6496
20
-27.215
11
46.6314
21
-27.0296
0
LINE
8
BLACK
6
CONTINUOUS
10
46.6314
20
-27.0296
11
46.5776
21
-26.8512
0
LINE
8
BLACK
6
CONTINUOUS
10
46.5776
20
-26.8512
11
46.4901
21
-26.6867
0
LINE
8
BLACK
6
CONTINUOUS
10
46.4901
20
-26.6867
11
46.3724
21
-26.5424
0
LINE
8
BLACK
6
CONTINUOUS
10
46.3724
20
-26.5424
11
46.2288
21
-26.4236
0
LINE
8
BLACK
6
CONTINUOUS
10
46.2288
20
-26.4236
11
46.0649
21
-26.335
0
LINE
8
BLACK
6
CONTINUOUS
10
46.0649
20
-26.335
11
45.8869
21
-26.2799
0
LINE
8
BLACK
6
CONTINUOUS
10
45.8869
20
-26.2799
11
45.7017
21
-26.2604
0
LINE
8
BLACK
6
CONTINUOUS
10
45.7017
20
-26.2604
11
45.5161
21
-26.2773
0
LINE
8
BLACK
6
CONTINUOUS
10
45.5161
20
-26.2773
11
45.3374
21
-26.3299
0
LINE
8
BLACK
6
CONTINUOUS
10
45.3374
20
-26.3299
11
45.1723
21
-26.4162
0
LINE
8
BLACK
6
CONTINUOUS
10
45.1723
20
-26.4162
11
45.0271
21
-26.533
0
LINE
8
BLACK
6
CONTINUOUS
10
45.0271
20
-26.533
11
44.9073
21
-26.6757
0
LINE
8
BLACK
6
CONTINUOUS
10
44.9073
20
-26.6757
11
44.8176
21
-26.8389
0
LINE
8
BLACK
6
CONTINUOUS
10
44.8176
20
-26.8389
11
44.7613
21
-27.0165
0
LINE
8
BLACK
6
CONTINUOUS
10
44.7613
20
-27.0165
11
44.7405
21
-27.2017
0
LINE
8
BLACK
6
CONTINUOUS
10
44.7405
20
-27.2017
11
44.7561
21
-27.3873
0
LINE
8
BLACK
6
CONTINUOUS
10
44.7561
20
-27.3873
11
44.8074
21
-27.5664
  0
ENDSEC
  0
EOF
