%TF.GenerationSoftware,KiCad,Pcbnew,(6.0.11)*%
%TF.CreationDate,2026-02-20T21:52:15+09:00*%
%TF.ProjectId,ch552_numpad_rev2_bottom,63683535-325f-46e7-956d-7061645f7265,02*%
%TF.SameCoordinates,Original*%
%TF.FileFunction,Copper,L2,Bot*%
%TF.FilePolarity,Positive*%
%FSLAX46Y46*%
G04 Gerber Fmt 4.6, Leading zero omitted, Abs format (unit mm)*
G04 Created by KiCad (PCBNEW (6.0.11)) date 2026-02-20 21:52:15*
%MOMM*%
%LPD*%
G01*
G04 APERTURE LIST*
%ADD10C,0.400000*%
%TA.AperFunction,NonConductor*%
%ADD11C,0.400000*%
%TD*%
%TA.AperFunction,ComponentPad*%
%ADD12C,4.400000*%
%TD*%
G04 APERTURE END LIST*
D10*
D11*
X79293868Y-27929762D02*
X79472439Y-27834524D01*
X79555772Y-27739286D01*
X79627201Y-27548810D01*
X79555772Y-26977381D01*
X79436725Y-26786905D01*
X79329582Y-26691667D01*
X79127201Y-26596429D01*
X78841487Y-26596429D01*
X78662915Y-26691667D01*
X78579582Y-26786905D01*
X78508153Y-26977381D01*
X78579582Y-27548810D01*
X78698629Y-27739286D01*
X78805772Y-27834524D01*
X79008153Y-27929762D01*
X79293868Y-27929762D01*
X77770058Y-27929762D02*
X77520058Y-25929762D01*
X77484344Y-27167858D02*
X77008153Y-27929762D01*
X76841487Y-26596429D02*
X77698629Y-27358334D01*
X76151010Y-27929762D02*
X75984344Y-26596429D01*
X75901010Y-25929762D02*
X76008153Y-26025001D01*
X75924820Y-26120239D01*
X75817677Y-26025001D01*
X75901010Y-25929762D01*
X75924820Y-26120239D01*
X75198629Y-27929762D02*
X75031963Y-26596429D01*
X75079582Y-26977381D02*
X74960534Y-26786905D01*
X74853391Y-26691667D01*
X74651010Y-26596429D01*
X74460534Y-26596429D01*
X73103391Y-27929762D02*
X72972439Y-26882143D01*
X73043868Y-26691667D01*
X73222439Y-26596429D01*
X73603391Y-26596429D01*
X73805772Y-26691667D01*
X73091487Y-27834524D02*
X73293868Y-27929762D01*
X73770058Y-27929762D01*
X73948629Y-27834524D01*
X74020058Y-27644048D01*
X73996249Y-27453572D01*
X73877201Y-27263096D01*
X73674820Y-27167858D01*
X73198629Y-27167858D01*
X72996249Y-27072620D01*
X72151010Y-27929762D02*
X71901010Y-25929762D01*
X71865296Y-27167858D02*
X71389106Y-27929762D01*
X71222439Y-26596429D02*
X72079582Y-27358334D01*
X69508153Y-26596429D02*
X69674820Y-27929762D01*
X70365296Y-26596429D02*
X70496249Y-27644048D01*
X70424820Y-27834524D01*
X70246249Y-27929762D01*
X69960534Y-27929762D01*
X69758153Y-27834524D01*
X69651010Y-27739286D01*
X68627201Y-27167858D02*
X67103391Y-27167858D01*
X65377201Y-27834524D02*
X65579582Y-27929762D01*
X65960534Y-27929762D01*
X66139106Y-27834524D01*
X66222439Y-27739286D01*
X66293868Y-27548810D01*
X66222439Y-26977381D01*
X66103391Y-26786905D01*
X65996249Y-26691667D01*
X65793868Y-26596429D01*
X65412915Y-26596429D01*
X65234344Y-26691667D01*
X63674820Y-27929762D02*
X63543868Y-26882143D01*
X63615296Y-26691667D01*
X63793868Y-26596429D01*
X64174820Y-26596429D01*
X64377201Y-26691667D01*
X63662915Y-27834524D02*
X63865296Y-27929762D01*
X64341487Y-27929762D01*
X64520058Y-27834524D01*
X64591487Y-27644048D01*
X64567677Y-27453572D01*
X64448629Y-27263096D01*
X64246249Y-27167858D01*
X63770058Y-27167858D01*
X63567677Y-27072620D01*
X62722439Y-27929762D02*
X62555772Y-26596429D01*
X62579582Y-26786905D02*
X62472439Y-26691667D01*
X62270058Y-26596429D01*
X61984344Y-26596429D01*
X61805772Y-26691667D01*
X61734344Y-26882143D01*
X61865296Y-27929762D01*
X61734344Y-26882143D02*
X61615296Y-26691667D01*
X61412915Y-26596429D01*
X61127201Y-26596429D01*
X60948629Y-26691667D01*
X60877201Y-26882143D01*
X61008153Y-27929762D01*
X59281963Y-27834524D02*
X59484344Y-27929762D01*
X59865296Y-27929762D01*
X60043868Y-27834524D01*
X60115296Y-27644048D01*
X60020058Y-26882143D01*
X59901010Y-26691667D01*
X59698629Y-26596429D01*
X59317677Y-26596429D01*
X59139106Y-26691667D01*
X59067677Y-26882143D01*
X59091487Y-27072620D01*
X60067677Y-27263096D01*
X58341487Y-27929762D02*
X58174820Y-26596429D01*
X58222439Y-26977381D02*
X58103391Y-26786905D01*
X57996249Y-26691667D01*
X57793868Y-26596429D01*
X57603391Y-26596429D01*
X56246249Y-27929762D02*
X56115296Y-26882143D01*
X56186725Y-26691667D01*
X56365296Y-26596429D01*
X56746249Y-26596429D01*
X56948629Y-26691667D01*
X56234344Y-27834524D02*
X56436725Y-27929762D01*
X56912915Y-27929762D01*
X57091487Y-27834524D01*
X57162915Y-27644048D01*
X57139106Y-27453572D01*
X57020058Y-27263096D01*
X56817677Y-27167858D01*
X56341487Y-27167858D01*
X56139106Y-27072620D01*
X55270058Y-27739286D02*
X55186725Y-27834524D01*
X55293868Y-27929762D01*
X55377201Y-27834524D01*
X55270058Y-27739286D01*
X55293868Y-27929762D01*
X54460534Y-26596429D02*
X53698629Y-26596429D01*
X54091487Y-25929762D02*
X54305772Y-27644048D01*
X54234344Y-27834524D01*
X54055772Y-27929762D01*
X53865296Y-27929762D01*
X52912915Y-27929762D02*
X53091487Y-27834524D01*
X53174820Y-27739286D01*
X53246249Y-27548810D01*
X53174820Y-26977381D01*
X53055772Y-26786905D01*
X52948629Y-26691667D01*
X52746249Y-26596429D01*
X52460534Y-26596429D01*
X52281963Y-26691667D01*
X52198629Y-26786905D01*
X52127201Y-26977381D01*
X52198629Y-27548810D01*
X52317677Y-27739286D01*
X52424820Y-27834524D01*
X52627201Y-27929762D01*
X52912915Y-27929762D01*
X51389106Y-27929762D02*
X51139106Y-25929762D01*
X51103391Y-27167858D02*
X50627201Y-27929762D01*
X50460534Y-26596429D02*
X51317677Y-27358334D01*
X49793868Y-26596429D02*
X49484344Y-27929762D01*
X48841487Y-26596429D02*
X49484344Y-27929762D01*
X49734344Y-28405953D01*
X49841487Y-28501191D01*
X50043868Y-28596429D01*
X47960534Y-27929762D02*
X48139106Y-27834524D01*
X48222439Y-27739286D01*
X48293868Y-27548810D01*
X48222439Y-26977381D01*
X48103391Y-26786905D01*
X47996249Y-26691667D01*
X47793868Y-26596429D01*
X47508153Y-26596429D01*
X47329582Y-26691667D01*
X47246249Y-26786905D01*
X47174820Y-26977381D01*
X47246249Y-27548810D01*
X47365296Y-27739286D01*
X47472439Y-27834524D01*
X47674820Y-27929762D01*
X47960534Y-27929762D01*
D12*
X106494999Y-119165001D03*
X31994999Y-119165001D03*
X103494999Y-28765001D03*
X34494999Y-28765001D03*
%TA.AperFunction,NonConductor*%
G36*
X101177120Y-25693503D02*
G01*
X101223613Y-25747159D01*
X101234999Y-25799501D01*
X101234999Y-27233916D01*
X101216259Y-27300032D01*
X101103625Y-27482758D01*
X100966901Y-27779337D01*
X100866796Y-28090193D01*
X100866078Y-28093904D01*
X100866077Y-28093908D01*
X100805481Y-28407106D01*
X100805480Y-28407115D01*
X100804762Y-28410825D01*
X100781697Y-28736586D01*
X100784536Y-28793615D01*
X100796852Y-29041001D01*
X100797935Y-29062760D01*
X100853240Y-29384620D01*
X100854328Y-29388259D01*
X100854329Y-29388262D01*
X100866798Y-29429953D01*
X100946813Y-29697505D01*
X100948326Y-29700976D01*
X100948328Y-29700982D01*
X100984505Y-29783985D01*
X100994999Y-29834328D01*
X100994999Y-38789001D01*
X100974997Y-38857122D01*
X100921341Y-38903615D01*
X100868999Y-38915001D01*
X91120999Y-38915001D01*
X91052878Y-38894999D01*
X91006385Y-38841343D01*
X90994999Y-38789001D01*
X90994999Y-28915001D01*
X81120999Y-28915001D01*
X81052878Y-28894999D01*
X81006385Y-28841343D01*
X80994999Y-28789001D01*
X80994999Y-25799501D01*
X81015001Y-25731380D01*
X81068657Y-25684887D01*
X81120999Y-25673501D01*
X101108999Y-25673501D01*
X101177120Y-25693503D01*
G37*
%TD.AperFunction*%
%TA.AperFunction,NonConductor*%
G36*
X60937120Y-29463503D02*
G01*
X60983613Y-29517159D01*
X60994999Y-29569501D01*
X60994999Y-38789001D01*
X60974997Y-38857122D01*
X60921341Y-38903615D01*
X60868999Y-38915001D01*
X51120999Y-38915001D01*
X51052878Y-38894999D01*
X51006385Y-38841343D01*
X50994999Y-38789001D01*
X50994999Y-29569501D01*
X51015001Y-29501380D01*
X51068657Y-29454887D01*
X51120999Y-29443501D01*
X60868999Y-29443501D01*
X60937120Y-29463503D01*
G37*
%TD.AperFunction*%
%TA.AperFunction,NonConductor*%
G36*
X80937120Y-28935003D02*
G01*
X80983613Y-28988659D01*
X80994999Y-29041001D01*
X80994999Y-38789001D01*
X80974997Y-38857122D01*
X80921341Y-38903615D01*
X80868999Y-38915001D01*
X71120999Y-38915001D01*
X71052878Y-38894999D01*
X71006385Y-38841343D01*
X70994999Y-38789001D01*
X70994999Y-29569501D01*
X71015001Y-29501380D01*
X71068657Y-29454887D01*
X71120999Y-29443501D01*
X80574928Y-29443501D01*
X80574928Y-29041001D01*
X80594930Y-28972880D01*
X80648586Y-28926387D01*
X80700928Y-28915001D01*
X80868999Y-28915001D01*
X80937120Y-28935003D01*
G37*
%TD.AperFunction*%
%TA.AperFunction,NonConductor*%
G36*
X45957192Y-25693503D02*
G01*
X46003685Y-25747159D01*
X46015071Y-25799501D01*
X46015071Y-28679001D01*
X45995069Y-28747122D01*
X45941413Y-28793615D01*
X45889071Y-28805001D01*
X40994999Y-28805001D01*
X40994999Y-38789001D01*
X40974997Y-38857122D01*
X40921341Y-38903615D01*
X40868999Y-38915001D01*
X31120999Y-38915001D01*
X31052878Y-38894999D01*
X31006385Y-38841343D01*
X30994999Y-38789001D01*
X30994999Y-31671001D01*
X31015001Y-31602880D01*
X31068657Y-31556387D01*
X31120999Y-31545001D01*
X37314999Y-31545001D01*
X37314999Y-28977284D01*
X37328521Y-28931230D01*
X37332052Y-28915001D01*
X37334999Y-28915001D01*
X37334999Y-25799501D01*
X37355001Y-25731380D01*
X37408657Y-25684887D01*
X37460999Y-25673501D01*
X45889071Y-25673501D01*
X45957192Y-25693503D01*
G37*
%TD.AperFunction*%
%TA.AperFunction,NonConductor*%
G36*
X90937120Y-38935003D02*
G01*
X90983613Y-38988659D01*
X90994999Y-39041001D01*
X90994999Y-48789001D01*
X90974997Y-48857122D01*
X90921341Y-48903615D01*
X90868999Y-48915001D01*
X81120999Y-48915001D01*
X81052878Y-48894999D01*
X81006385Y-48841343D01*
X80994999Y-48789001D01*
X80994999Y-39041001D01*
X81015001Y-38972880D01*
X81068657Y-38926387D01*
X81120999Y-38915001D01*
X90868999Y-38915001D01*
X90937120Y-38935003D01*
G37*
%TD.AperFunction*%
%TA.AperFunction,NonConductor*%
G36*
X70937120Y-38935003D02*
G01*
X70983613Y-38988659D01*
X70994999Y-39041001D01*
X70994999Y-48789001D01*
X70974997Y-48857122D01*
X70921341Y-48903615D01*
X70868999Y-48915001D01*
X61120999Y-48915001D01*
X61052878Y-48894999D01*
X61006385Y-48841343D01*
X60994999Y-48789001D01*
X60994999Y-39041001D01*
X61015001Y-38972880D01*
X61068657Y-38926387D01*
X61120999Y-38915001D01*
X70868999Y-38915001D01*
X70937120Y-38935003D01*
G37*
%TD.AperFunction*%
%TA.AperFunction,NonConductor*%
G36*
X50937120Y-38935003D02*
G01*
X50983613Y-38988659D01*
X50994999Y-39041001D01*
X50994999Y-48789001D01*
X50974997Y-48857122D01*
X50921341Y-48903615D01*
X50868999Y-48915001D01*
X41120999Y-48915001D01*
X41052878Y-48894999D01*
X41006385Y-48841343D01*
X40994999Y-48789001D01*
X40994999Y-39041001D01*
X41015001Y-38972880D01*
X41068657Y-38926387D01*
X41120999Y-38915001D01*
X50868999Y-38915001D01*
X50937120Y-38935003D01*
G37*
%TD.AperFunction*%
%TA.AperFunction,NonConductor*%
G36*
X30937120Y-38935003D02*
G01*
X30983613Y-38988659D01*
X30994999Y-39041001D01*
X30994999Y-48789001D01*
X30974997Y-48857122D01*
X30921341Y-48903615D01*
X30868999Y-48915001D01*
X28629499Y-48915001D01*
X28561378Y-48894999D01*
X28514885Y-48841343D01*
X28503499Y-48789001D01*
X28503499Y-39041001D01*
X28523501Y-38972880D01*
X28577157Y-38926387D01*
X28629499Y-38915001D01*
X30868999Y-38915001D01*
X30937120Y-38935003D01*
G37*
%TD.AperFunction*%
%TA.AperFunction,NonConductor*%
G36*
X109428620Y-38935003D02*
G01*
X109475113Y-38988659D01*
X109486499Y-39041001D01*
X109486499Y-48789001D01*
X109466497Y-48857122D01*
X109412841Y-48903615D01*
X109360499Y-48915001D01*
X101120999Y-48915001D01*
X101052878Y-48894999D01*
X101006385Y-48841343D01*
X100994999Y-48789001D01*
X100994999Y-39041001D01*
X101015001Y-38972880D01*
X101068657Y-38926387D01*
X101120999Y-38915001D01*
X109360499Y-38915001D01*
X109428620Y-38935003D01*
G37*
%TD.AperFunction*%
%TA.AperFunction,NonConductor*%
G36*
X80937120Y-48935003D02*
G01*
X80983613Y-48988659D01*
X80994999Y-49041001D01*
X80994999Y-58789001D01*
X80974997Y-58857122D01*
X80921341Y-58903615D01*
X80868999Y-58915001D01*
X71120999Y-58915001D01*
X71052878Y-58894999D01*
X71006385Y-58841343D01*
X70994999Y-58789001D01*
X70994999Y-49041001D01*
X71015001Y-48972880D01*
X71068657Y-48926387D01*
X71120999Y-48915001D01*
X80868999Y-48915001D01*
X80937120Y-48935003D01*
G37*
%TD.AperFunction*%
%TA.AperFunction,NonConductor*%
G36*
X100937120Y-48935003D02*
G01*
X100983613Y-48988659D01*
X100994999Y-49041001D01*
X100994999Y-58789001D01*
X100974997Y-58857122D01*
X100921341Y-58903615D01*
X100868999Y-58915001D01*
X91120999Y-58915001D01*
X91052878Y-58894999D01*
X91006385Y-58841343D01*
X90994999Y-58789001D01*
X90994999Y-49041001D01*
X91015001Y-48972880D01*
X91068657Y-48926387D01*
X91120999Y-48915001D01*
X100868999Y-48915001D01*
X100937120Y-48935003D01*
G37*
%TD.AperFunction*%
%TA.AperFunction,NonConductor*%
G36*
X60937120Y-48935003D02*
G01*
X60983613Y-48988659D01*
X60994999Y-49041001D01*
X60994999Y-58789001D01*
X60974997Y-58857122D01*
X60921341Y-58903615D01*
X60868999Y-58915001D01*
X51120999Y-58915001D01*
X51052878Y-58894999D01*
X51006385Y-58841343D01*
X50994999Y-58789001D01*
X50994999Y-49041001D01*
X51015001Y-48972880D01*
X51068657Y-48926387D01*
X51120999Y-48915001D01*
X60868999Y-48915001D01*
X60937120Y-48935003D01*
G37*
%TD.AperFunction*%
%TA.AperFunction,NonConductor*%
G36*
X40937120Y-48935003D02*
G01*
X40983613Y-48988659D01*
X40994999Y-49041001D01*
X40994999Y-58789001D01*
X40974997Y-58857122D01*
X40921341Y-58903615D01*
X40868999Y-58915001D01*
X31120999Y-58915001D01*
X31052878Y-58894999D01*
X31006385Y-58841343D01*
X30994999Y-58789001D01*
X30994999Y-49041001D01*
X31015001Y-48972880D01*
X31068657Y-48926387D01*
X31120999Y-48915001D01*
X40868999Y-48915001D01*
X40937120Y-48935003D01*
G37*
%TD.AperFunction*%
%TA.AperFunction,NonConductor*%
G36*
X109428620Y-58935003D02*
G01*
X109475113Y-58988659D01*
X109486499Y-59041001D01*
X109486499Y-68789001D01*
X109466497Y-68857122D01*
X109412841Y-68903615D01*
X109360499Y-68915001D01*
X101120999Y-68915001D01*
X101052878Y-68894999D01*
X101006385Y-68841343D01*
X100994999Y-68789001D01*
X100994999Y-59041001D01*
X101015001Y-58972880D01*
X101068657Y-58926387D01*
X101120999Y-58915001D01*
X109360499Y-58915001D01*
X109428620Y-58935003D01*
G37*
%TD.AperFunction*%
%TA.AperFunction,NonConductor*%
G36*
X30937120Y-58935003D02*
G01*
X30983613Y-58988659D01*
X30994999Y-59041001D01*
X30994999Y-68789001D01*
X30974997Y-68857122D01*
X30921341Y-68903615D01*
X30868999Y-68915001D01*
X28629499Y-68915001D01*
X28561378Y-68894999D01*
X28514885Y-68841343D01*
X28503499Y-68789001D01*
X28503499Y-59041001D01*
X28523501Y-58972880D01*
X28577157Y-58926387D01*
X28629499Y-58915001D01*
X30868999Y-58915001D01*
X30937120Y-58935003D01*
G37*
%TD.AperFunction*%
%TA.AperFunction,NonConductor*%
G36*
X50937120Y-58935003D02*
G01*
X50983613Y-58988659D01*
X50994999Y-59041001D01*
X50994999Y-68789001D01*
X50974997Y-68857122D01*
X50921341Y-68903615D01*
X50868999Y-68915001D01*
X41120999Y-68915001D01*
X41052878Y-68894999D01*
X41006385Y-68841343D01*
X40994999Y-68789001D01*
X40994999Y-59041001D01*
X41015001Y-58972880D01*
X41068657Y-58926387D01*
X41120999Y-58915001D01*
X50868999Y-58915001D01*
X50937120Y-58935003D01*
G37*
%TD.AperFunction*%
%TA.AperFunction,NonConductor*%
G36*
X70937120Y-58935003D02*
G01*
X70983613Y-58988659D01*
X70994999Y-59041001D01*
X70994999Y-68789001D01*
X70974997Y-68857122D01*
X70921341Y-68903615D01*
X70868999Y-68915001D01*
X61120999Y-68915001D01*
X61052878Y-68894999D01*
X61006385Y-68841343D01*
X60994999Y-68789001D01*
X60994999Y-59041001D01*
X61015001Y-58972880D01*
X61068657Y-58926387D01*
X61120999Y-58915001D01*
X70868999Y-58915001D01*
X70937120Y-58935003D01*
G37*
%TD.AperFunction*%
%TA.AperFunction,NonConductor*%
G36*
X90937120Y-58935003D02*
G01*
X90983613Y-58988659D01*
X90994999Y-59041001D01*
X90994999Y-68789001D01*
X90974997Y-68857122D01*
X90921341Y-68903615D01*
X90868999Y-68915001D01*
X81120999Y-68915001D01*
X81052878Y-68894999D01*
X81006385Y-68841343D01*
X80994999Y-68789001D01*
X80994999Y-59041001D01*
X81015001Y-58972880D01*
X81068657Y-58926387D01*
X81120999Y-58915001D01*
X90868999Y-58915001D01*
X90937120Y-58935003D01*
G37*
%TD.AperFunction*%
%TA.AperFunction,NonConductor*%
G36*
X100937120Y-68935003D02*
G01*
X100983613Y-68988659D01*
X100994999Y-69041001D01*
X100994999Y-78789001D01*
X100974997Y-78857122D01*
X100921341Y-78903615D01*
X100868999Y-78915001D01*
X91120999Y-78915001D01*
X91052878Y-78894999D01*
X91006385Y-78841343D01*
X90994999Y-78789001D01*
X90994999Y-69041001D01*
X91015001Y-68972880D01*
X91068657Y-68926387D01*
X91120999Y-68915001D01*
X100868999Y-68915001D01*
X100937120Y-68935003D01*
G37*
%TD.AperFunction*%
%TA.AperFunction,NonConductor*%
G36*
X80937120Y-68935003D02*
G01*
X80983613Y-68988659D01*
X80994999Y-69041001D01*
X80994999Y-78789001D01*
X80974997Y-78857122D01*
X80921341Y-78903615D01*
X80868999Y-78915001D01*
X71120999Y-78915001D01*
X71052878Y-78894999D01*
X71006385Y-78841343D01*
X70994999Y-78789001D01*
X70994999Y-69041001D01*
X71015001Y-68972880D01*
X71068657Y-68926387D01*
X71120999Y-68915001D01*
X80868999Y-68915001D01*
X80937120Y-68935003D01*
G37*
%TD.AperFunction*%
%TA.AperFunction,NonConductor*%
G36*
X60937120Y-68935003D02*
G01*
X60983613Y-68988659D01*
X60994999Y-69041001D01*
X60994999Y-78789001D01*
X60974997Y-78857122D01*
X60921341Y-78903615D01*
X60868999Y-78915001D01*
X51120999Y-78915001D01*
X51052878Y-78894999D01*
X51006385Y-78841343D01*
X50994999Y-78789001D01*
X50994999Y-69041001D01*
X51015001Y-68972880D01*
X51068657Y-68926387D01*
X51120999Y-68915001D01*
X60868999Y-68915001D01*
X60937120Y-68935003D01*
G37*
%TD.AperFunction*%
%TA.AperFunction,NonConductor*%
G36*
X40937120Y-68935003D02*
G01*
X40983613Y-68988659D01*
X40994999Y-69041001D01*
X40994999Y-78789001D01*
X40974997Y-78857122D01*
X40921341Y-78903615D01*
X40868999Y-78915001D01*
X31120999Y-78915001D01*
X31052878Y-78894999D01*
X31006385Y-78841343D01*
X30994999Y-78789001D01*
X30994999Y-69041001D01*
X31015001Y-68972880D01*
X31068657Y-68926387D01*
X31120999Y-68915001D01*
X40868999Y-68915001D01*
X40937120Y-68935003D01*
G37*
%TD.AperFunction*%
%TA.AperFunction,NonConductor*%
G36*
X90937120Y-78935003D02*
G01*
X90983613Y-78988659D01*
X90994999Y-79041001D01*
X90994999Y-88789001D01*
X90974997Y-88857122D01*
X90921341Y-88903615D01*
X90868999Y-88915001D01*
X81120999Y-88915001D01*
X81052878Y-88894999D01*
X81006385Y-88841343D01*
X80994999Y-88789001D01*
X80994999Y-79041001D01*
X81015001Y-78972880D01*
X81068657Y-78926387D01*
X81120999Y-78915001D01*
X90868999Y-78915001D01*
X90937120Y-78935003D01*
G37*
%TD.AperFunction*%
%TA.AperFunction,NonConductor*%
G36*
X109428620Y-78935003D02*
G01*
X109475113Y-78988659D01*
X109486499Y-79041001D01*
X109486499Y-88789001D01*
X109466497Y-88857122D01*
X109412841Y-88903615D01*
X109360499Y-88915001D01*
X101120999Y-88915001D01*
X101052878Y-88894999D01*
X101006385Y-88841343D01*
X100994999Y-88789001D01*
X100994999Y-79041001D01*
X101015001Y-78972880D01*
X101068657Y-78926387D01*
X101120999Y-78915001D01*
X109360499Y-78915001D01*
X109428620Y-78935003D01*
G37*
%TD.AperFunction*%
%TA.AperFunction,NonConductor*%
G36*
X70937120Y-78935003D02*
G01*
X70983613Y-78988659D01*
X70994999Y-79041001D01*
X70994999Y-88789001D01*
X70974997Y-88857122D01*
X70921341Y-88903615D01*
X70868999Y-88915001D01*
X61120999Y-88915001D01*
X61052878Y-88894999D01*
X61006385Y-88841343D01*
X60994999Y-88789001D01*
X60994999Y-79041001D01*
X61015001Y-78972880D01*
X61068657Y-78926387D01*
X61120999Y-78915001D01*
X70868999Y-78915001D01*
X70937120Y-78935003D01*
G37*
%TD.AperFunction*%
%TA.AperFunction,NonConductor*%
G36*
X30937120Y-78935003D02*
G01*
X30983613Y-78988659D01*
X30994999Y-79041001D01*
X30994999Y-88789001D01*
X30974997Y-88857122D01*
X30921341Y-88903615D01*
X30868999Y-88915001D01*
X28629499Y-88915001D01*
X28561378Y-88894999D01*
X28514885Y-88841343D01*
X28503499Y-88789001D01*
X28503499Y-79041001D01*
X28523501Y-78972880D01*
X28577157Y-78926387D01*
X28629499Y-78915001D01*
X30868999Y-78915001D01*
X30937120Y-78935003D01*
G37*
%TD.AperFunction*%
%TA.AperFunction,NonConductor*%
G36*
X50937120Y-78935003D02*
G01*
X50983613Y-78988659D01*
X50994999Y-79041001D01*
X50994999Y-88789001D01*
X50974997Y-88857122D01*
X50921341Y-88903615D01*
X50868999Y-88915001D01*
X41120999Y-88915001D01*
X41052878Y-88894999D01*
X41006385Y-88841343D01*
X40994999Y-88789001D01*
X40994999Y-79041001D01*
X41015001Y-78972880D01*
X41068657Y-78926387D01*
X41120999Y-78915001D01*
X50868999Y-78915001D01*
X50937120Y-78935003D01*
G37*
%TD.AperFunction*%
%TA.AperFunction,NonConductor*%
G36*
X40937120Y-88935003D02*
G01*
X40983613Y-88988659D01*
X40994999Y-89041001D01*
X40994999Y-98789001D01*
X40974997Y-98857122D01*
X40921341Y-98903615D01*
X40868999Y-98915001D01*
X31120999Y-98915001D01*
X31052878Y-98894999D01*
X31006385Y-98841343D01*
X30994999Y-98789001D01*
X30994999Y-89041001D01*
X31015001Y-88972880D01*
X31068657Y-88926387D01*
X31120999Y-88915001D01*
X40868999Y-88915001D01*
X40937120Y-88935003D01*
G37*
%TD.AperFunction*%
%TA.AperFunction,NonConductor*%
G36*
X60937120Y-88935003D02*
G01*
X60983613Y-88988659D01*
X60994999Y-89041001D01*
X60994999Y-98789001D01*
X60974997Y-98857122D01*
X60921341Y-98903615D01*
X60868999Y-98915001D01*
X51120999Y-98915001D01*
X51052878Y-98894999D01*
X51006385Y-98841343D01*
X50994999Y-98789001D01*
X50994999Y-89041001D01*
X51015001Y-88972880D01*
X51068657Y-88926387D01*
X51120999Y-88915001D01*
X60868999Y-88915001D01*
X60937120Y-88935003D01*
G37*
%TD.AperFunction*%
%TA.AperFunction,NonConductor*%
G36*
X80937120Y-88935003D02*
G01*
X80983613Y-88988659D01*
X80994999Y-89041001D01*
X80994999Y-98789001D01*
X80974997Y-98857122D01*
X80921341Y-98903615D01*
X80868999Y-98915001D01*
X71120999Y-98915001D01*
X71052878Y-98894999D01*
X71006385Y-98841343D01*
X70994999Y-98789001D01*
X70994999Y-89041001D01*
X71015001Y-88972880D01*
X71068657Y-88926387D01*
X71120999Y-88915001D01*
X80868999Y-88915001D01*
X80937120Y-88935003D01*
G37*
%TD.AperFunction*%
%TA.AperFunction,NonConductor*%
G36*
X100937120Y-88935003D02*
G01*
X100983613Y-88988659D01*
X100994999Y-89041001D01*
X100994999Y-98789001D01*
X100974997Y-98857122D01*
X100921341Y-98903615D01*
X100868999Y-98915001D01*
X91120999Y-98915001D01*
X91052878Y-98894999D01*
X91006385Y-98841343D01*
X90994999Y-98789001D01*
X90994999Y-89041001D01*
X91015001Y-88972880D01*
X91068657Y-88926387D01*
X91120999Y-88915001D01*
X100868999Y-88915001D01*
X100937120Y-88935003D01*
G37*
%TD.AperFunction*%
%TA.AperFunction,NonConductor*%
G36*
X30937120Y-98935003D02*
G01*
X30983613Y-98988659D01*
X30994999Y-99041001D01*
X30994999Y-108789001D01*
X30974997Y-108857122D01*
X30921341Y-108903615D01*
X30868999Y-108915001D01*
X28629499Y-108915001D01*
X28561378Y-108894999D01*
X28514885Y-108841343D01*
X28503499Y-108789001D01*
X28503499Y-99041001D01*
X28523501Y-98972880D01*
X28577157Y-98926387D01*
X28629499Y-98915001D01*
X30868999Y-98915001D01*
X30937120Y-98935003D01*
G37*
%TD.AperFunction*%
%TA.AperFunction,NonConductor*%
G36*
X50937120Y-98935003D02*
G01*
X50983613Y-98988659D01*
X50994999Y-99041001D01*
X50994999Y-108789001D01*
X50974997Y-108857122D01*
X50921341Y-108903615D01*
X50868999Y-108915001D01*
X41120999Y-108915001D01*
X41052878Y-108894999D01*
X41006385Y-108841343D01*
X40994999Y-108789001D01*
X40994999Y-99041001D01*
X41015001Y-98972880D01*
X41068657Y-98926387D01*
X41120999Y-98915001D01*
X50868999Y-98915001D01*
X50937120Y-98935003D01*
G37*
%TD.AperFunction*%
%TA.AperFunction,NonConductor*%
G36*
X70937120Y-98935003D02*
G01*
X70983613Y-98988659D01*
X70994999Y-99041001D01*
X70994999Y-108789001D01*
X70974997Y-108857122D01*
X70921341Y-108903615D01*
X70868999Y-108915001D01*
X61120999Y-108915001D01*
X61052878Y-108894999D01*
X61006385Y-108841343D01*
X60994999Y-108789001D01*
X60994999Y-99041001D01*
X61015001Y-98972880D01*
X61068657Y-98926387D01*
X61120999Y-98915001D01*
X70868999Y-98915001D01*
X70937120Y-98935003D01*
G37*
%TD.AperFunction*%
%TA.AperFunction,NonConductor*%
G36*
X90937120Y-98935003D02*
G01*
X90983613Y-98988659D01*
X90994999Y-99041001D01*
X90994999Y-108789001D01*
X90974997Y-108857122D01*
X90921341Y-108903615D01*
X90868999Y-108915001D01*
X81120999Y-108915001D01*
X81052878Y-108894999D01*
X81006385Y-108841343D01*
X80994999Y-108789001D01*
X80994999Y-99041001D01*
X81015001Y-98972880D01*
X81068657Y-98926387D01*
X81120999Y-98915001D01*
X90868999Y-98915001D01*
X90937120Y-98935003D01*
G37*
%TD.AperFunction*%
%TA.AperFunction,NonConductor*%
G36*
X109428620Y-98935003D02*
G01*
X109475113Y-98988659D01*
X109486499Y-99041001D01*
X109486499Y-108789001D01*
X109466497Y-108857122D01*
X109412841Y-108903615D01*
X109360499Y-108915001D01*
X101120999Y-108915001D01*
X101052878Y-108894999D01*
X101006385Y-108841343D01*
X100994999Y-108789001D01*
X100994999Y-99041001D01*
X101015001Y-98972880D01*
X101068657Y-98926387D01*
X101120999Y-98915001D01*
X109360499Y-98915001D01*
X109428620Y-98935003D01*
G37*
%TD.AperFunction*%
%TA.AperFunction,NonConductor*%
G36*
X60937120Y-108935003D02*
G01*
X60983613Y-108988659D01*
X60994999Y-109041001D01*
X60994999Y-118789001D01*
X60974997Y-118857122D01*
X60921341Y-118903615D01*
X60868999Y-118915001D01*
X51120999Y-118915001D01*
X51052878Y-118894999D01*
X51006385Y-118841343D01*
X50994999Y-118789001D01*
X50994999Y-109041001D01*
X51015001Y-108972880D01*
X51068657Y-108926387D01*
X51120999Y-108915001D01*
X60868999Y-108915001D01*
X60937120Y-108935003D01*
G37*
%TD.AperFunction*%
%TA.AperFunction,NonConductor*%
G36*
X80937120Y-108935003D02*
G01*
X80983613Y-108988659D01*
X80994999Y-109041001D01*
X80994999Y-118789001D01*
X80974997Y-118857122D01*
X80921341Y-118903615D01*
X80868999Y-118915001D01*
X71120999Y-118915001D01*
X71052878Y-118894999D01*
X71006385Y-118841343D01*
X70994999Y-118789001D01*
X70994999Y-109041001D01*
X71015001Y-108972880D01*
X71068657Y-108926387D01*
X71120999Y-108915001D01*
X80868999Y-108915001D01*
X80937120Y-108935003D01*
G37*
%TD.AperFunction*%
%TA.AperFunction,NonConductor*%
G36*
X100937120Y-108935003D02*
G01*
X100983613Y-108988659D01*
X100994999Y-109041001D01*
X100994999Y-114979001D01*
X100974997Y-115047122D01*
X100921341Y-115093615D01*
X100868999Y-115105001D01*
X100524999Y-115105001D01*
X100524999Y-118789001D01*
X100504997Y-118857122D01*
X100451341Y-118903615D01*
X100398999Y-118915001D01*
X91120999Y-118915001D01*
X91052878Y-118894999D01*
X91006385Y-118841343D01*
X90994999Y-118789001D01*
X90994999Y-109041001D01*
X91015001Y-108972880D01*
X91068657Y-108926387D01*
X91120999Y-108915001D01*
X100868999Y-108915001D01*
X100937120Y-108935003D01*
G37*
%TD.AperFunction*%
%TA.AperFunction,NonConductor*%
G36*
X40937120Y-108935003D02*
G01*
X40983613Y-108988659D01*
X40994999Y-109041001D01*
X40994999Y-118789001D01*
X40974997Y-118857122D01*
X40921341Y-118903615D01*
X40868999Y-118915001D01*
X35500999Y-118915001D01*
X35432878Y-118894999D01*
X35386385Y-118841343D01*
X35374999Y-118789001D01*
X35374999Y-114375001D01*
X31120999Y-114375001D01*
X31052878Y-114354999D01*
X31006385Y-114301343D01*
X30994999Y-114249001D01*
X30994999Y-109041001D01*
X31015001Y-108972880D01*
X31068657Y-108926387D01*
X31120999Y-108915001D01*
X40868999Y-108915001D01*
X40937120Y-108935003D01*
G37*
%TD.AperFunction*%
%TA.AperFunction,NonConductor*%
G36*
X90937120Y-118935003D02*
G01*
X90983613Y-118988659D01*
X90994999Y-119041001D01*
X90994999Y-123530501D01*
X90974997Y-123598622D01*
X90921341Y-123645115D01*
X90868999Y-123656501D01*
X81120999Y-123656501D01*
X81052878Y-123636499D01*
X81006385Y-123582843D01*
X80994999Y-123530501D01*
X80994999Y-119041001D01*
X81015001Y-118972880D01*
X81068657Y-118926387D01*
X81120999Y-118915001D01*
X90868999Y-118915001D01*
X90937120Y-118935003D01*
G37*
%TD.AperFunction*%
%TA.AperFunction,NonConductor*%
G36*
X70937120Y-118935003D02*
G01*
X70983613Y-118988659D01*
X70994999Y-119041001D01*
X70994999Y-123530501D01*
X70974997Y-123598622D01*
X70921341Y-123645115D01*
X70868999Y-123656501D01*
X61120999Y-123656501D01*
X61052878Y-123636499D01*
X61006385Y-123582843D01*
X60994999Y-123530501D01*
X60994999Y-119041001D01*
X61015001Y-118972880D01*
X61068657Y-118926387D01*
X61120999Y-118915001D01*
X70868999Y-118915001D01*
X70937120Y-118935003D01*
G37*
%TD.AperFunction*%
%TA.AperFunction,NonConductor*%
G36*
X50937120Y-118935003D02*
G01*
X50983613Y-118988659D01*
X50994999Y-119041001D01*
X50994999Y-123530501D01*
X50974997Y-123598622D01*
X50921341Y-123645115D01*
X50868999Y-123656501D01*
X41120999Y-123656501D01*
X41052878Y-123636499D01*
X41006385Y-123582843D01*
X40994999Y-123530501D01*
X40994999Y-119041001D01*
X41015001Y-118972880D01*
X41068657Y-118926387D01*
X41120999Y-118915001D01*
X50868999Y-118915001D01*
X50937120Y-118935003D01*
G37*
%TD.AperFunction*%
M02*
