%TF.GenerationSoftware,KiCad,Pcbnew,(6.0.11)*%
%TF.CreationDate,2026-02-20T21:52:15+09:00*%
%TF.ProjectId,ch552_numpad_rev2_bottom,63683535-325f-46e7-956d-7061645f7265,02*%
%TF.SameCoordinates,Original*%
%TF.FileFunction,Legend,Bot*%
%TF.FilePolarity,Positive*%
%FSLAX46Y46*%
G04 Gerber Fmt 4.6, Leading zero omitted, Abs format (unit mm)*
G04 Created by KiCad (PCBNEW (6.0.11)) date 2026-02-20 21:52:15*
%MOMM*%
%LPD*%
G01*
G04 APERTURE LIST*
%ADD10C,0.300000*%
%ADD11C,4.400000*%
G04 APERTURE END LIST*
D10*
X99602141Y-119522143D02*
X99744999Y-119593572D01*
X100030713Y-119593572D01*
X100173570Y-119522143D01*
X100244999Y-119450715D01*
X100316427Y-119307858D01*
X100316427Y-118879286D01*
X100244999Y-118736429D01*
X100173570Y-118665001D01*
X100030713Y-118593572D01*
X99744999Y-118593572D01*
X99602141Y-118665001D01*
X98959284Y-119593572D02*
X98959284Y-118093572D01*
X98316427Y-119593572D02*
X98316427Y-118807858D01*
X98387856Y-118665001D01*
X98530713Y-118593572D01*
X98744999Y-118593572D01*
X98887856Y-118665001D01*
X98959284Y-118736429D01*
X96887856Y-118093572D02*
X97602141Y-118093572D01*
X97673570Y-118807858D01*
X97602141Y-118736429D01*
X97459284Y-118665001D01*
X97102141Y-118665001D01*
X96959284Y-118736429D01*
X96887856Y-118807858D01*
X96816427Y-118950715D01*
X96816427Y-119307858D01*
X96887856Y-119450715D01*
X96959284Y-119522143D01*
X97102141Y-119593572D01*
X97459284Y-119593572D01*
X97602141Y-119522143D01*
X97673570Y-119450715D01*
X95459284Y-118093572D02*
X96173570Y-118093572D01*
X96244999Y-118807858D01*
X96173570Y-118736429D01*
X96030713Y-118665001D01*
X95673570Y-118665001D01*
X95530713Y-118736429D01*
X95459284Y-118807858D01*
X95387856Y-118950715D01*
X95387856Y-119307858D01*
X95459284Y-119450715D01*
X95530713Y-119522143D01*
X95673570Y-119593572D01*
X96030713Y-119593572D01*
X96173570Y-119522143D01*
X96244999Y-119450715D01*
X94816427Y-118236429D02*
X94744999Y-118165001D01*
X94602141Y-118093572D01*
X94244999Y-118093572D01*
X94102141Y-118165001D01*
X94030713Y-118236429D01*
X93959284Y-118379286D01*
X93959284Y-118522143D01*
X94030713Y-118736429D01*
X94887856Y-119593572D01*
X93959284Y-119593572D01*
X93673570Y-119736429D02*
X92530713Y-119736429D01*
X92173570Y-118593572D02*
X92173570Y-119593572D01*
X92173570Y-118736429D02*
X92102141Y-118665001D01*
X91959284Y-118593572D01*
X91744999Y-118593572D01*
X91602141Y-118665001D01*
X91530713Y-118807858D01*
X91530713Y-119593572D01*
X90173570Y-118593572D02*
X90173570Y-119593572D01*
X90816427Y-118593572D02*
X90816427Y-119379286D01*
X90744999Y-119522143D01*
X90602141Y-119593572D01*
X90387856Y-119593572D01*
X90244999Y-119522143D01*
X90173570Y-119450715D01*
X89459284Y-119593572D02*
X89459284Y-118593572D01*
X89459284Y-118736429D02*
X89387856Y-118665001D01*
X89244999Y-118593572D01*
X89030713Y-118593572D01*
X88887856Y-118665001D01*
X88816427Y-118807858D01*
X88816427Y-119593572D01*
X88816427Y-118807858D02*
X88744999Y-118665001D01*
X88602141Y-118593572D01*
X88387856Y-118593572D01*
X88244999Y-118665001D01*
X88173570Y-118807858D01*
X88173570Y-119593572D01*
X87459284Y-119593572D02*
X87459284Y-118093572D01*
X87316427Y-119022143D02*
X86887856Y-119593572D01*
X86887856Y-118593572D02*
X87459284Y-119165001D01*
X85673570Y-119522143D02*
X85816427Y-119593572D01*
X86102141Y-119593572D01*
X86244999Y-119522143D01*
X86316427Y-119379286D01*
X86316427Y-118807858D01*
X86244999Y-118665001D01*
X86102141Y-118593572D01*
X85816427Y-118593572D01*
X85673570Y-118665001D01*
X85602141Y-118807858D01*
X85602141Y-118950715D01*
X86316427Y-119093572D01*
X85102141Y-118593572D02*
X84744999Y-119593572D01*
X84387856Y-118593572D02*
X84744999Y-119593572D01*
X84887856Y-119950715D01*
X84959284Y-120022143D01*
X85102141Y-120093572D01*
X84173570Y-119736429D02*
X83030713Y-119736429D01*
X82673570Y-118593572D02*
X82673570Y-120093572D01*
X82673570Y-118665001D02*
X82530713Y-118593572D01*
X82244999Y-118593572D01*
X82102141Y-118665001D01*
X82030713Y-118736429D01*
X81959284Y-118879286D01*
X81959284Y-119307858D01*
X82030713Y-119450715D01*
X82102141Y-119522143D01*
X82244999Y-119593572D01*
X82530713Y-119593572D01*
X82673570Y-119522143D01*
X80673570Y-119593572D02*
X80673570Y-118807858D01*
X80744999Y-118665001D01*
X80887856Y-118593572D01*
X81173570Y-118593572D01*
X81316427Y-118665001D01*
X80673570Y-119522143D02*
X80816427Y-119593572D01*
X81173570Y-119593572D01*
X81316427Y-119522143D01*
X81387856Y-119379286D01*
X81387856Y-119236429D01*
X81316427Y-119093572D01*
X81173570Y-119022143D01*
X80816427Y-119022143D01*
X80673570Y-118950715D01*
X79316427Y-119593572D02*
X79316427Y-118093572D01*
X79316427Y-119522143D02*
X79459284Y-119593572D01*
X79744999Y-119593572D01*
X79887856Y-119522143D01*
X79959284Y-119450715D01*
X80030713Y-119307858D01*
X80030713Y-118879286D01*
X79959284Y-118736429D01*
X79887856Y-118665001D01*
X79744999Y-118593572D01*
X79459284Y-118593572D01*
X79316427Y-118665001D01*
X78959284Y-119736429D02*
X77816427Y-119736429D01*
X77459284Y-119593572D02*
X77459284Y-118093572D01*
X76816427Y-119593572D02*
X76816427Y-118807858D01*
X76887856Y-118665001D01*
X77030713Y-118593572D01*
X77244999Y-118593572D01*
X77387856Y-118665001D01*
X77459284Y-118736429D01*
X76173570Y-119522143D02*
X76030713Y-119593572D01*
X75744999Y-119593572D01*
X75602141Y-119522143D01*
X75530713Y-119379286D01*
X75530713Y-119307858D01*
X75602141Y-119165001D01*
X75744999Y-119093572D01*
X75959284Y-119093572D01*
X76102141Y-119022143D01*
X76173570Y-118879286D01*
X76173570Y-118807858D01*
X76102141Y-118665001D01*
X75959284Y-118593572D01*
X75744999Y-118593572D01*
X75602141Y-118665001D01*
X73744999Y-119593572D02*
X73744999Y-118593572D01*
X73744999Y-118879286D02*
X73673570Y-118736429D01*
X73602141Y-118665001D01*
X73459284Y-118593572D01*
X73316427Y-118593572D01*
X72244999Y-119522143D02*
X72387856Y-119593572D01*
X72673570Y-119593572D01*
X72816427Y-119522143D01*
X72887856Y-119379286D01*
X72887856Y-118807858D01*
X72816427Y-118665001D01*
X72673570Y-118593572D01*
X72387856Y-118593572D01*
X72244999Y-118665001D01*
X72173570Y-118807858D01*
X72173570Y-118950715D01*
X72887856Y-119093572D01*
X71673570Y-118593572D02*
X71316427Y-119593572D01*
X70959284Y-118593572D01*
X70387856Y-119593572D02*
X70387856Y-118593572D01*
X70387856Y-118093572D02*
X70459284Y-118165001D01*
X70387856Y-118236429D01*
X70316427Y-118165001D01*
X70387856Y-118093572D01*
X70387856Y-118236429D01*
X69744999Y-119522143D02*
X69602141Y-119593572D01*
X69316427Y-119593572D01*
X69173570Y-119522143D01*
X69102141Y-119379286D01*
X69102141Y-119307858D01*
X69173570Y-119165001D01*
X69316427Y-119093572D01*
X69530713Y-119093572D01*
X69673570Y-119022143D01*
X69744999Y-118879286D01*
X69744999Y-118807858D01*
X69673570Y-118665001D01*
X69530713Y-118593572D01*
X69316427Y-118593572D01*
X69173570Y-118665001D01*
X68459284Y-119593572D02*
X68459284Y-118593572D01*
X68459284Y-118093572D02*
X68530713Y-118165001D01*
X68459284Y-118236429D01*
X68387856Y-118165001D01*
X68459284Y-118093572D01*
X68459284Y-118236429D01*
X67530713Y-119593572D02*
X67673570Y-119522143D01*
X67744999Y-119450715D01*
X67816427Y-119307858D01*
X67816427Y-118879286D01*
X67744999Y-118736429D01*
X67673570Y-118665001D01*
X67530713Y-118593572D01*
X67316427Y-118593572D01*
X67173570Y-118665001D01*
X67102141Y-118736429D01*
X67030713Y-118879286D01*
X67030713Y-119307858D01*
X67102141Y-119450715D01*
X67173570Y-119522143D01*
X67316427Y-119593572D01*
X67530713Y-119593572D01*
X66387856Y-118593572D02*
X66387856Y-119593572D01*
X66387856Y-118736429D02*
X66316427Y-118665001D01*
X66173570Y-118593572D01*
X65959284Y-118593572D01*
X65816427Y-118665001D01*
X65744999Y-118807858D01*
X65744999Y-119593572D01*
X63602141Y-118093572D02*
X63459284Y-118093572D01*
X63316427Y-118165001D01*
X63244999Y-118236429D01*
X63173570Y-118379286D01*
X63102141Y-118665001D01*
X63102141Y-119022143D01*
X63173570Y-119307858D01*
X63244999Y-119450715D01*
X63316427Y-119522143D01*
X63459284Y-119593572D01*
X63602141Y-119593572D01*
X63744999Y-119522143D01*
X63816427Y-119450715D01*
X63887856Y-119307858D01*
X63959284Y-119022143D01*
X63959284Y-118665001D01*
X63887856Y-118379286D01*
X63816427Y-118236429D01*
X63744999Y-118165001D01*
X63602141Y-118093572D01*
X62530713Y-118236429D02*
X62459284Y-118165001D01*
X62316427Y-118093572D01*
X61959284Y-118093572D01*
X61816427Y-118165001D01*
X61744999Y-118236429D01*
X61673570Y-118379286D01*
X61673570Y-118522143D01*
X61744999Y-118736429D01*
X62602141Y-119593572D01*
X61673570Y-119593572D01*
%LPC*%
D11*
X106494999Y-119165001D03*
X31994999Y-119165001D03*
X103494999Y-28765001D03*
X34494999Y-28765001D03*
M02*
