%TF.GenerationSoftware,KiCad,Pcbnew,(6.0.11)*%
%TF.CreationDate,2026-02-20T21:52:15+09:00*%
%TF.ProjectId,ch552_numpad_rev2_bottom,63683535-325f-46e7-956d-7061645f7265,02*%
%TF.SameCoordinates,Original*%
%TF.FileFunction,Legend,Top*%
%TF.FilePolarity,Positive*%
%FSLAX46Y46*%
G04 Gerber Fmt 4.6, Leading zero omitted, Abs format (unit mm)*
G04 Created by KiCad (PCBNEW (6.0.11)) date 2026-02-20 21:52:15*
%MOMM*%
%LPD*%
G01*
G04 APERTURE LIST*
%ADD10C,0.150000*%
%ADD11C,0.300000*%
%ADD12C,4.400000*%
G04 APERTURE END LIST*
D10*
X84285564Y-30707381D02*
X84196278Y-30659762D01*
X84154612Y-30612143D01*
X84118897Y-30516905D01*
X84154612Y-30231191D01*
X84214135Y-30135953D01*
X84267707Y-30088334D01*
X84368897Y-30040715D01*
X84511754Y-30040715D01*
X84601040Y-30088334D01*
X84642707Y-30135953D01*
X84678421Y-30231191D01*
X84642707Y-30516905D01*
X84583183Y-30612143D01*
X84529612Y-30659762D01*
X84428421Y-30707381D01*
X84285564Y-30707381D01*
X85047469Y-30707381D02*
X85172469Y-29707381D01*
X85190326Y-30326429D02*
X85428421Y-30707381D01*
X85511754Y-30040715D02*
X85083183Y-30421667D01*
X85856993Y-30707381D02*
X85940326Y-30040715D01*
X85981993Y-29707381D02*
X85928421Y-29755001D01*
X85970088Y-29802620D01*
X86023659Y-29755001D01*
X85981993Y-29707381D01*
X85970088Y-29802620D01*
X86333183Y-30707381D02*
X86416516Y-30040715D01*
X86392707Y-30231191D02*
X86452231Y-30135953D01*
X86505802Y-30088334D01*
X86606993Y-30040715D01*
X86702231Y-30040715D01*
X87380802Y-30707381D02*
X87446278Y-30183572D01*
X87410564Y-30088334D01*
X87321278Y-30040715D01*
X87130802Y-30040715D01*
X87029612Y-30088334D01*
X87386754Y-30659762D02*
X87285564Y-30707381D01*
X87047469Y-30707381D01*
X86958183Y-30659762D01*
X86922469Y-30564524D01*
X86934374Y-30469286D01*
X86993897Y-30374048D01*
X87095088Y-30326429D01*
X87333183Y-30326429D01*
X87434374Y-30278810D01*
X87856993Y-30707381D02*
X87981993Y-29707381D01*
X87999850Y-30326429D02*
X88237945Y-30707381D01*
X88321278Y-30040715D02*
X87892707Y-30421667D01*
X89178421Y-30040715D02*
X89095088Y-30707381D01*
X88749850Y-30040715D02*
X88684374Y-30564524D01*
X88720088Y-30659762D01*
X88809374Y-30707381D01*
X88952231Y-30707381D01*
X89053421Y-30659762D01*
X89106993Y-30612143D01*
X89618897Y-30326429D02*
X90380802Y-30326429D01*
X91243897Y-30659762D02*
X91142707Y-30707381D01*
X90952231Y-30707381D01*
X90862945Y-30659762D01*
X90821278Y-30612143D01*
X90785564Y-30516905D01*
X90821278Y-30231191D01*
X90880802Y-30135953D01*
X90934374Y-30088334D01*
X91035564Y-30040715D01*
X91226040Y-30040715D01*
X91315326Y-30088334D01*
X92095088Y-30707381D02*
X92160564Y-30183572D01*
X92124850Y-30088334D01*
X92035564Y-30040715D01*
X91845088Y-30040715D01*
X91743897Y-30088334D01*
X92101040Y-30659762D02*
X91999850Y-30707381D01*
X91761754Y-30707381D01*
X91672469Y-30659762D01*
X91636754Y-30564524D01*
X91648659Y-30469286D01*
X91708183Y-30374048D01*
X91809374Y-30326429D01*
X92047469Y-30326429D01*
X92148659Y-30278810D01*
X92571278Y-30707381D02*
X92654612Y-30040715D01*
X92642707Y-30135953D02*
X92696278Y-30088334D01*
X92797469Y-30040715D01*
X92940326Y-30040715D01*
X93029612Y-30088334D01*
X93065326Y-30183572D01*
X92999850Y-30707381D01*
X93065326Y-30183572D02*
X93124850Y-30088334D01*
X93226040Y-30040715D01*
X93368897Y-30040715D01*
X93458183Y-30088334D01*
X93493897Y-30183572D01*
X93428421Y-30707381D01*
X94291516Y-30659762D02*
X94190326Y-30707381D01*
X93999850Y-30707381D01*
X93910564Y-30659762D01*
X93874850Y-30564524D01*
X93922469Y-30183572D01*
X93981993Y-30088334D01*
X94083183Y-30040715D01*
X94273659Y-30040715D01*
X94362945Y-30088334D01*
X94398659Y-30183572D01*
X94386754Y-30278810D01*
X93898659Y-30374048D01*
X94761754Y-30707381D02*
X94845088Y-30040715D01*
X94821278Y-30231191D02*
X94880802Y-30135953D01*
X94934374Y-30088334D01*
X95035564Y-30040715D01*
X95130802Y-30040715D01*
X95809374Y-30707381D02*
X95874850Y-30183572D01*
X95839135Y-30088334D01*
X95749850Y-30040715D01*
X95559374Y-30040715D01*
X95458183Y-30088334D01*
X95815326Y-30659762D02*
X95714135Y-30707381D01*
X95476040Y-30707381D01*
X95386754Y-30659762D01*
X95351040Y-30564524D01*
X95362945Y-30469286D01*
X95422469Y-30374048D01*
X95523659Y-30326429D01*
X95761754Y-30326429D01*
X95862945Y-30278810D01*
X96297469Y-30612143D02*
X96339135Y-30659762D01*
X96285564Y-30707381D01*
X96243897Y-30659762D01*
X96297469Y-30612143D01*
X96285564Y-30707381D01*
X96702231Y-30040715D02*
X97083183Y-30040715D01*
X96886754Y-29707381D02*
X96779612Y-30564524D01*
X96815326Y-30659762D01*
X96904612Y-30707381D01*
X96999850Y-30707381D01*
X97476040Y-30707381D02*
X97386754Y-30659762D01*
X97345088Y-30612143D01*
X97309374Y-30516905D01*
X97345088Y-30231191D01*
X97404612Y-30135953D01*
X97458183Y-30088334D01*
X97559374Y-30040715D01*
X97702231Y-30040715D01*
X97791516Y-30088334D01*
X97833183Y-30135953D01*
X97868897Y-30231191D01*
X97833183Y-30516905D01*
X97773659Y-30612143D01*
X97720088Y-30659762D01*
X97618897Y-30707381D01*
X97476040Y-30707381D01*
X98237945Y-30707381D02*
X98362945Y-29707381D01*
X98380802Y-30326429D02*
X98618897Y-30707381D01*
X98702231Y-30040715D02*
X98273659Y-30421667D01*
X99035564Y-30040715D02*
X99190326Y-30707381D01*
X99511754Y-30040715D02*
X99190326Y-30707381D01*
X99065326Y-30945477D01*
X99011754Y-30993096D01*
X98910564Y-31040715D01*
X99952231Y-30707381D02*
X99862945Y-30659762D01*
X99821278Y-30612143D01*
X99785564Y-30516905D01*
X99821278Y-30231191D01*
X99880802Y-30135953D01*
X99934374Y-30088334D01*
X100035564Y-30040715D01*
X100178421Y-30040715D01*
X100267707Y-30088334D01*
X100309374Y-30135953D01*
X100345088Y-30231191D01*
X100309374Y-30516905D01*
X100249850Y-30612143D01*
X100196278Y-30659762D01*
X100095088Y-30707381D01*
X99952231Y-30707381D01*
D11*
X41137856Y-119522143D02*
X40994998Y-119593572D01*
X40709284Y-119593572D01*
X40566427Y-119522143D01*
X40494998Y-119450715D01*
X40423570Y-119307858D01*
X40423570Y-118879286D01*
X40494998Y-118736429D01*
X40566427Y-118665001D01*
X40709284Y-118593572D01*
X40994998Y-118593572D01*
X41137856Y-118665001D01*
X41780713Y-119593572D02*
X41780713Y-118093572D01*
X42423570Y-119593572D02*
X42423570Y-118807858D01*
X42352141Y-118665001D01*
X42209284Y-118593572D01*
X41994998Y-118593572D01*
X41852141Y-118665001D01*
X41780713Y-118736429D01*
X43852141Y-118093572D02*
X43137856Y-118093572D01*
X43066427Y-118807858D01*
X43137856Y-118736429D01*
X43280713Y-118665001D01*
X43637856Y-118665001D01*
X43780713Y-118736429D01*
X43852141Y-118807858D01*
X43923570Y-118950715D01*
X43923570Y-119307858D01*
X43852141Y-119450715D01*
X43780713Y-119522143D01*
X43637856Y-119593572D01*
X43280713Y-119593572D01*
X43137856Y-119522143D01*
X43066427Y-119450715D01*
X45280713Y-118093572D02*
X44566427Y-118093572D01*
X44494998Y-118807858D01*
X44566427Y-118736429D01*
X44709284Y-118665001D01*
X45066427Y-118665001D01*
X45209284Y-118736429D01*
X45280713Y-118807858D01*
X45352141Y-118950715D01*
X45352141Y-119307858D01*
X45280713Y-119450715D01*
X45209284Y-119522143D01*
X45066427Y-119593572D01*
X44709284Y-119593572D01*
X44566427Y-119522143D01*
X44494998Y-119450715D01*
X45923570Y-118236429D02*
X45994998Y-118165001D01*
X46137856Y-118093572D01*
X46494998Y-118093572D01*
X46637856Y-118165001D01*
X46709284Y-118236429D01*
X46780713Y-118379286D01*
X46780713Y-118522143D01*
X46709284Y-118736429D01*
X45852141Y-119593572D01*
X46780713Y-119593572D01*
X47066427Y-119736429D02*
X48209284Y-119736429D01*
X48566427Y-118593572D02*
X48566427Y-119593572D01*
X48566427Y-118736429D02*
X48637856Y-118665001D01*
X48780713Y-118593572D01*
X48994998Y-118593572D01*
X49137856Y-118665001D01*
X49209284Y-118807858D01*
X49209284Y-119593572D01*
X50566427Y-118593572D02*
X50566427Y-119593572D01*
X49923570Y-118593572D02*
X49923570Y-119379286D01*
X49994998Y-119522143D01*
X50137856Y-119593572D01*
X50352141Y-119593572D01*
X50494998Y-119522143D01*
X50566427Y-119450715D01*
X51280713Y-119593572D02*
X51280713Y-118593572D01*
X51280713Y-118736429D02*
X51352141Y-118665001D01*
X51494998Y-118593572D01*
X51709284Y-118593572D01*
X51852141Y-118665001D01*
X51923570Y-118807858D01*
X51923570Y-119593572D01*
X51923570Y-118807858D02*
X51994998Y-118665001D01*
X52137856Y-118593572D01*
X52352141Y-118593572D01*
X52494998Y-118665001D01*
X52566427Y-118807858D01*
X52566427Y-119593572D01*
X53280713Y-118593572D02*
X53280713Y-120093572D01*
X53280713Y-118665001D02*
X53423570Y-118593572D01*
X53709284Y-118593572D01*
X53852141Y-118665001D01*
X53923570Y-118736429D01*
X53994998Y-118879286D01*
X53994998Y-119307858D01*
X53923570Y-119450715D01*
X53852141Y-119522143D01*
X53709284Y-119593572D01*
X53423570Y-119593572D01*
X53280713Y-119522143D01*
X55280713Y-119593572D02*
X55280713Y-118807858D01*
X55209284Y-118665001D01*
X55066427Y-118593572D01*
X54780713Y-118593572D01*
X54637856Y-118665001D01*
X55280713Y-119522143D02*
X55137856Y-119593572D01*
X54780713Y-119593572D01*
X54637856Y-119522143D01*
X54566427Y-119379286D01*
X54566427Y-119236429D01*
X54637856Y-119093572D01*
X54780713Y-119022143D01*
X55137856Y-119022143D01*
X55280713Y-118950715D01*
X56637856Y-119593572D02*
X56637856Y-118093572D01*
X56637856Y-119522143D02*
X56494998Y-119593572D01*
X56209284Y-119593572D01*
X56066427Y-119522143D01*
X55994998Y-119450715D01*
X55923570Y-119307858D01*
X55923570Y-118879286D01*
X55994998Y-118736429D01*
X56066427Y-118665001D01*
X56209284Y-118593572D01*
X56494998Y-118593572D01*
X56637856Y-118665001D01*
X56994998Y-119736429D02*
X58137856Y-119736429D01*
X58494998Y-119593572D02*
X58494998Y-118593572D01*
X58494998Y-118879286D02*
X58566427Y-118736429D01*
X58637856Y-118665001D01*
X58780713Y-118593572D01*
X58923570Y-118593572D01*
X59994998Y-119522143D02*
X59852141Y-119593572D01*
X59566427Y-119593572D01*
X59423570Y-119522143D01*
X59352141Y-119379286D01*
X59352141Y-118807858D01*
X59423570Y-118665001D01*
X59566427Y-118593572D01*
X59852141Y-118593572D01*
X59994998Y-118665001D01*
X60066427Y-118807858D01*
X60066427Y-118950715D01*
X59352141Y-119093572D01*
X60566427Y-118593572D02*
X60923570Y-119593572D01*
X61280713Y-118593572D01*
X61780713Y-118236429D02*
X61852141Y-118165001D01*
X61994998Y-118093572D01*
X62352141Y-118093572D01*
X62494998Y-118165001D01*
X62566427Y-118236429D01*
X62637856Y-118379286D01*
X62637856Y-118522143D01*
X62566427Y-118736429D01*
X61709284Y-119593572D01*
X62637856Y-119593572D01*
X64423570Y-119593572D02*
X64423570Y-118093572D01*
X64423570Y-118665001D02*
X64566427Y-118593572D01*
X64852141Y-118593572D01*
X64994998Y-118665001D01*
X65066427Y-118736429D01*
X65137856Y-118879286D01*
X65137856Y-119307858D01*
X65066427Y-119450715D01*
X64994998Y-119522143D01*
X64852141Y-119593572D01*
X64566427Y-119593572D01*
X64423570Y-119522143D01*
X65994998Y-119593572D02*
X65852141Y-119522143D01*
X65780713Y-119450715D01*
X65709284Y-119307858D01*
X65709284Y-118879286D01*
X65780713Y-118736429D01*
X65852141Y-118665001D01*
X65994998Y-118593572D01*
X66209284Y-118593572D01*
X66352141Y-118665001D01*
X66423570Y-118736429D01*
X66494998Y-118879286D01*
X66494998Y-119307858D01*
X66423570Y-119450715D01*
X66352141Y-119522143D01*
X66209284Y-119593572D01*
X65994998Y-119593572D01*
X66923570Y-118593572D02*
X67494998Y-118593572D01*
X67137856Y-118093572D02*
X67137856Y-119379286D01*
X67209284Y-119522143D01*
X67352141Y-119593572D01*
X67494998Y-119593572D01*
X67780713Y-118593572D02*
X68352141Y-118593572D01*
X67994999Y-118093572D02*
X67994999Y-119379286D01*
X68066427Y-119522143D01*
X68209284Y-119593572D01*
X68352141Y-119593572D01*
X69066427Y-119593572D02*
X68923570Y-119522143D01*
X68852141Y-119450715D01*
X68780713Y-119307858D01*
X68780713Y-118879286D01*
X68852141Y-118736429D01*
X68923570Y-118665001D01*
X69066427Y-118593572D01*
X69280713Y-118593572D01*
X69423570Y-118665001D01*
X69494999Y-118736429D01*
X69566427Y-118879286D01*
X69566427Y-119307858D01*
X69494999Y-119450715D01*
X69423570Y-119522143D01*
X69280713Y-119593572D01*
X69066427Y-119593572D01*
X70209284Y-119593572D02*
X70209284Y-118593572D01*
X70209284Y-118736429D02*
X70280713Y-118665001D01*
X70423570Y-118593572D01*
X70637856Y-118593572D01*
X70780713Y-118665001D01*
X70852141Y-118807858D01*
X70852141Y-119593572D01*
X70852141Y-118807858D02*
X70923570Y-118665001D01*
X71066427Y-118593572D01*
X71280713Y-118593572D01*
X71423570Y-118665001D01*
X71494999Y-118807858D01*
X71494999Y-119593572D01*
%LPC*%
D12*
X106494999Y-119165001D03*
X31994999Y-119165001D03*
X103494999Y-28765001D03*
X34494999Y-28765001D03*
M02*
