%TF.GenerationSoftware,KiCad,Pcbnew,(6.0.11)*%
%TF.CreationDate,2026-02-24T14:27:26+09:00*%
%TF.ProjectId,ch552_numpad_rev2_top,63683535-325f-46e7-956d-7061645f7265,02*%
%TF.SameCoordinates,Original*%
%TF.FileFunction,Legend,Top*%
%TF.FilePolarity,Positive*%
%FSLAX46Y46*%
G04 Gerber Fmt 4.6, Leading zero omitted, Abs format (unit mm)*
G04 Created by KiCad (PCBNEW (6.0.11)) date 2026-02-24 14:27:26*
%MOMM*%
%LPD*%
G01*
G04 APERTURE LIST*
%ADD10C,0.150000*%
%ADD11C,2.200000*%
G04 APERTURE END LIST*
D10*
X38710475Y-95494762D02*
X38853332Y-95542381D01*
X39091427Y-95542381D01*
X39186665Y-95494762D01*
X39234284Y-95447143D01*
X39281903Y-95351905D01*
X39281903Y-95256667D01*
X39234284Y-95161429D01*
X39186665Y-95113810D01*
X39091427Y-95066191D01*
X38900951Y-95018572D01*
X38805713Y-94970953D01*
X38758094Y-94923334D01*
X38710475Y-94828096D01*
X38710475Y-94732858D01*
X38758094Y-94637620D01*
X38805713Y-94590001D01*
X38900951Y-94542381D01*
X39139046Y-94542381D01*
X39281903Y-94590001D01*
X39615237Y-94542381D02*
X39853332Y-95542381D01*
X40043808Y-94828096D01*
X40234284Y-95542381D01*
X40472379Y-94542381D01*
X41377141Y-95542381D02*
X40805713Y-95542381D01*
X41091427Y-95542381D02*
X41091427Y-94542381D01*
X40996189Y-94685239D01*
X40900951Y-94780477D01*
X40805713Y-94828096D01*
X41710475Y-94542381D02*
X42329522Y-94542381D01*
X41996189Y-94923334D01*
X42139046Y-94923334D01*
X42234284Y-94970953D01*
X42281903Y-95018572D01*
X42329522Y-95113810D01*
X42329522Y-95351905D01*
X42281903Y-95447143D01*
X42234284Y-95494762D01*
X42139046Y-95542381D01*
X41853332Y-95542381D01*
X41758094Y-95494762D01*
X41710475Y-95447143D01*
X41853332Y-38535239D02*
X41710475Y-38487620D01*
X41472379Y-38487620D01*
X41377141Y-38535239D01*
X41329522Y-38582858D01*
X41281903Y-38678096D01*
X41281903Y-38773334D01*
X41329522Y-38868572D01*
X41377141Y-38916191D01*
X41472379Y-38963810D01*
X41662856Y-39011429D01*
X41758094Y-39059048D01*
X41805713Y-39106667D01*
X41853332Y-39201905D01*
X41853332Y-39297143D01*
X41805713Y-39392381D01*
X41758094Y-39440001D01*
X41662856Y-39487620D01*
X41424760Y-39487620D01*
X41281903Y-39440001D01*
X40948570Y-39487620D02*
X40710475Y-38487620D01*
X40519999Y-39201905D01*
X40329522Y-38487620D01*
X40091427Y-39487620D01*
X39186665Y-38487620D02*
X39758094Y-38487620D01*
X39472379Y-38487620D02*
X39472379Y-39487620D01*
X39567618Y-39344762D01*
X39662856Y-39249524D01*
X39758094Y-39201905D01*
X76810475Y-95494762D02*
X76953332Y-95542381D01*
X77191427Y-95542381D01*
X77286665Y-95494762D01*
X77334284Y-95447143D01*
X77381903Y-95351905D01*
X77381903Y-95256667D01*
X77334284Y-95161429D01*
X77286665Y-95113810D01*
X77191427Y-95066191D01*
X77000951Y-95018572D01*
X76905713Y-94970953D01*
X76858094Y-94923334D01*
X76810475Y-94828096D01*
X76810475Y-94732858D01*
X76858094Y-94637620D01*
X76905713Y-94590001D01*
X77000951Y-94542381D01*
X77239046Y-94542381D01*
X77381903Y-94590001D01*
X77715237Y-94542381D02*
X77953332Y-95542381D01*
X78143808Y-94828096D01*
X78334284Y-95542381D01*
X78572379Y-94542381D01*
X79477141Y-95542381D02*
X78905713Y-95542381D01*
X79191427Y-95542381D02*
X79191427Y-94542381D01*
X79096189Y-94685239D01*
X79000951Y-94780477D01*
X78905713Y-94828096D01*
X80381903Y-94542381D02*
X79905713Y-94542381D01*
X79858094Y-95018572D01*
X79905713Y-94970953D01*
X80000951Y-94923334D01*
X80239046Y-94923334D01*
X80334284Y-94970953D01*
X80381903Y-95018572D01*
X80429522Y-95113810D01*
X80429522Y-95351905D01*
X80381903Y-95447143D01*
X80334284Y-95494762D01*
X80239046Y-95542381D01*
X80000951Y-95542381D01*
X79905713Y-95494762D01*
X79858094Y-95447143D01*
X50755475Y-111249762D02*
X50898332Y-111297381D01*
X51136427Y-111297381D01*
X51231665Y-111249762D01*
X51279284Y-111202143D01*
X51326903Y-111106905D01*
X51326903Y-111011667D01*
X51279284Y-110916429D01*
X51231665Y-110868810D01*
X51136427Y-110821191D01*
X50945951Y-110773572D01*
X50850713Y-110725953D01*
X50803094Y-110678334D01*
X50755475Y-110583096D01*
X50755475Y-110487858D01*
X50803094Y-110392620D01*
X50850713Y-110345001D01*
X50945951Y-110297381D01*
X51184046Y-110297381D01*
X51326903Y-110345001D01*
X51660237Y-110297381D02*
X51898332Y-111297381D01*
X52088808Y-110583096D01*
X52279284Y-111297381D01*
X52517379Y-110297381D01*
X53422141Y-111297381D02*
X52850713Y-111297381D01*
X53136427Y-111297381D02*
X53136427Y-110297381D01*
X53041189Y-110440239D01*
X52945951Y-110535477D01*
X52850713Y-110583096D01*
X53755475Y-110297381D02*
X54422141Y-110297381D01*
X53993570Y-111297381D01*
X76810475Y-114544762D02*
X76953332Y-114592381D01*
X77191427Y-114592381D01*
X77286665Y-114544762D01*
X77334284Y-114497143D01*
X77381903Y-114401905D01*
X77381903Y-114306667D01*
X77334284Y-114211429D01*
X77286665Y-114163810D01*
X77191427Y-114116191D01*
X77000951Y-114068572D01*
X76905713Y-114020953D01*
X76858094Y-113973334D01*
X76810475Y-113878096D01*
X76810475Y-113782858D01*
X76858094Y-113687620D01*
X76905713Y-113640001D01*
X77000951Y-113592381D01*
X77239046Y-113592381D01*
X77381903Y-113640001D01*
X77715237Y-113592381D02*
X77953332Y-114592381D01*
X78143808Y-113878096D01*
X78334284Y-114592381D01*
X78572379Y-113592381D01*
X79477141Y-114592381D02*
X78905713Y-114592381D01*
X79191427Y-114592381D02*
X79191427Y-113592381D01*
X79096189Y-113735239D01*
X79000951Y-113830477D01*
X78905713Y-113878096D01*
X79953332Y-114592381D02*
X80143808Y-114592381D01*
X80239046Y-114544762D01*
X80286665Y-114497143D01*
X80381903Y-114354286D01*
X80429522Y-114163810D01*
X80429522Y-113782858D01*
X80381903Y-113687620D01*
X80334284Y-113640001D01*
X80239046Y-113592381D01*
X80048570Y-113592381D01*
X79953332Y-113640001D01*
X79905713Y-113687620D01*
X79858094Y-113782858D01*
X79858094Y-114020953D01*
X79905713Y-114116191D01*
X79953332Y-114163810D01*
X80048570Y-114211429D01*
X80239046Y-114211429D01*
X80334284Y-114163810D01*
X80381903Y-114116191D01*
X80429522Y-114020953D01*
X99073333Y-38535239D02*
X98930476Y-38487620D01*
X98692380Y-38487620D01*
X98597142Y-38535239D01*
X98549523Y-38582858D01*
X98501904Y-38678096D01*
X98501904Y-38773334D01*
X98549523Y-38868572D01*
X98597142Y-38916191D01*
X98692380Y-38963810D01*
X98882857Y-39011429D01*
X98978095Y-39059048D01*
X99025714Y-39106667D01*
X99073333Y-39201905D01*
X99073333Y-39297143D01*
X99025714Y-39392381D01*
X98978095Y-39440001D01*
X98882857Y-39487620D01*
X98644761Y-39487620D01*
X98501904Y-39440001D01*
X98168571Y-39487620D02*
X97930476Y-38487620D01*
X97740000Y-39201905D01*
X97549523Y-38487620D01*
X97311428Y-39487620D01*
X96501904Y-39154286D02*
X96501904Y-38487620D01*
X96740000Y-39535239D02*
X96978095Y-38820953D01*
X96359047Y-38820953D01*
X58106664Y-57434762D02*
X58249521Y-57482381D01*
X58487617Y-57482381D01*
X58582855Y-57434762D01*
X58630474Y-57387143D01*
X58678093Y-57291905D01*
X58678093Y-57196667D01*
X58630474Y-57101429D01*
X58582855Y-57053810D01*
X58487617Y-57006191D01*
X58297140Y-56958572D01*
X58201902Y-56910953D01*
X58154283Y-56863334D01*
X58106664Y-56768096D01*
X58106664Y-56672858D01*
X58154283Y-56577620D01*
X58201902Y-56530001D01*
X58297140Y-56482381D01*
X58535236Y-56482381D01*
X58678093Y-56530001D01*
X59011426Y-56482381D02*
X59249521Y-57482381D01*
X59439998Y-56768096D01*
X59630474Y-57482381D01*
X59868569Y-56482381D01*
X60678093Y-56482381D02*
X60487617Y-56482381D01*
X60392378Y-56530001D01*
X60344759Y-56577620D01*
X60249521Y-56720477D01*
X60201902Y-56910953D01*
X60201902Y-57291905D01*
X60249521Y-57387143D01*
X60297140Y-57434762D01*
X60392378Y-57482381D01*
X60582855Y-57482381D01*
X60678093Y-57434762D01*
X60725712Y-57387143D01*
X60773331Y-57291905D01*
X60773331Y-57053810D01*
X60725712Y-56958572D01*
X60678093Y-56910953D01*
X60582855Y-56863334D01*
X60392378Y-56863334D01*
X60297140Y-56910953D01*
X60249521Y-56958572D01*
X60201902Y-57053810D01*
X41853332Y-76635239D02*
X41710475Y-76587620D01*
X41472379Y-76587620D01*
X41377141Y-76635239D01*
X41329522Y-76682858D01*
X41281903Y-76778096D01*
X41281903Y-76873334D01*
X41329522Y-76968572D01*
X41377141Y-77016191D01*
X41472379Y-77063810D01*
X41662856Y-77111429D01*
X41758094Y-77159048D01*
X41805713Y-77206667D01*
X41853332Y-77301905D01*
X41853332Y-77397143D01*
X41805713Y-77492381D01*
X41758094Y-77540001D01*
X41662856Y-77587620D01*
X41424760Y-77587620D01*
X41281903Y-77540001D01*
X40948570Y-77587620D02*
X40710475Y-76587620D01*
X40519999Y-77301905D01*
X40329522Y-76587620D01*
X40091427Y-77587620D01*
X39662856Y-76587620D02*
X39472379Y-76587620D01*
X39377141Y-76635239D01*
X39329522Y-76682858D01*
X39234284Y-76825715D01*
X39186665Y-77016191D01*
X39186665Y-77397143D01*
X39234284Y-77492381D01*
X39281903Y-77540001D01*
X39377141Y-77587620D01*
X39567618Y-77587620D01*
X39662856Y-77540001D01*
X39710475Y-77492381D01*
X39758094Y-77397143D01*
X39758094Y-77159048D01*
X39710475Y-77063810D01*
X39662856Y-77016191D01*
X39567618Y-76968572D01*
X39377141Y-76968572D01*
X39281903Y-77016191D01*
X39234284Y-77063810D01*
X39186665Y-77159048D01*
X60973332Y-38535239D02*
X60830475Y-38487620D01*
X60592379Y-38487620D01*
X60497141Y-38535239D01*
X60449522Y-38582858D01*
X60401903Y-38678096D01*
X60401903Y-38773334D01*
X60449522Y-38868572D01*
X60497141Y-38916191D01*
X60592379Y-38963810D01*
X60782856Y-39011429D01*
X60878094Y-39059048D01*
X60925713Y-39106667D01*
X60973332Y-39201905D01*
X60973332Y-39297143D01*
X60925713Y-39392381D01*
X60878094Y-39440001D01*
X60782856Y-39487620D01*
X60544760Y-39487620D01*
X60401903Y-39440001D01*
X60068570Y-39487620D02*
X59830475Y-38487620D01*
X59639999Y-39201905D01*
X59449522Y-38487620D01*
X59211427Y-39487620D01*
X58878094Y-39392381D02*
X58830475Y-39440001D01*
X58735237Y-39487620D01*
X58497141Y-39487620D01*
X58401903Y-39440001D01*
X58354284Y-39392381D01*
X58306665Y-39297143D01*
X58306665Y-39201905D01*
X58354284Y-39059048D01*
X58925713Y-38487620D01*
X58306665Y-38487620D01*
X98089760Y-106534524D02*
X98137379Y-106391667D01*
X98137379Y-106153572D01*
X98089760Y-106058334D01*
X98042141Y-106010715D01*
X97946903Y-105963096D01*
X97851665Y-105963096D01*
X97756427Y-106010715D01*
X97708808Y-106058334D01*
X97661189Y-106153572D01*
X97613570Y-106344048D01*
X97565951Y-106439286D01*
X97518332Y-106486905D01*
X97423094Y-106534524D01*
X97327856Y-106534524D01*
X97232618Y-106486905D01*
X97184999Y-106439286D01*
X97137379Y-106344048D01*
X97137379Y-106105953D01*
X97184999Y-105963096D01*
X97137379Y-105629762D02*
X98137379Y-105391667D01*
X97423094Y-105201191D01*
X98137379Y-105010715D01*
X97137379Y-104772620D01*
X98137379Y-103867858D02*
X98137379Y-104439286D01*
X98137379Y-104153572D02*
X97137379Y-104153572D01*
X97280237Y-104248810D01*
X97375475Y-104344048D01*
X97423094Y-104439286D01*
X97137379Y-103010715D02*
X97137379Y-103201191D01*
X97184999Y-103296429D01*
X97232618Y-103344048D01*
X97375475Y-103439286D01*
X97565951Y-103486905D01*
X97946903Y-103486905D01*
X98042141Y-103439286D01*
X98089760Y-103391667D01*
X98137379Y-103296429D01*
X98137379Y-103105953D01*
X98089760Y-103010715D01*
X98042141Y-102963096D01*
X97946903Y-102915477D01*
X97708808Y-102915477D01*
X97613570Y-102963096D01*
X97565951Y-103010715D01*
X97518332Y-103105953D01*
X97518332Y-103296429D01*
X97565951Y-103391667D01*
X97613570Y-103439286D01*
X97708808Y-103486905D01*
X57760475Y-95494762D02*
X57903332Y-95542381D01*
X58141427Y-95542381D01*
X58236665Y-95494762D01*
X58284284Y-95447143D01*
X58331903Y-95351905D01*
X58331903Y-95256667D01*
X58284284Y-95161429D01*
X58236665Y-95113810D01*
X58141427Y-95066191D01*
X57950951Y-95018572D01*
X57855713Y-94970953D01*
X57808094Y-94923334D01*
X57760475Y-94828096D01*
X57760475Y-94732858D01*
X57808094Y-94637620D01*
X57855713Y-94590001D01*
X57950951Y-94542381D01*
X58189046Y-94542381D01*
X58331903Y-94590001D01*
X58665237Y-94542381D02*
X58903332Y-95542381D01*
X59093808Y-94828096D01*
X59284284Y-95542381D01*
X59522379Y-94542381D01*
X60427141Y-95542381D02*
X59855713Y-95542381D01*
X60141427Y-95542381D02*
X60141427Y-94542381D01*
X60046189Y-94685239D01*
X59950951Y-94780477D01*
X59855713Y-94828096D01*
X61284284Y-94875715D02*
X61284284Y-95542381D01*
X61046189Y-94494762D02*
X60808094Y-95209048D01*
X61427141Y-95209048D01*
X97769760Y-68038334D02*
X97817379Y-67895477D01*
X97817379Y-67657381D01*
X97769760Y-67562143D01*
X97722141Y-67514524D01*
X97626903Y-67466905D01*
X97531665Y-67466905D01*
X97436427Y-67514524D01*
X97388808Y-67562143D01*
X97341189Y-67657381D01*
X97293570Y-67847858D01*
X97245951Y-67943096D01*
X97198332Y-67990715D01*
X97103094Y-68038334D01*
X97007856Y-68038334D01*
X96912618Y-67990715D01*
X96864999Y-67943096D01*
X96817379Y-67847858D01*
X96817379Y-67609762D01*
X96864999Y-67466905D01*
X96817379Y-67133572D02*
X97817379Y-66895477D01*
X97103094Y-66705001D01*
X97817379Y-66514524D01*
X96817379Y-66276429D01*
X97245951Y-65752620D02*
X97198332Y-65847858D01*
X97150713Y-65895477D01*
X97055475Y-65943096D01*
X97007856Y-65943096D01*
X96912618Y-65895477D01*
X96864999Y-65847858D01*
X96817379Y-65752620D01*
X96817379Y-65562143D01*
X96864999Y-65466905D01*
X96912618Y-65419286D01*
X97007856Y-65371667D01*
X97055475Y-65371667D01*
X97150713Y-65419286D01*
X97198332Y-65466905D01*
X97245951Y-65562143D01*
X97245951Y-65752620D01*
X97293570Y-65847858D01*
X97341189Y-65895477D01*
X97436427Y-65943096D01*
X97626903Y-65943096D01*
X97722141Y-65895477D01*
X97769760Y-65847858D01*
X97817379Y-65752620D01*
X97817379Y-65562143D01*
X97769760Y-65466905D01*
X97722141Y-65419286D01*
X97626903Y-65371667D01*
X97436427Y-65371667D01*
X97341189Y-65419286D01*
X97293570Y-65466905D01*
X97245951Y-65562143D01*
X77356665Y-57434762D02*
X77499522Y-57482381D01*
X77737618Y-57482381D01*
X77832856Y-57434762D01*
X77880475Y-57387143D01*
X77928094Y-57291905D01*
X77928094Y-57196667D01*
X77880475Y-57101429D01*
X77832856Y-57053810D01*
X77737618Y-57006191D01*
X77547141Y-56958572D01*
X77451903Y-56910953D01*
X77404284Y-56863334D01*
X77356665Y-56768096D01*
X77356665Y-56672858D01*
X77404284Y-56577620D01*
X77451903Y-56530001D01*
X77547141Y-56482381D01*
X77785237Y-56482381D01*
X77928094Y-56530001D01*
X78261427Y-56482381D02*
X78499522Y-57482381D01*
X78689999Y-56768096D01*
X78880475Y-57482381D01*
X79118570Y-56482381D01*
X79404284Y-56482381D02*
X80070951Y-56482381D01*
X79642379Y-57482381D01*
X61379522Y-76635239D02*
X61236665Y-76587620D01*
X60998570Y-76587620D01*
X60903332Y-76635239D01*
X60855713Y-76682858D01*
X60808094Y-76778096D01*
X60808094Y-76873334D01*
X60855713Y-76968572D01*
X60903332Y-77016191D01*
X60998570Y-77063810D01*
X61189046Y-77111429D01*
X61284284Y-77159048D01*
X61331903Y-77206667D01*
X61379522Y-77301905D01*
X61379522Y-77397143D01*
X61331903Y-77492381D01*
X61284284Y-77540001D01*
X61189046Y-77587620D01*
X60950951Y-77587620D01*
X60808094Y-77540001D01*
X60474760Y-77587620D02*
X60236665Y-76587620D01*
X60046189Y-77301905D01*
X59855713Y-76587620D01*
X59617618Y-77587620D01*
X58712856Y-76587620D02*
X59284284Y-76587620D01*
X58998570Y-76587620D02*
X58998570Y-77587620D01*
X59093808Y-77444762D01*
X59189046Y-77349524D01*
X59284284Y-77301905D01*
X58093808Y-77587620D02*
X57998570Y-77587620D01*
X57903332Y-77540001D01*
X57855713Y-77492381D01*
X57808094Y-77397143D01*
X57760475Y-77206667D01*
X57760475Y-76968572D01*
X57808094Y-76778096D01*
X57855713Y-76682858D01*
X57903332Y-76635239D01*
X57998570Y-76587620D01*
X58093808Y-76587620D01*
X58189046Y-76635239D01*
X58236665Y-76682858D01*
X58284284Y-76778096D01*
X58331903Y-76968572D01*
X58331903Y-77206667D01*
X58284284Y-77397143D01*
X58236665Y-77492381D01*
X58189046Y-77540001D01*
X58093808Y-77587620D01*
X80023332Y-38535239D02*
X79880475Y-38487620D01*
X79642379Y-38487620D01*
X79547141Y-38535239D01*
X79499522Y-38582858D01*
X79451903Y-38678096D01*
X79451903Y-38773334D01*
X79499522Y-38868572D01*
X79547141Y-38916191D01*
X79642379Y-38963810D01*
X79832856Y-39011429D01*
X79928094Y-39059048D01*
X79975713Y-39106667D01*
X80023332Y-39201905D01*
X80023332Y-39297143D01*
X79975713Y-39392381D01*
X79928094Y-39440001D01*
X79832856Y-39487620D01*
X79594760Y-39487620D01*
X79451903Y-39440001D01*
X79118570Y-39487620D02*
X78880475Y-38487620D01*
X78689999Y-39201905D01*
X78499522Y-38487620D01*
X78261427Y-39487620D01*
X77975713Y-39487620D02*
X77356665Y-39487620D01*
X77689999Y-39106667D01*
X77547141Y-39106667D01*
X77451903Y-39059048D01*
X77404284Y-39011429D01*
X77356665Y-38916191D01*
X77356665Y-38678096D01*
X77404284Y-38582858D01*
X77451903Y-38535239D01*
X77547141Y-38487620D01*
X77832856Y-38487620D01*
X77928094Y-38535239D01*
X77975713Y-38582858D01*
X39186665Y-57394762D02*
X39329522Y-57442381D01*
X39567618Y-57442381D01*
X39662856Y-57394762D01*
X39710475Y-57347143D01*
X39758094Y-57251905D01*
X39758094Y-57156667D01*
X39710475Y-57061429D01*
X39662856Y-57013810D01*
X39567618Y-56966191D01*
X39377141Y-56918572D01*
X39281903Y-56870953D01*
X39234284Y-56823334D01*
X39186665Y-56728096D01*
X39186665Y-56632858D01*
X39234284Y-56537620D01*
X39281903Y-56490001D01*
X39377141Y-56442381D01*
X39615237Y-56442381D01*
X39758094Y-56490001D01*
X40091427Y-56442381D02*
X40329522Y-57442381D01*
X40519999Y-56728096D01*
X40710475Y-57442381D01*
X40948570Y-56442381D01*
X41805713Y-56442381D02*
X41329522Y-56442381D01*
X41281903Y-56918572D01*
X41329522Y-56870953D01*
X41424760Y-56823334D01*
X41662856Y-56823334D01*
X41758094Y-56870953D01*
X41805713Y-56918572D01*
X41853332Y-57013810D01*
X41853332Y-57251905D01*
X41805713Y-57347143D01*
X41758094Y-57394762D01*
X41662856Y-57442381D01*
X41424760Y-57442381D01*
X41329522Y-57394762D01*
X41281903Y-57347143D01*
X80429522Y-76635239D02*
X80286665Y-76587620D01*
X80048570Y-76587620D01*
X79953332Y-76635239D01*
X79905713Y-76682858D01*
X79858094Y-76778096D01*
X79858094Y-76873334D01*
X79905713Y-76968572D01*
X79953332Y-77016191D01*
X80048570Y-77063810D01*
X80239046Y-77111429D01*
X80334284Y-77159048D01*
X80381903Y-77206667D01*
X80429522Y-77301905D01*
X80429522Y-77397143D01*
X80381903Y-77492381D01*
X80334284Y-77540001D01*
X80239046Y-77587620D01*
X80000951Y-77587620D01*
X79858094Y-77540001D01*
X79524760Y-77587620D02*
X79286665Y-76587620D01*
X79096189Y-77301905D01*
X78905713Y-76587620D01*
X78667618Y-77587620D01*
X77762856Y-76587620D02*
X78334284Y-76587620D01*
X78048570Y-76587620D02*
X78048570Y-77587620D01*
X78143808Y-77444762D01*
X78239046Y-77349524D01*
X78334284Y-77301905D01*
X76810475Y-76587620D02*
X77381903Y-76587620D01*
X77096189Y-76587620D02*
X77096189Y-77587620D01*
X77191427Y-77444762D01*
X77286665Y-77349524D01*
X77381903Y-77301905D01*
%LPC*%
D11*
X106494999Y-119165001D03*
X31994999Y-119165001D03*
X103494999Y-28765001D03*
X34494999Y-28765001D03*
M02*
